<svg width="162" height="190" viewBox="0 0 162 190" fill="none" xmlns="http://www.w3.org/2000/svg">
<path d="M120.959 81C143.073 81 161 63.0914 161 41C161 18.9086 143.073 1 120.959 1C100.845 1 84.1949 15.8151 81.3472 35.1176C80.1321 43.3529 82.2607 54.4313 85.3276 59.2681C91.9708 72.1727 105.433 81 120.959 81Z" stroke="#DFD4D4"/>
<path d="M-30.0007 127.796L59.7943 38.0006L77.5074 38.0006L121.796 38.0006L121.796 100.002L32.0006 189.797L-30.0007 127.796Z" fill="#EADDDD"/>
<path d="M43.7598 81.8286L-5.41368 131.002M38.4148 114.967L8.48316 144.899M44.8287 149.175L28.7939 165.21" stroke="white"/>
<path d="M99.3494 79.6908C94.0359 85.0043 85.4211 85.0043 80.1076 79.6908C74.7942 74.3773 74.7942 65.7625 80.1076 60.449C85.4211 55.1355 94.0359 55.1355 99.3494 60.449C104.45 65.5496 104.654 73.6922 99.9625 79.0366C99.7667 79.2597 99.5623 79.4779 99.3494 79.6908Z" fill="white"/>
<path d="M161 41C161 63.0914 142.957 81 120.7 81C105.074 81 91.5248 72.1727 84.8386 59.2681C84.5501 58.8161 84.27 58.3096 84 57.7561" stroke="#DFD4D4"/>
</svg>
