<svg width="107" height="393" viewBox="0 0 107 393" fill="none" xmlns="http://www.w3.org/2000/svg">
<path d="M32.8757 5.96516V32.9189H33.9382C42.4384 11.6396 57.5501 1 79.2728 1C88.2453 1 96.9816 3.719 105.482 9.15704L90.9606 38.2388C85.766 33.7465 79.2728 31.5004 71.481 31.5004C45.7442 31.5004 32.8757 51.1246 32.8757 90.3731V391.058H1V5.96516H32.8757Z" fill="white"/>
<path d="M33.3757 5.96516V5.46516H32.8757H1H0.5V5.96516V391.058V391.558H1H32.8757H33.3757V391.058V90.3731C33.3757 70.7876 36.5894 56.1853 42.9452 46.4927C49.2769 36.837 58.7618 32.0004 71.481 32.0004C79.1699 32.0004 85.542 34.2139 90.6335 38.617L91.1204 39.038L91.4079 38.4622L105.929 9.38041L106.13 8.97816L105.751 8.73586C97.1809 3.25296 88.3523 0.5 79.2728 0.5C68.327 0.5 59.0133 3.18189 51.3592 8.5709C43.7822 13.9057 37.8684 21.8674 33.6003 32.4189H33.3757V5.96516Z" stroke="black" stroke-opacity="0.1"/>
</svg>
