<svg width="161" height="179" viewBox="0 0 161 179" fill="none" xmlns="http://www.w3.org/2000/svg">
<path d="M159.317 94.7743H159.817V94.2743V89.3091C159.817 63.2193 153.42 42.174 140.581 26.2217C126.775 9.06102 107.141 0.5 81.7521 0.5C55.6591 0.5 35.3206 9.05743 20.8063 26.2122L20.8046 26.2142C7.25257 42.4035 0.5 63.8065 0.5 90.3731C0.5 115.54 7.8534 136.469 22.5844 153.124L22.5871 153.127C37.5687 169.795 57.5444 178.118 82.4605 178.118C98.6044 178.118 113.567 174.076 127.34 165.991C141.114 157.906 151.92 146.727 159.755 132.463L159.992 132.031L159.563 131.787L132.646 116.537L132.226 116.299L131.973 116.711C118.813 138.125 102.426 148.746 82.8145 148.746C68.0864 148.746 56.0677 143.136 46.7189 131.903L46.7132 131.896C37.9262 121.708 33.4768 109.344 33.3775 94.7743H159.317ZM111.868 40.3759L111.868 40.376L111.874 40.3813C119.682 47.5105 124.682 57.2563 126.848 69.6577H35.2339C37.1799 57.9661 42.2916 48.3335 50.5661 40.7373C59.2056 33.0225 69.5917 29.1631 81.7521 29.1631C93.9184 29.1631 103.944 32.9075 111.868 40.3759Z" stroke="white"/>
</svg>
