<svg width="136" height="181" viewBox="0 0 136 181" fill="none" xmlns="http://www.w3.org/2000/svg">
<path d="M50.1751 150.961C66.8761 150.961 80.2369 144.862 90.2575 132.664C99.8009 121.423 104.573 107.193 104.573 89.9721C104.573 72.9909 99.6817 58.7602 89.8996 47.2799C80.1176 35.5604 66.8761 29.7007 50.1751 29.7007C34.1899 29.7007 21.3063 35.68 11.5242 47.6386C1.98082 59.3581 -2.79091 73.4692 -2.79091 89.9721C-2.79091 106.714 1.74221 120.825 10.8085 132.306C20.5905 144.743 33.7127 150.961 50.1751 150.961ZM134.992 6.0226V173.922H102.783V147.732H102.067C87.5138 169.019 68.5462 179.662 45.1648 179.662C20.3519 179.662 0.549305 170.573 -14.243 152.396C-28.081 135.415 -35 114.248 -35 88.8959C-35 64.9786 -27.9617 44.5294 -13.8852 27.5481C1.14574 9.84937 20.4712 1 44.0912 1C68.1884 1 87.5138 12.0019 102.067 34.0058H102.783V6.0226H134.992Z" fill="white"/>
<path d="M89.8763 132.341L89.8712 132.347C79.9517 144.422 66.7365 150.461 50.1751 150.461C33.8588 150.461 20.8843 144.307 11.2015 131.997L11.2009 131.996C2.21419 120.616 -2.29091 106.619 -2.29091 89.9721C-2.29091 73.5732 2.44787 59.5766 11.9116 47.9548C21.5949 36.1171 34.3341 30.2007 50.1751 30.2007C66.7437 30.2007 79.8385 36.0062 89.5158 47.6003L89.5191 47.6042C99.2142 58.9825 104.073 73.0938 104.073 89.9721C104.073 107.095 99.3305 121.205 89.8763 132.341ZM135.492 6.0226V5.5226H134.992H102.783H102.283V6.0226V33.4268C87.6702 11.5004 68.263 0.5 44.0912 0.5C20.3274 0.5 0.8615 9.41164 -14.2663 27.2245L-14.2663 27.2244L-14.2701 27.229C-28.4275 44.3078 -35.5 64.8727 -35.5 88.8959C-35.5 114.344 -28.5525 135.628 -14.6306 152.712C0.262863 171.013 20.2117 180.162 45.1648 180.162C68.6247 180.162 87.6732 169.517 102.283 148.301V173.922V174.422H102.783H134.992H135.492V173.922V6.0226Z" stroke="black" stroke-opacity="0.1"/>
</svg>
