<svg width="180" height="48" viewBox="0 0 180 48" fill="none" xmlns="http://www.w3.org/2000/svg">
<rect width="89.9859" height="47.9999" fill="#E11E26"/>
<path d="M43.7578 37.8399L44.101 36.2103H44.7069L44.7696 37.3474H44.7786L45.3636 36.2103H45.9873L45.6381 37.8399H45.2322L45.4113 37.034C45.4272 36.9584 45.4441 36.8858 45.462 36.8162C45.48 36.7445 45.4959 36.6868 45.5098 36.6431H45.5008L44.883 37.8399H44.4622L44.3965 36.6431H44.3906C44.3806 36.7226 44.3697 36.7953 44.3577 36.8609C44.3458 36.9246 44.3329 36.9883 44.3189 37.052L44.1607 37.8399H43.7578Z" fill="white"/>
<path d="M46.5886 37.8697C46.511 37.8697 46.4364 37.8508 46.3648 37.813C46.2951 37.7732 46.2384 37.7106 46.1947 37.625C46.1509 37.5375 46.129 37.422 46.129 37.2788C46.129 37.1733 46.1399 37.0679 46.1618 36.9624C46.1857 36.857 46.2185 36.7575 46.2603 36.6639C46.3041 36.5704 46.3568 36.4879 46.4185 36.4162C46.4802 36.3426 46.5498 36.2849 46.6274 36.2431C46.707 36.2013 46.7926 36.1804 46.8841 36.1804C46.9538 36.1804 47.0135 36.1904 47.0632 36.2103C47.1149 36.2302 47.1587 36.258 47.1945 36.2938C47.2323 36.3297 47.2632 36.3715 47.287 36.4192H47.299L47.3826 36.2103H47.7198L47.3736 37.8399H47.0453L47.0662 37.628H47.0542C47.0164 37.6757 46.9747 37.7175 46.9289 37.7533C46.8831 37.7892 46.8324 37.818 46.7767 37.8399C46.721 37.8598 46.6583 37.8697 46.5886 37.8697ZM46.7617 37.5146C46.8214 37.5146 46.8772 37.4907 46.9289 37.4429C46.9806 37.3952 47.0244 37.3335 47.0602 37.2579C47.098 37.1823 47.1249 37.1027 47.1408 37.0191C47.1488 36.9793 47.1537 36.9405 47.1557 36.9027C47.1597 36.8629 47.1617 36.8201 47.1617 36.7744C47.1617 36.7047 47.1438 36.648 47.108 36.6043C47.0722 36.5585 47.0224 36.5356 46.9587 36.5356C46.915 36.5356 46.8742 36.5495 46.8364 36.5774C46.7986 36.6052 46.7627 36.6431 46.7289 36.6908C46.6971 36.7386 46.6692 36.7933 46.6453 36.855C46.6235 36.9166 46.6056 36.9823 46.5916 37.052C46.5797 37.1196 46.5737 37.1883 46.5737 37.2579C46.5737 37.3435 46.5896 37.4081 46.6215 37.4519C46.6553 37.4937 46.7021 37.5146 46.7617 37.5146Z" fill="white"/>
<path d="M47.8235 37.8399L48.1698 36.2103H48.504L48.4742 36.5117H48.4861C48.5279 36.4461 48.5737 36.3884 48.6234 36.3386C48.6752 36.2889 48.7319 36.2501 48.7935 36.2222C48.8552 36.1944 48.9239 36.1804 48.9995 36.1804C49.1109 36.1804 49.1975 36.2103 49.2592 36.27C49.3208 36.3277 49.3616 36.4083 49.3815 36.5117H49.3935C49.4352 36.4461 49.481 36.3884 49.5308 36.3386C49.5825 36.2889 49.6402 36.2501 49.7039 36.2222C49.7675 36.1944 49.8372 36.1804 49.9128 36.1804C50.0481 36.1804 50.1496 36.2232 50.2172 36.3088C50.2849 36.3923 50.3187 36.5058 50.3187 36.649C50.3187 36.6848 50.3157 36.7256 50.3098 36.7714C50.3038 36.8152 50.2958 36.8619 50.2859 36.9117L50.0919 37.8399H49.6531L49.8531 36.8878C49.8611 36.854 49.867 36.8231 49.871 36.7953C49.875 36.7654 49.877 36.7386 49.877 36.7147C49.877 36.653 49.865 36.6082 49.8412 36.5804C49.8173 36.5505 49.7815 36.5356 49.7337 36.5356C49.684 36.5356 49.6372 36.5515 49.5934 36.5834C49.5517 36.6152 49.5129 36.66 49.477 36.7177C49.4432 36.7754 49.4124 36.842 49.3845 36.9176C49.3586 36.9933 49.3368 37.0748 49.3188 37.1624L49.1786 37.8399H48.7398L48.9398 36.8878C48.9478 36.854 48.9537 36.8231 48.9577 36.7953C48.9617 36.7654 48.9637 36.7386 48.9637 36.7147C48.9637 36.653 48.9517 36.6082 48.9279 36.5804C48.904 36.5505 48.8682 36.5356 48.8204 36.5356C48.7707 36.5356 48.7239 36.5525 48.6801 36.5863C48.6383 36.6182 48.5995 36.663 48.5637 36.7207C48.5299 36.7784 48.4991 36.845 48.4712 36.9206C48.4453 36.9962 48.4235 37.0778 48.4055 37.1654L48.2623 37.8399H47.8235Z" fill="white"/>
<path d="M51.2477 37.8697C51.1204 37.8697 51.008 37.8469 50.9105 37.8011C50.815 37.7553 50.7394 37.6857 50.6836 37.5922C50.6299 37.4987 50.6031 37.3813 50.6031 37.24C50.6031 37.1027 50.622 36.9714 50.6598 36.846C50.6996 36.7187 50.7573 36.6052 50.8329 36.5058C50.9105 36.4063 51.006 36.3277 51.1194 36.27C51.2328 36.2103 51.3642 36.1804 51.5134 36.1804C51.6964 36.1804 51.8327 36.2222 51.9223 36.3058C52.0138 36.3894 52.0596 36.4958 52.0596 36.6251C52.0596 36.7107 52.0397 36.7883 51.9999 36.8579C51.9621 36.9276 51.9044 36.9873 51.8268 37.037C51.7512 37.0868 51.6547 37.1256 51.5373 37.1534C51.4199 37.1793 51.2816 37.1922 51.1224 37.1922H51.0478C51.0458 37.2042 51.0448 37.2151 51.0448 37.2251C51.0448 37.233 51.0448 37.242 51.0448 37.2519C51.0448 37.3395 51.0697 37.4091 51.1194 37.4608C51.1711 37.5126 51.2428 37.5384 51.3343 37.5384C51.4199 37.5384 51.4975 37.5285 51.5671 37.5086C51.6367 37.4887 51.7193 37.4569 51.8148 37.4131V37.7444C51.7293 37.7862 51.6427 37.818 51.5552 37.8399C51.4676 37.8598 51.3651 37.8697 51.2477 37.8697ZM51.1612 36.8967C51.2746 36.8967 51.3661 36.8848 51.4358 36.8609C51.5054 36.8371 51.5562 36.8052 51.588 36.7654C51.6218 36.7236 51.6387 36.6799 51.6387 36.6341C51.6387 36.5883 51.6248 36.5545 51.597 36.5326C51.5711 36.5087 51.5343 36.4968 51.4865 36.4968C51.4328 36.4968 51.3791 36.5137 51.3253 36.5475C51.2716 36.5814 51.2239 36.6281 51.1821 36.6878C51.1423 36.7475 51.1134 36.8172 51.0955 36.8967H51.1612Z" fill="white"/>
<path d="M52.0346 38.5562L52.5331 36.2103H52.8673L52.8435 36.458H52.8554C52.8892 36.4103 52.928 36.3655 52.9718 36.3237C53.0176 36.2819 53.0693 36.2481 53.127 36.2222C53.1847 36.1944 53.2484 36.1804 53.318 36.1804C53.3976 36.1804 53.4722 36.2003 53.5419 36.2401C53.6115 36.2779 53.6682 36.3406 53.712 36.4282C53.7558 36.5137 53.7777 36.6291 53.7777 36.7744C53.7777 36.8798 53.7657 36.9853 53.7418 37.0908C53.72 37.1962 53.6871 37.2957 53.6434 37.3892C53.6016 37.4827 53.5498 37.5653 53.4881 37.6369C53.4265 37.7086 53.3558 37.7653 53.2762 37.8071C53.1986 37.8489 53.1141 37.8697 53.0225 37.8697C52.9569 37.8697 52.9012 37.8598 52.8554 37.8399C52.8096 37.818 52.7708 37.7892 52.739 37.7533C52.7072 37.7155 52.6783 37.6747 52.6524 37.631H52.6405C52.6345 37.7106 52.6266 37.7832 52.6166 37.8489C52.6067 37.9145 52.5937 37.9852 52.5778 38.0608L52.4734 38.5562H52.0346ZM52.9479 37.5146C52.9917 37.5146 53.0325 37.5006 53.0703 37.4728C53.1081 37.4449 53.1429 37.4071 53.1748 37.3594C53.2086 37.3116 53.2364 37.2569 53.2583 37.1952C53.2822 37.1335 53.3001 37.0679 53.3121 36.9982C53.326 36.9286 53.3329 36.8599 53.3329 36.7923C53.3329 36.7067 53.317 36.6431 53.2852 36.6013C53.2534 36.5575 53.2056 36.5356 53.1419 36.5356C53.0942 36.5356 53.0514 36.5475 53.0136 36.5714C52.9758 36.5953 52.942 36.6281 52.9121 36.6699C52.8843 36.7097 52.8594 36.7555 52.8375 36.8072C52.8156 36.8589 52.7977 36.9117 52.7838 36.9654C52.7718 37.0191 52.7619 37.0718 52.7539 37.1236C52.748 37.1733 52.745 37.2181 52.745 37.2579C52.745 37.3355 52.7629 37.3982 52.7987 37.4459C52.8365 37.4917 52.8862 37.5146 52.9479 37.5146Z" fill="white"/>
<path d="M54.4842 37.8697C54.3907 37.8697 54.3131 37.8508 54.2514 37.813C54.1897 37.7732 54.144 37.7185 54.1141 37.6489C54.0843 37.5792 54.0693 37.4967 54.0693 37.4012C54.0693 37.3653 54.0723 37.3196 54.0783 37.2639C54.0843 37.2062 54.0932 37.1485 54.1052 37.0908L54.2902 36.2103H54.7289L54.529 37.1624C54.521 37.1942 54.515 37.2251 54.5111 37.2549C54.5071 37.2848 54.5051 37.3116 54.5051 37.3355C54.5051 37.3972 54.518 37.4429 54.5439 37.4728C54.5718 37.5006 54.6116 37.5146 54.6633 37.5146C54.7309 37.5146 54.7906 37.4867 54.8424 37.431C54.8961 37.3733 54.9428 37.2967 54.9826 37.2012C55.0224 37.1057 55.0543 37.0002 55.0782 36.8848L55.2214 36.2103H55.6602L55.3139 37.8399H54.9797L55.0095 37.5384H54.9946C54.9528 37.6021 54.907 37.6598 54.8573 37.7116C54.8075 37.7613 54.7518 37.8001 54.6901 37.828C54.6285 37.8558 54.5598 37.8697 54.4842 37.8697Z" fill="white"/>
<path d="M56.3004 37.8697C56.2228 37.8697 56.1482 37.8508 56.0766 37.813C56.0069 37.7732 55.9502 37.7106 55.9064 37.625C55.8627 37.5375 55.8408 37.422 55.8408 37.2788C55.8408 37.1733 55.8517 37.0679 55.8736 36.9624C55.8975 36.857 55.9303 36.7575 55.9721 36.6639C56.0159 36.5704 56.0686 36.4879 56.1303 36.4162C56.192 36.3426 56.2616 36.2849 56.3392 36.2431C56.4188 36.2013 56.5044 36.1804 56.5959 36.1804C56.6655 36.1804 56.7252 36.1904 56.775 36.2103C56.8267 36.2302 56.8705 36.258 56.9063 36.2938C56.9441 36.3297 56.9749 36.3715 56.9988 36.4192H57.0108L57.0943 36.2103H57.4316L57.0854 37.8399H56.7571L56.778 37.628H56.766C56.7282 37.6757 56.6864 37.7175 56.6407 37.7533C56.5949 37.7892 56.5442 37.818 56.4884 37.8399C56.4327 37.8598 56.3701 37.8697 56.3004 37.8697ZM56.4735 37.5146C56.5332 37.5146 56.5889 37.4907 56.6407 37.4429C56.6924 37.3952 56.7362 37.3335 56.772 37.2579C56.8098 37.1823 56.8367 37.1027 56.8526 37.0191C56.8605 36.9793 56.8655 36.9405 56.8675 36.9027C56.8715 36.8629 56.8735 36.8201 56.8735 36.7744C56.8735 36.7047 56.8556 36.648 56.8197 36.6043C56.7839 36.5585 56.7342 36.5356 56.6705 36.5356C56.6267 36.5356 56.5859 36.5495 56.5481 36.5774C56.5103 36.6052 56.4745 36.6431 56.4407 36.6908C56.4089 36.7386 56.381 36.7933 56.3571 36.855C56.3352 36.9166 56.3173 36.9823 56.3034 37.052C56.2915 37.1196 56.2855 37.1883 56.2855 37.2579C56.2855 37.3435 56.3014 37.4081 56.3332 37.4519C56.3671 37.4937 56.4138 37.5146 56.4735 37.5146Z" fill="white"/>
<path d="M57.6129 37.8697C57.5691 37.8697 57.5303 37.8668 57.4965 37.8608C57.4627 37.8568 57.4289 37.8479 57.395 37.8339V37.4728C57.4169 37.4807 57.4378 37.4867 57.4577 37.4907C57.4756 37.4947 57.4955 37.4967 57.5174 37.4967C57.5552 37.4967 57.588 37.4837 57.6159 37.4579C57.6457 37.43 57.6716 37.3922 57.6935 37.3444C57.7174 37.2967 57.7393 37.242 57.7592 37.1803C57.7811 37.1186 57.8039 37.0539 57.8278 36.9863C57.8756 36.849 57.9233 36.7296 57.9711 36.6281C58.0188 36.5267 58.0745 36.4431 58.1382 36.3774C58.2019 36.3118 58.2825 36.263 58.38 36.2312C58.4775 36.1973 58.5998 36.1804 58.7471 36.1804C58.8466 36.1804 58.9411 36.1894 59.0306 36.2073C59.1222 36.2232 59.1958 36.2421 59.2515 36.264L58.9202 37.8399H58.4814L58.756 36.5505C58.7421 36.5465 58.7272 36.5436 58.7113 36.5416C58.6953 36.5396 58.6794 36.5386 58.6635 36.5386C58.5839 36.5386 58.5193 36.5615 58.4695 36.6072C58.4218 36.653 58.38 36.7207 58.3442 36.8102C58.3083 36.8997 58.2675 37.0112 58.2218 37.1445C58.188 37.244 58.1541 37.3375 58.1203 37.425C58.0885 37.5126 58.0507 37.5902 58.0069 37.6578C57.9631 37.7235 57.9094 37.7752 57.8457 37.813C57.784 37.8508 57.7064 37.8697 57.6129 37.8697Z" fill="white"/>
<path d="M60.0401 37.8697C59.8969 37.8697 59.7835 37.8489 59.6999 37.8071C59.6183 37.7653 59.5596 37.7086 59.5238 37.6369C59.49 37.5633 59.4731 37.4827 59.4731 37.3952C59.4731 37.3693 59.475 37.3325 59.479 37.2848C59.483 37.235 59.492 37.1803 59.5059 37.1206L59.7029 36.2103H60.1416L59.9984 36.8729C60.0381 36.8629 60.0829 36.855 60.1327 36.849C60.1824 36.843 60.2361 36.84 60.2938 36.84C60.3834 36.84 60.462 36.8579 60.5296 36.8938C60.5993 36.9276 60.653 36.9773 60.6908 37.043C60.7306 37.1067 60.7505 37.1833 60.7505 37.2728C60.7505 37.3743 60.7256 37.4708 60.6759 37.5623C60.6281 37.6519 60.5515 37.7255 60.446 37.7832C60.3426 37.8409 60.2073 37.8697 60.0401 37.8697ZM60.076 37.5623C60.1118 37.5623 60.1436 37.5574 60.1715 37.5474C60.2013 37.5355 60.2262 37.5186 60.2461 37.4967C60.268 37.4748 60.2839 37.4489 60.2938 37.4191C60.3058 37.3892 60.3117 37.3564 60.3117 37.3206C60.3117 37.2808 60.3048 37.2489 60.2908 37.2251C60.2769 37.1992 60.256 37.1803 60.2282 37.1684C60.2023 37.1544 60.1695 37.1475 60.1297 37.1475C60.0998 37.1475 60.069 37.1494 60.0372 37.1534C60.0073 37.1574 59.9745 37.1644 59.9387 37.1743C59.9267 37.2261 59.9188 37.2649 59.9148 37.2907C59.9108 37.3146 59.9088 37.3454 59.9088 37.3832C59.9088 37.4469 59.9257 37.4927 59.9596 37.5205C59.9934 37.5484 60.0322 37.5623 60.076 37.5623ZM60.8788 37.8399L61.225 36.2103H61.6638L61.3176 37.8399H60.8788Z" fill="white"/>
<path d="M63.2501 37.8697C63.1049 37.8697 62.9855 37.8419 62.892 37.7862C62.7985 37.7285 62.7298 37.6509 62.686 37.5534C62.6423 37.4559 62.6204 37.3464 62.6204 37.2251C62.6204 37.1136 62.6313 37.0112 62.6532 36.9176C62.6751 36.8221 62.7069 36.7376 62.7487 36.6639C62.7905 36.5883 62.8402 36.5247 62.8979 36.4729C62.9556 36.4192 63.0203 36.3784 63.0919 36.3506C63.1636 36.3227 63.2412 36.3088 63.3247 36.3088C63.3924 36.3088 63.4511 36.3207 63.5008 36.3446C63.5526 36.3685 63.5973 36.4003 63.6351 36.4401C63.673 36.4799 63.7048 36.5247 63.7307 36.5744H63.7426C63.7446 36.5585 63.7456 36.5416 63.7456 36.5237C63.7456 36.5038 63.7456 36.4888 63.7456 36.4789C63.7456 36.2839 63.7147 36.1416 63.6531 36.0521C63.5934 35.9606 63.4959 35.9148 63.3606 35.9148C63.3148 35.9148 63.2651 35.9208 63.2113 35.9327C63.1576 35.9427 63.1089 35.9566 63.0651 35.9745L62.9726 35.6283C63.0362 35.6044 63.1069 35.5865 63.1845 35.5745C63.2621 35.5626 63.3436 35.5566 63.4292 35.5566C63.6083 35.5566 63.7535 35.5944 63.865 35.6701C63.9764 35.7457 64.058 35.8531 64.1097 35.9924C64.1614 36.1317 64.1873 36.2968 64.1873 36.4879C64.1873 36.5993 64.1793 36.7117 64.1634 36.8251C64.1495 36.9365 64.1266 37.044 64.0948 37.1475C64.0629 37.2489 64.0222 37.3435 63.9724 37.431C63.9247 37.5186 63.866 37.5952 63.7963 37.6608C63.7267 37.7265 63.6461 37.7782 63.5546 37.816C63.465 37.8518 63.3635 37.8697 63.2501 37.8697ZM63.274 37.5116C63.3237 37.5116 63.3685 37.5006 63.4083 37.4788C63.4481 37.4549 63.4829 37.422 63.5128 37.3803C63.5446 37.3385 63.5715 37.2907 63.5934 37.237C63.6172 37.1833 63.6371 37.1256 63.6531 37.0639C63.669 37.0002 63.6819 36.9355 63.6919 36.8699C63.6799 36.8261 63.662 36.7883 63.6381 36.7565C63.6143 36.7226 63.5844 36.6958 63.5486 36.6759C63.5148 36.656 63.475 36.646 63.4292 36.646C63.3834 36.646 63.3417 36.655 63.3039 36.6729C63.266 36.6908 63.2322 36.7177 63.2024 36.7535C63.1725 36.7873 63.1467 36.8291 63.1248 36.8788C63.1049 36.9266 63.089 36.9813 63.077 37.043C63.0671 37.1027 63.0621 37.1684 63.0621 37.24C63.0621 37.3255 63.08 37.3922 63.1158 37.44C63.1536 37.4877 63.2064 37.5116 63.274 37.5116Z" fill="white"/>
<path d="M64.4129 37.8697C64.3691 37.8697 64.3303 37.8668 64.2965 37.8608C64.2627 37.8568 64.2289 37.8479 64.195 37.8339V37.4728C64.2169 37.4807 64.2378 37.4867 64.2577 37.4907C64.2756 37.4947 64.2955 37.4967 64.3174 37.4967C64.3552 37.4967 64.388 37.4837 64.4159 37.4579C64.4457 37.43 64.4716 37.3922 64.4935 37.3444C64.5174 37.2967 64.5393 37.242 64.5592 37.1803C64.581 37.1186 64.6039 37.0539 64.6278 36.9863C64.6756 36.849 64.7233 36.7296 64.7711 36.6281C64.8188 36.5267 64.8745 36.4431 64.9382 36.3774C65.0019 36.3118 65.0825 36.263 65.18 36.2312C65.2775 36.1973 65.3998 36.1804 65.5471 36.1804C65.6466 36.1804 65.7411 36.1894 65.8306 36.2073C65.9221 36.2232 65.9958 36.2421 66.0515 36.264L65.7202 37.8399H65.2814L65.556 36.5505C65.5421 36.5465 65.5272 36.5436 65.5113 36.5416C65.4953 36.5396 65.4794 36.5386 65.4635 36.5386C65.3839 36.5386 65.3192 36.5615 65.2695 36.6072C65.2217 36.653 65.18 36.7207 65.1441 36.8102C65.1083 36.8997 65.0675 37.0112 65.0218 37.1445C64.9879 37.244 64.9541 37.3375 64.9203 37.425C64.8885 37.5126 64.8507 37.5902 64.8069 37.6578C64.7631 37.7235 64.7094 37.7752 64.6457 37.813C64.584 37.8508 64.5064 37.8697 64.4129 37.8697Z" fill="white"/>
<path d="M66.3089 37.8697C66.2671 37.8697 66.2273 37.8668 66.1895 37.8608C66.1517 37.8548 66.1178 37.8459 66.088 37.8339V37.4728C66.1039 37.4788 66.1208 37.4847 66.1387 37.4907C66.1586 37.4947 66.1795 37.4967 66.2014 37.4967C66.2293 37.4967 66.2531 37.4917 66.273 37.4817C66.2929 37.4718 66.3108 37.4579 66.3268 37.44C66.3427 37.422 66.3566 37.4021 66.3686 37.3803C66.4024 37.3245 66.4322 37.2788 66.4581 37.243C66.4859 37.2072 66.5148 37.1783 66.5446 37.1564C66.5745 37.1345 66.6083 37.1176 66.6461 37.1057C66.6024 37.0878 66.5626 37.0639 66.5267 37.034C66.4929 37.0042 66.4661 36.9674 66.4462 36.9236C66.4263 36.8778 66.4163 36.8241 66.4163 36.7624C66.4163 36.6649 66.4342 36.5814 66.47 36.5117C66.5078 36.4421 66.5586 36.3854 66.6222 36.3416C66.6879 36.2958 66.7635 36.263 66.8491 36.2431C66.9346 36.2212 67.0252 36.2103 67.1207 36.2103H67.8012L67.458 37.8399H67.0192L67.1505 37.234H67.061C66.9973 37.234 66.9476 37.2549 66.9118 37.2967C66.8759 37.3365 66.8431 37.3872 66.8133 37.4489C66.7854 37.5106 66.7506 37.5753 66.7088 37.6429C66.6829 37.6847 66.6521 37.7225 66.6163 37.7563C66.5805 37.7902 66.5377 37.818 66.4879 37.8399C66.4382 37.8598 66.3785 37.8697 66.3089 37.8697ZM67.0789 36.9355H67.2132L67.2998 36.5237H67.1147C67.067 36.5237 67.0242 36.5326 66.9864 36.5505C66.9486 36.5684 66.9187 36.5953 66.8968 36.6311C66.8749 36.6649 66.864 36.7067 66.864 36.7565C66.864 36.8102 66.8809 36.854 66.9147 36.8878C66.9506 36.9196 67.0053 36.9355 67.0789 36.9355Z" fill="white"/>
<path d="M69.3854 37.8697C69.2641 37.8697 69.1556 37.8449 69.0601 37.7951C68.9666 37.7434 68.893 37.6708 68.8392 37.5772C68.7875 37.4837 68.7616 37.3723 68.7616 37.243C68.7616 37.1276 68.7726 37.0171 68.7945 36.9117C68.8183 36.8062 68.8532 36.7097 68.8989 36.6222C68.9447 36.5326 69.0024 36.455 69.072 36.3894C69.1417 36.3237 69.2223 36.273 69.3138 36.2371C69.4073 36.1993 69.5118 36.1804 69.6272 36.1804C69.7545 36.1804 69.864 36.2063 69.9555 36.258C70.047 36.3078 70.1177 36.3814 70.1674 36.4789C70.2191 36.5744 70.245 36.6898 70.245 36.8251C70.245 36.9346 70.2341 37.041 70.2122 37.1445C70.1903 37.2479 70.1565 37.3435 70.1107 37.431C70.0669 37.5186 70.0112 37.5952 69.9436 37.6608C69.8759 37.7265 69.7953 37.7782 69.7018 37.816C69.6083 37.8518 69.5028 37.8697 69.3854 37.8697ZM69.4212 37.5116C69.469 37.5116 69.5128 37.4996 69.5526 37.4758C69.5924 37.4499 69.6282 37.4151 69.66 37.3713C69.6919 37.3275 69.7177 37.2768 69.7376 37.2191C69.7595 37.1614 69.7754 37.0987 69.7854 37.0311C69.7973 36.9634 69.8033 36.8948 69.8033 36.8251C69.8033 36.7694 69.7963 36.7207 69.7824 36.6789C69.7704 36.6351 69.7486 36.6013 69.7167 36.5774C69.6869 36.5515 69.6461 36.5386 69.5944 36.5386C69.5406 36.5386 69.4929 36.5535 69.4511 36.5834C69.4093 36.6132 69.3725 36.653 69.3407 36.7027C69.3108 36.7505 69.2849 36.8052 69.2631 36.8669C69.2432 36.9286 69.2282 36.9923 69.2183 37.0579C69.2083 37.1216 69.2034 37.1833 69.2034 37.243C69.2034 37.3305 69.2213 37.3972 69.2571 37.4429C69.2929 37.4887 69.3476 37.5116 69.4212 37.5116Z" fill="white"/>
<path d="M71.1373 37.8518C71 37.8359 70.8846 37.7971 70.7911 37.7354C70.6976 37.6738 70.6269 37.5952 70.5792 37.4996C70.5314 37.4041 70.5075 37.2977 70.5075 37.1803C70.5075 37.0927 70.5185 37.0052 70.5404 36.9176C70.5623 36.8281 70.5961 36.7425 70.6419 36.661C70.6896 36.5794 70.7513 36.5058 70.8269 36.4401C70.9025 36.3724 70.995 36.3177 71.1045 36.2759C71.2139 36.2322 71.3413 36.2063 71.4865 36.1983L71.6178 35.5716H72.0357L71.9044 36.2013C72.1053 36.2292 72.2585 36.3038 72.364 36.4252C72.4695 36.5465 72.5222 36.6988 72.5222 36.8818C72.5222 36.9594 72.5132 37.041 72.4953 37.1266C72.4794 37.2101 72.4496 37.2927 72.4058 37.3743C72.364 37.4539 72.3063 37.5285 72.2327 37.5981C72.159 37.6658 72.0665 37.7235 71.9551 37.7713C71.8437 37.819 71.7084 37.8508 71.5492 37.8668L71.4089 38.5562H70.9851L71.1373 37.8518ZM71.4149 36.5386C71.3273 36.5446 71.2537 36.5684 71.194 36.6102C71.1343 36.652 71.0866 36.7037 71.0507 36.7654C71.0169 36.8271 70.9921 36.8918 70.9761 36.9594C70.9622 37.0271 70.9552 37.0888 70.9552 37.1445C70.9552 37.2101 70.9642 37.2698 70.9821 37.3236C71.002 37.3753 71.0299 37.4181 71.0657 37.4519C71.1035 37.4837 71.1502 37.5036 71.206 37.5116L71.4149 36.5386ZM71.6238 37.5116C71.6974 37.5016 71.7601 37.4807 71.8118 37.4489C71.8636 37.4171 71.9064 37.3783 71.9402 37.3325C71.976 37.2867 72.0038 37.238 72.0237 37.1863C72.0436 37.1345 72.0576 37.0838 72.0655 37.034C72.0735 36.9823 72.0775 36.9346 72.0775 36.8908C72.0775 36.8311 72.0675 36.7774 72.0476 36.7296C72.0297 36.6799 72.0019 36.6391 71.9641 36.6072C71.9282 36.5754 71.8835 36.5545 71.8297 36.5446L71.6238 37.5116Z" fill="white"/>
<path d="M73.2286 37.8697C73.1351 37.8697 73.0575 37.8508 72.9958 37.813C72.9341 37.7732 72.8884 37.7185 72.8585 37.6489C72.8287 37.5792 72.8138 37.4967 72.8138 37.4012C72.8138 37.3653 72.8168 37.3196 72.8227 37.2639C72.8287 37.2062 72.8376 37.1485 72.8496 37.0908L73.0346 36.2103H73.4734L73.2734 37.1624C73.2654 37.1942 73.2595 37.2251 73.2555 37.2549C73.2515 37.2848 73.2495 37.3116 73.2495 37.3355C73.2495 37.3972 73.2625 37.4429 73.2883 37.4728C73.3162 37.5006 73.356 37.5146 73.4077 37.5146C73.4754 37.5146 73.5351 37.4867 73.5868 37.431C73.6405 37.3733 73.6873 37.2967 73.7271 37.2012C73.7669 37.1057 73.7987 37.0002 73.8226 36.8848L73.9658 36.2103H74.4046L74.0584 37.8399H73.7241L73.7539 37.5384H73.739C73.6972 37.6021 73.6515 37.6598 73.6017 37.7116C73.552 37.7613 73.4963 37.8001 73.4346 37.828C73.3729 37.8558 73.3042 37.8697 73.2286 37.8697Z" fill="white"/>
<path d="M75.1911 37.8697C75.0797 37.8697 74.9772 37.8498 74.8837 37.8101C74.7921 37.7683 74.7195 37.7036 74.6658 37.6161C74.6121 37.5285 74.5852 37.4131 74.5852 37.2698C74.5852 37.1524 74.5971 37.04 74.621 36.9326C74.6469 36.8251 74.6827 36.7256 74.7285 36.6341C74.7762 36.5426 74.8349 36.463 74.9046 36.3953C74.9742 36.3277 75.0548 36.2749 75.1463 36.2371C75.2379 36.1993 75.3383 36.1804 75.4478 36.1804C75.5453 36.1804 75.6318 36.1894 75.7074 36.2073C75.785 36.2252 75.8577 36.2511 75.9253 36.2849L75.791 36.6192C75.7393 36.5973 75.6875 36.5784 75.6358 36.5625C75.5861 36.5446 75.5294 36.5356 75.4657 36.5356C75.41 36.5356 75.3592 36.5485 75.3135 36.5744C75.2677 36.6003 75.2269 36.6361 75.1911 36.6819C75.1573 36.7276 75.1274 36.7803 75.1015 36.84C75.0777 36.8997 75.0598 36.9634 75.0478 37.0311C75.0359 37.0967 75.0299 37.1644 75.0299 37.234C75.0299 37.2957 75.0399 37.3474 75.0598 37.3892C75.0797 37.431 75.1075 37.4628 75.1433 37.4847C75.1811 37.5046 75.2269 37.5146 75.2806 37.5146C75.3543 37.5146 75.4219 37.5036 75.4836 37.4817C75.5473 37.4579 75.6129 37.429 75.6806 37.3952V37.7533C75.6129 37.7892 75.5393 37.818 75.4597 37.8399C75.3821 37.8598 75.2926 37.8697 75.1911 37.8697Z" fill="white"/>
<path d="M76.4876 37.8697C76.41 37.8697 76.3354 37.8508 76.2638 37.813C76.1941 37.7732 76.1374 37.7106 76.0936 37.625C76.0499 37.5375 76.028 37.422 76.028 37.2788C76.028 37.1733 76.0389 37.0679 76.0608 36.9624C76.0847 36.857 76.1175 36.7575 76.1593 36.6639C76.2031 36.5704 76.2558 36.4879 76.3175 36.4162C76.3792 36.3426 76.4488 36.2849 76.5264 36.2431C76.606 36.2013 76.6916 36.1804 76.7831 36.1804C76.8527 36.1804 76.9124 36.1904 76.9622 36.2103C77.0139 36.2302 77.0577 36.258 77.0935 36.2938C77.1313 36.3297 77.1621 36.3715 77.186 36.4192H77.198L77.2815 36.2103H77.6188L77.2726 37.8399H76.9443L76.9652 37.628H76.9532C76.9154 37.6757 76.8736 37.7175 76.8279 37.7533C76.7821 37.7892 76.7314 37.818 76.6757 37.8399C76.6199 37.8598 76.5573 37.8697 76.4876 37.8697ZM76.6607 37.5146C76.7204 37.5146 76.7761 37.4907 76.8279 37.4429C76.8796 37.3952 76.9234 37.3335 76.9592 37.2579C76.997 37.1823 77.0239 37.1027 77.0398 37.0191C77.0477 36.9793 77.0527 36.9405 77.0547 36.9027C77.0587 36.8629 77.0607 36.8201 77.0607 36.7744C77.0607 36.7047 77.0428 36.648 77.0069 36.6043C76.9711 36.5585 76.9214 36.5356 76.8577 36.5356C76.8139 36.5356 76.7732 36.5495 76.7353 36.5774C76.6975 36.6052 76.6617 36.6431 76.6279 36.6908C76.5961 36.7386 76.5682 36.7933 76.5443 36.855C76.5224 36.9166 76.5045 36.9823 76.4906 37.052C76.4787 37.1196 76.4727 37.1883 76.4727 37.2579C76.4727 37.3435 76.4886 37.4081 76.5205 37.4519C76.5543 37.4937 76.601 37.5146 76.6607 37.5146Z" fill="white"/>
<path d="M9.23678 5.96777V18.8138V22.4732L12.8891 18.8138H15.3585L11.2082 22.8475L15.7735 28.5446H13.3456L9.88008 24.1158L9.23678 24.7604V28.5446H7.36914V5.96777H9.23678Z" fill="white"/>
<path d="M23.1066 27.2139C24.075 27.2139 24.8498 26.8604 25.4308 26.1535C25.9842 25.502 26.2609 24.6772 26.2609 23.6792C26.2609 22.695 25.9773 21.8703 25.4101 21.2049C24.8428 20.5257 24.075 20.1861 23.1066 20.1861C22.1797 20.1861 21.4327 20.5326 20.8655 21.2257C20.3121 21.9049 20.0354 22.7227 20.0354 23.6792C20.0354 24.6495 20.2982 25.4673 20.824 26.1327C21.3912 26.8535 22.1521 27.2139 23.1066 27.2139ZM28.0248 18.8138V28.5446H26.1571V27.0268H26.1156C25.2717 28.2604 24.1719 28.8773 22.8161 28.8773C21.3773 28.8773 20.2291 28.3505 19.3713 27.2971C18.5689 26.3129 18.1677 25.0861 18.1677 23.6168C18.1677 22.2307 18.5759 21.0455 19.3921 20.0613C20.2637 19.0356 21.3842 18.5227 22.7538 18.5227C24.1511 18.5227 25.2717 19.1603 26.1156 20.4356H26.1571V18.8138H28.0248Z" fill="white"/>
<path d="M34.8797 18.8138V20.1237H34.9212C35.5161 19.0564 36.4914 18.5227 37.8472 18.5227C40.1437 18.5227 41.292 19.9296 41.292 22.7435V41.4371H39.4243V22.9722C39.4243 22.0158 39.3067 21.3435 39.0716 20.9554C38.7672 20.4425 38.1723 20.1861 37.2869 20.1861C36.2217 20.1861 35.523 20.6158 35.191 21.4752C34.9835 21.9742 34.8797 22.8406 34.8797 24.0742V28.5446H33.0121V18.8138H34.8797Z" fill="white"/>
<path d="M48.3559 26.798H54.6644V28.5446H44.7244L51.3026 20.5603H45.845V18.8138H54.9341L48.3559 26.798Z" fill="white"/>
<path d="M61.0025 5.96777V28.5446H59.1349V5.96777H61.0025Z" fill="white"/>
<path d="M74.9784 23.9911H67.5701C67.5701 24.8644 67.833 25.6059 68.3587 26.2159C68.9121 26.8812 69.6245 27.2139 70.4961 27.2139C71.6582 27.2139 72.6266 26.5832 73.4013 25.3218L74.9784 26.2159C74.5219 27.0475 73.8924 27.699 73.09 28.1703C72.2876 28.6416 71.4161 28.8773 70.4753 28.8773C69.0227 28.8773 67.8606 28.3921 66.9891 27.4218C66.1313 26.4515 65.7025 25.2317 65.7025 23.7624C65.7025 22.2099 66.0968 20.9623 66.8853 20.0197C67.7292 19.0217 68.9121 18.5227 70.4338 18.5227C71.9141 18.5227 73.0555 19.0217 73.8578 20.0197C74.6049 20.9485 74.9784 22.1752 74.9784 23.7V23.9911ZM67.6739 22.5772H73.1108C72.9863 21.8287 72.6888 21.2395 72.2185 20.8098C71.7481 20.3663 71.1532 20.1445 70.4338 20.1445C69.7145 20.1445 69.0988 20.3732 68.5869 20.8306C68.0889 21.2881 67.7845 21.8703 67.6739 22.5772Z" fill="white"/>
<path d="M81.5687 18.8138V20.394H81.631C82.129 19.1465 83.0144 18.5227 84.2872 18.5227C84.8129 18.5227 85.3248 18.6821 85.8228 19.0009L84.972 20.7059C84.6677 20.4425 84.2872 20.3108 83.8307 20.3108C82.3227 20.3108 81.631 21.5236 81.631 23.8246V41.3906H79.7011V18.8138H81.5687Z" fill="white"/>
<rect x="90.0459" width="89.9542" height="47.9999" fill="white"/>
<path d="M118.63 15.7399C118.418 16.4657 118.236 17.1354 118.084 17.749L117.569 19.8372C117.456 20.2793 117.417 20.596 117.45 20.7873C117.483 20.9786 117.592 21.0743 117.777 21.0743C118.266 21.0743 118.897 20.5663 119.671 19.5502C120.193 18.8508 120.669 18.069 121.099 17.2047C121.204 16.9803 121.314 16.7164 121.426 16.4129C121.525 16.1424 121.608 15.8686 121.674 15.5915C121.799 15.123 121.899 14.6843 121.971 14.2752C122.051 13.8662 122.087 13.5956 122.08 13.4637L124.311 13.1074L124.539 13.2855C124.48 13.3977 124.377 13.6748 124.232 14.1169C124.087 14.5589 123.941 15.0439 123.796 15.5717L123.171 17.8776L122.695 19.7481C122.569 20.2166 122.513 20.5465 122.527 20.7378C122.54 20.9226 122.622 21.0149 122.774 21.0149C122.993 21.0149 123.231 20.9456 123.488 20.8071C123.746 20.6619 124.034 20.4409 124.351 20.144L124.609 20.6883C123.657 21.4471 122.897 21.9947 122.328 22.3312C121.773 22.6677 121.333 22.8359 121.009 22.8359C120.633 22.8359 120.421 22.6413 120.375 22.252C120.329 21.8561 120.441 21.1601 120.712 20.1638L121.267 18.1152C121.267 18.1086 121.257 18.0921 121.237 18.0657C121.218 18.0393 121.208 18.0261 121.208 18.0261C120.904 18.6793 120.421 19.405 119.76 20.2034C118.319 21.9584 117.043 22.8359 115.933 22.8359C115.523 22.8359 115.262 22.638 115.149 22.2421C115.11 22.1102 115.093 21.9518 115.1 21.7671C115.093 21.424 115.159 20.9918 115.298 20.4706L115.992 17.7391L116.349 16.215C116.455 15.7597 116.495 15.443 116.468 15.2649C116.448 15.0802 116.359 14.9878 116.2 14.9878C115.962 14.9878 115.718 15.0439 115.467 15.156C115.222 15.2682 114.961 15.4397 114.683 15.6707L114.445 15.1164C115.41 14.3709 116.2 13.8332 116.815 13.5033C117.437 13.1668 117.959 12.9985 118.382 12.9985C118.772 12.9985 118.983 13.1998 119.016 13.6022C119.049 14.0047 118.921 14.7173 118.63 15.7399Z" fill="#E11E26"/>
<path d="M125.803 22.5588C125.856 22.4467 125.945 22.1662 126.07 21.7176C126.196 21.2623 126.318 20.7642 126.437 20.2232C126.649 19.3325 126.831 18.5176 126.983 17.7787L127.151 16.9473C127.297 16.2216 127.366 15.7168 127.359 15.4331C127.353 15.1428 127.27 14.9977 127.111 14.9977C126.933 14.9977 126.718 15.0736 126.467 15.2253C126.216 15.3771 125.925 15.6113 125.594 15.928L125.297 15.4035C126.262 14.5589 127.045 13.9486 127.647 13.5725C128.248 13.1965 128.744 13.0084 129.134 13.0084C129.412 13.0084 129.571 13.1602 129.61 13.4637C129.656 13.7606 129.59 14.2917 129.412 15.0571L128.837 17.462C128.804 17.5939 128.814 17.6368 128.867 17.5906C128.919 17.5445 128.989 17.4323 129.075 17.2541C129.716 15.895 130.238 14.9251 130.641 14.3445C131.263 13.4472 131.934 12.9985 132.654 12.9985C132.767 12.9985 132.886 13.015 133.011 13.048C133.137 13.0744 133.213 13.1041 133.239 13.1371C133.134 13.6649 133.051 14.1202 132.991 14.5028C132.932 14.8921 132.879 15.354 132.833 15.8884L132.585 16.0269C132.413 15.8818 132.248 15.7795 132.089 15.7201C131.93 15.6542 131.759 15.6212 131.573 15.6212C131.018 15.6212 130.489 15.9841 129.987 16.7098C129.756 17.0529 129.528 17.4818 129.303 17.9964C129.131 18.3857 128.976 18.8145 128.837 19.283C128.698 19.7514 128.586 20.2232 128.5 20.6982L128.41 21.1832C128.364 21.4669 128.328 21.7275 128.301 21.965C128.282 22.2025 128.275 22.3543 128.282 22.4203L126.051 22.7469L125.803 22.5588Z" fill="#E11E26"/>
<path d="M136.918 20.3122C136.878 20.4574 136.925 20.6158 137.057 20.7873C137.196 20.9588 137.45 21.1733 137.82 21.4306L139.179 22.3807C139.813 22.8227 140.253 23.278 140.498 23.7464C140.749 24.2215 140.805 24.7097 140.666 25.2112C140.455 25.9897 139.856 26.6462 138.871 27.1806C137.893 27.715 136.796 27.9822 135.579 27.9822C134.158 27.9822 133.038 27.6919 132.218 27.1113C131.392 26.5307 131.094 25.8215 131.326 24.9835C131.478 24.4161 131.864 23.9147 132.486 23.4792C133.107 23.0438 134.036 22.6248 135.272 22.2223L134.965 21.9353C134.707 21.6516 134.604 21.4075 134.657 21.203C134.717 20.9918 134.826 20.8236 134.984 20.6982C135.15 20.5729 135.698 20.243 136.63 19.7085H136.303C135.371 19.7085 134.657 19.5007 134.161 19.085C133.666 18.6694 133.418 18.0756 133.418 17.3036C133.418 17.0925 133.438 16.8616 133.477 16.6109C133.517 16.3535 133.573 16.0929 133.646 15.829C133.838 15.1296 134.413 14.4831 135.371 13.8892C136.336 13.2954 137.288 12.9985 138.227 12.9985C138.974 12.9985 139.598 13.1536 140.101 13.4637H141.202C141.479 13.4637 141.787 13.4571 142.124 13.4439C142.467 13.4307 142.745 13.4142 142.957 13.3944L143.076 13.5824L142.867 14.6018C142.649 14.5754 142.372 14.5556 142.034 14.5424C141.697 14.5226 141.397 14.5127 141.132 14.5127H141.043C141.221 14.8492 141.307 15.2385 141.301 15.6806C141.294 15.8587 141.274 16.0599 141.241 16.2843C141.215 16.502 141.175 16.7065 141.122 16.8979C140.911 17.683 140.336 18.3494 139.397 18.897C138.855 19.2005 138.286 19.4215 137.691 19.5601C137.513 19.6393 137.348 19.7514 137.196 19.8966C137.044 20.0417 136.951 20.1803 136.918 20.3122ZM137.741 13.8793C137.272 13.8793 136.868 14.0344 136.531 14.3445C136.194 14.648 135.95 15.0802 135.798 15.641C135.712 15.9577 135.645 16.2612 135.599 16.5515C135.553 16.8418 135.53 17.0958 135.53 17.3135C135.523 17.8546 135.645 18.2702 135.897 18.5605C136.148 18.8508 136.508 18.996 136.977 18.996C137.447 18.996 137.85 18.8442 138.187 18.5407C138.524 18.2372 138.769 17.8051 138.921 17.2443C139.013 16.9276 139.083 16.6241 139.129 16.3337C139.175 16.0434 139.199 15.7861 139.199 15.5618C139.199 15.0208 139.073 14.6051 138.822 14.3148C138.571 14.0245 138.21 13.8793 137.741 13.8793ZM133.18 24.7064C132.988 25.419 133.153 26.0194 133.676 26.5076C134.198 26.9959 134.935 27.24 135.887 27.24C136.64 27.24 137.239 27.1179 137.681 26.8738C138.124 26.6363 138.412 26.2734 138.544 25.7852C138.623 25.5081 138.587 25.2013 138.435 24.8648C138.283 24.5283 138.062 24.2545 137.771 24.0433L136.412 23.0932L135.679 22.5489C134.965 22.8392 134.399 23.1625 133.983 23.5188C133.567 23.8751 133.299 24.271 133.18 24.7064Z" fill="#E11E26"/>
<path d="M145.174 22.8359C144.374 22.8359 143.756 22.6149 143.319 22.1728C142.883 21.7308 142.665 21.1007 142.665 20.2826C142.665 19.9131 142.711 19.4875 142.804 19.0059C142.896 18.5176 143.029 18.0096 143.201 17.4818C143.472 16.6438 143.762 15.994 144.073 15.5321C144.384 15.0637 144.8 14.6546 145.322 14.3049C145.56 14.1466 145.798 14.0014 146.036 13.8695C146.274 13.7309 146.519 13.5989 146.77 13.4736C147.14 13.302 147.464 13.18 147.742 13.1074C148.019 13.0348 148.317 12.9985 148.634 12.9985C149.289 12.9985 149.781 13.147 150.112 13.4439C150.449 13.7342 150.617 14.1631 150.617 14.7305C150.617 15.6608 150.128 16.4558 149.15 17.1156C148.211 17.7358 146.866 18.2141 145.114 18.5506C145.028 18.9993 144.985 19.3886 144.985 19.7184C144.985 20.3386 145.118 20.8005 145.382 21.104C145.653 21.4009 146.066 21.5493 146.621 21.5493C146.978 21.5493 147.471 21.4141 148.099 21.1436C148.727 20.8731 149.282 20.5564 149.765 20.1935L149.973 20.7477C149.067 21.4141 148.198 21.9287 147.365 22.2916C146.532 22.6545 145.802 22.8359 145.174 22.8359ZM147.702 13.9486C147.299 13.9486 146.932 14.1136 146.602 14.4435C146.271 14.7734 146.01 15.2418 145.818 15.8488C145.547 16.6735 145.349 17.3927 145.223 18.0063C146.235 17.8018 147.058 17.4389 147.692 16.9177C148.367 16.37 148.704 15.7432 148.704 15.0373C148.704 14.6942 148.614 14.427 148.436 14.2356C148.257 14.0443 148.013 13.9486 147.702 13.9486Z" fill="#E11E26"/>
<path d="M151.591 22.5588C151.644 22.4467 151.733 22.1662 151.859 21.7176C151.984 21.2623 152.107 20.7642 152.226 20.2232C152.437 19.3325 152.619 18.5176 152.771 17.7787L152.94 16.9473C153.085 16.2216 153.154 15.7168 153.148 15.4331C153.141 15.1428 153.059 14.9977 152.9 14.9977C152.721 14.9977 152.507 15.0736 152.255 15.2253C152.004 15.3771 151.713 15.6113 151.383 15.928L151.085 15.4035C152.05 14.5589 152.834 13.9486 153.435 13.5725C154.037 13.1965 154.533 13.0084 154.923 13.0084C155.2 13.0084 155.359 13.1602 155.399 13.4637C155.445 13.7606 155.379 14.2917 155.2 15.0571L154.625 17.462C154.592 17.5939 154.602 17.6368 154.655 17.5906C154.708 17.5445 154.777 17.4323 154.863 17.2541C155.504 15.895 156.027 14.9251 156.43 14.3445C157.051 13.4472 157.722 12.9985 158.443 12.9985C158.555 12.9985 158.674 13.015 158.8 13.048C158.925 13.0744 159.001 13.1041 159.028 13.1371C158.922 13.6649 158.839 14.1202 158.78 14.5028C158.72 14.8921 158.667 15.354 158.621 15.8884L158.373 16.0269C158.201 15.8818 158.036 15.7795 157.878 15.7201C157.719 15.6542 157.547 15.6212 157.362 15.6212C156.807 15.6212 156.278 15.9841 155.775 16.7098C155.544 17.0529 155.316 17.4818 155.091 17.9964C154.919 18.3857 154.764 18.8145 154.625 19.283C154.486 19.7514 154.374 20.2232 154.288 20.6982L154.199 21.1832C154.153 21.4669 154.116 21.7275 154.09 21.965C154.07 22.2025 154.063 22.3543 154.07 22.4203L151.839 22.7469L151.591 22.5588Z" fill="#E11E26"/>
<path d="M102.562 9.88232L100.861 19.7507C100.861 19.7507 100.529 21.3873 100.398 21.6498C100.149 22.1477 99.1689 22.1477 99.1689 22.1477V22.8521H101.812H104.408V22.1477C104.408 22.1477 102.79 22.0898 102.964 21.0497L105.457 6.70484H101.249V7.50391H101.759C102.393 7.50391 102.972 7.50391 102.827 8.34417C102.827 8.34417 102.739 8.87103 102.562 9.88232Z" fill="#E11E26"/>
<path d="M106.578 7.90001V6.70484C106.578 6.70484 108.539 6.23736 109.64 6.70484C110.53 7.08296 111.132 7.44843 111.496 8.34417C112.126 9.89207 109.695 10.462 109.481 12.1194C109.07 15.3113 114.189 15.6141 114.05 18.8293C113.891 22.5261 109.323 25.1941 107.72 25.7771L107.355 25.2219C107.355 25.2219 111.686 23.017 111.686 19.8603C111.686 16.8781 107.165 15.9106 107.165 13.7374C107.165 11.5642 109.148 11.3739 109.148 9.58143C109.148 7.78897 106.578 7.90001 106.578 7.90001Z" fill="#E11E26"/>
<path d="M141.37 26.8556L143.289 25.3722C143.289 25.3722 144.917 26.3839 143.924 28.2092C142.115 31.5349 138.213 32.3597 135.516 32.3597C132.814 32.3597 130.423 32.0266 127.551 30.3135C122.885 27.5296 121.523 26.1416 116.779 25.8402C112.691 25.5805 109.259 27.3789 109.259 27.3789L108.799 26.6651C108.799 26.6651 112.575 24.4126 117.62 24.4126C121.221 24.4126 125.632 26.1258 129.059 28.5527C132.485 30.9797 136.097 32.2645 139.815 30.5514C143.533 28.8382 141.37 26.8556 141.37 26.8556Z" fill="#E11E26"/>
<circle cx="118.508" cy="10.5651" r="1.14228" fill="#E11E26"/>
<ellipse cx="112.765" cy="32.5188" rx="4.60083" ry="4.60013" fill="#E11E26"/>
<circle cx="122.759" cy="10.5651" r="1.14228" fill="#E11E26"/>
<path d="M123.303 39.5616L124.036 36.1246H124.534L124.463 36.7559H124.47C124.551 36.6496 124.644 36.5433 124.75 36.437C124.861 36.3308 124.989 36.2415 125.133 36.1692C125.278 36.097 125.441 36.0608 125.624 36.0608C125.807 36.0608 125.964 36.0948 126.096 36.1628C126.228 36.2309 126.328 36.3286 126.396 36.4562C126.468 36.5837 126.504 36.7389 126.504 36.9217C126.504 37.0195 126.496 37.1194 126.479 37.2214C126.466 37.3234 126.451 37.4127 126.434 37.4892L125.981 39.5616H125.382L125.841 37.4127C125.862 37.3149 125.877 37.2341 125.886 37.1704C125.898 37.1024 125.905 37.0386 125.905 36.9791C125.905 36.843 125.869 36.741 125.796 36.673C125.724 36.605 125.616 36.571 125.471 36.571C125.331 36.571 125.178 36.6198 125.012 36.7176C124.85 36.8154 124.697 36.9748 124.553 37.1959C124.412 37.4169 124.302 37.7145 124.221 38.0886L123.902 39.5616H123.303Z" fill="#E11E26"/>
<path d="M128.361 39.6127C128.097 39.6127 127.87 39.5595 127.678 39.4532C127.487 39.347 127.34 39.196 127.238 39.0005C127.136 38.8007 127.085 38.5669 127.085 38.2991C127.085 38.0907 127.109 37.8824 127.156 37.6741C127.202 37.4616 127.27 37.2618 127.36 37.0747C127.453 36.8877 127.568 36.7219 127.704 36.5773C127.84 36.4285 127.999 36.3116 128.182 36.2266C128.365 36.1416 128.569 36.0991 128.795 36.0991C129.062 36.0991 129.29 36.1522 129.477 36.2585C129.668 36.3648 129.815 36.5178 129.917 36.7176C130.019 36.9132 130.07 37.147 130.07 37.4191C130.07 37.6274 130.047 37.8357 130 38.044C129.953 38.2523 129.883 38.4521 129.79 38.6434C129.7 38.8304 129.588 38.9962 129.451 39.1408C129.315 39.2853 129.156 39.4001 128.973 39.4851C128.79 39.5701 128.586 39.6127 128.361 39.6127ZM128.393 39.1472C128.516 39.1472 128.631 39.1217 128.737 39.0706C128.848 39.0196 128.95 38.9452 129.043 38.8475C129.137 38.7454 129.216 38.6221 129.279 38.4776C129.347 38.3288 129.4 38.1609 129.439 37.9738C129.477 37.7868 129.496 37.5806 129.496 37.3553C129.496 37.2278 129.473 37.1045 129.426 36.9854C129.383 36.8622 129.311 36.7623 129.209 36.6857C129.107 36.605 128.971 36.5646 128.801 36.5646C128.661 36.5646 128.531 36.5943 128.412 36.6539C128.293 36.7134 128.187 36.7984 128.093 36.9089C127.999 37.0152 127.919 37.1427 127.851 37.2915C127.787 37.4361 127.738 37.5955 127.704 37.7698C127.67 37.9441 127.653 38.1269 127.653 38.3182C127.653 38.5818 127.717 38.7858 127.844 38.9303C127.976 39.0749 128.159 39.1472 128.393 39.1472Z" fill="#E11E26"/>
<path d="M130.29 39.6063C130.235 39.6063 130.184 39.5999 130.137 39.5872C130.09 39.5786 130.054 39.5701 130.029 39.5616V39.077C130.058 39.0898 130.09 39.1004 130.124 39.1089C130.158 39.1131 130.196 39.1153 130.239 39.1153C130.341 39.1153 130.43 39.0919 130.507 39.0451C130.588 38.9941 130.662 38.9155 130.73 38.8092C130.798 38.7029 130.866 38.5647 130.934 38.3947C131.006 38.2247 131.083 38.0206 131.164 37.7825C131.262 37.4977 131.355 37.2511 131.444 37.0428C131.534 36.8345 131.634 36.6624 131.744 36.5263C131.859 36.386 131.999 36.2819 132.165 36.2139C132.331 36.1458 132.537 36.1118 132.784 36.1118C132.928 36.1118 133.069 36.1225 133.205 36.1437C133.341 36.1607 133.464 36.1862 133.575 36.2202L132.86 39.5616H132.293L132.937 36.6092C132.907 36.6007 132.871 36.5943 132.828 36.5901C132.786 36.5858 132.741 36.5837 132.694 36.5837C132.52 36.5837 132.378 36.6262 132.267 36.7112C132.161 36.792 132.063 36.9323 131.974 37.1321C131.884 37.3319 131.778 37.6125 131.655 37.9738C131.561 38.2374 131.472 38.4712 131.387 38.6753C131.302 38.8751 131.211 39.0451 131.113 39.1854C131.015 39.3215 130.9 39.4256 130.768 39.4979C130.637 39.5701 130.477 39.6063 130.29 39.6063Z" fill="#E11E26"/>
<path d="M134.92 39.6254C134.75 39.6254 134.599 39.5935 134.467 39.5298C134.339 39.466 134.24 39.3703 134.167 39.2428C134.099 39.1153 134.065 38.9601 134.065 38.7773C134.065 38.6795 134.072 38.5881 134.084 38.5031C134.101 38.4138 134.118 38.3224 134.135 38.2289L134.582 36.1437H135.149L134.69 38.2927C134.673 38.3862 134.658 38.467 134.646 38.535C134.637 38.603 134.633 38.6647 134.633 38.7199C134.633 38.856 134.667 38.9644 134.735 39.0451C134.807 39.1217 134.922 39.1599 135.079 39.1599C135.224 39.1599 135.379 39.1089 135.545 39.0069C135.715 38.9048 135.872 38.7412 136.017 38.5159C136.161 38.2906 136.274 37.9908 136.355 37.6167L136.667 36.1437H137.222L136.495 39.5616H136.036L136.106 38.9303H136.074C135.993 39.0324 135.898 39.1387 135.787 39.2492C135.681 39.3555 135.556 39.4447 135.411 39.517C135.271 39.5893 135.107 39.6254 134.92 39.6254Z" fill="#E11E26"/>
<path d="M138.607 39.6254C138.411 39.6254 138.228 39.5957 138.058 39.5361C137.893 39.4766 137.759 39.3831 137.657 39.2556C137.555 39.128 137.503 38.9622 137.503 38.7582C137.503 38.5924 137.535 38.4478 137.599 38.3246C137.667 38.2013 137.756 38.0971 137.867 38.0121C137.978 37.9228 138.101 37.8484 138.237 37.7889C138.373 37.7251 138.509 37.6678 138.645 37.6167C138.815 37.5487 138.966 37.485 139.098 37.4254C139.23 37.3617 139.332 37.2894 139.404 37.2086C139.481 37.1236 139.519 37.0237 139.519 36.9089C139.519 36.8026 139.485 36.7176 139.417 36.6539C139.349 36.5858 139.228 36.5518 139.053 36.5518C138.887 36.5518 138.724 36.5752 138.562 36.622C138.401 36.6645 138.252 36.7155 138.116 36.775L137.963 36.3286C138.111 36.2734 138.282 36.2202 138.473 36.1692C138.664 36.114 138.877 36.0863 139.111 36.0863C139.302 36.0863 139.47 36.114 139.615 36.1692C139.763 36.2202 139.878 36.3031 139.959 36.4179C140.044 36.5327 140.086 36.6857 140.086 36.877C140.086 37.0258 140.057 37.1576 139.997 37.2724C139.938 37.3829 139.857 37.4807 139.755 37.5657C139.653 37.6465 139.538 37.7188 139.41 37.7825C139.283 37.8421 139.151 37.8973 139.015 37.9483C138.824 38.0206 138.656 38.0907 138.511 38.1588C138.371 38.2225 138.262 38.2969 138.186 38.382C138.109 38.467 138.071 38.5775 138.071 38.7135C138.071 38.8496 138.12 38.958 138.218 39.0388C138.32 39.1195 138.477 39.1599 138.69 39.1599C138.805 39.1599 138.917 39.1493 139.028 39.128C139.138 39.1025 139.247 39.0706 139.353 39.0324C139.459 38.9899 139.563 38.9452 139.666 38.8985V39.3895C139.517 39.4575 139.357 39.5149 139.187 39.5616C139.017 39.6042 138.824 39.6254 138.607 39.6254Z" fill="#E11E26"/>
<path d="M140.067 41.0921L141.113 36.1437H141.572L141.496 36.7814H141.521C141.623 36.6539 141.732 36.5391 141.847 36.437C141.961 36.3308 142.087 36.2457 142.223 36.182C142.359 36.1182 142.506 36.0863 142.663 36.0863C142.846 36.0863 143.005 36.131 143.141 36.2202C143.282 36.3053 143.39 36.4349 143.467 36.6092C143.547 36.7793 143.588 36.9939 143.588 37.2533C143.588 37.5041 143.562 37.7464 143.511 37.9802C143.464 38.214 143.392 38.4308 143.294 38.6306C143.201 38.8262 143.086 39.0005 142.95 39.1535C142.818 39.3023 142.665 39.4192 142.491 39.5043C142.316 39.585 142.127 39.6254 141.923 39.6254C141.77 39.6254 141.636 39.5978 141.521 39.5425C141.411 39.4872 141.317 39.415 141.241 39.3257C141.164 39.2364 141.1 39.1408 141.049 39.0388H141.017C141.013 39.1068 141.003 39.2024 140.986 39.3257C140.969 39.4447 140.952 39.5425 140.935 39.619L140.622 41.0921H140.067ZM141.878 39.1599C142.015 39.1599 142.14 39.1259 142.255 39.0579C142.374 38.9856 142.48 38.8878 142.574 38.7646C142.667 38.637 142.746 38.4925 142.81 38.3309C142.878 38.1651 142.929 37.9908 142.963 37.808C142.997 37.621 143.014 37.4318 143.014 37.2405C143.014 37.011 142.967 36.8388 142.873 36.724C142.784 36.6092 142.65 36.5518 142.472 36.5518C142.378 36.5518 142.282 36.5752 142.185 36.622C142.087 36.6687 141.991 36.7368 141.898 36.826C141.804 36.9111 141.717 37.0131 141.636 37.1321C141.555 37.2511 141.483 37.3829 141.419 37.5275C141.36 37.6678 141.313 37.8187 141.279 37.9802C141.245 38.1375 141.228 38.3012 141.228 38.4712C141.228 38.6753 141.281 38.8411 141.387 38.9686C141.494 39.0961 141.657 39.1599 141.878 39.1599Z" fill="#E11E26"/>
<path d="M145.068 39.6254C144.885 39.6254 144.724 39.5829 144.583 39.4979C144.447 39.4086 144.339 39.2768 144.258 39.1025C144.181 38.9282 144.143 38.7135 144.143 38.4585C144.143 38.2034 144.169 37.959 144.22 37.7251C144.275 37.4871 144.352 37.2681 144.449 37.0683C144.547 36.8685 144.664 36.6964 144.8 36.5518C144.94 36.403 145.096 36.2883 145.266 36.2075C145.44 36.1225 145.625 36.08 145.821 36.08C145.969 36.08 146.099 36.1076 146.21 36.1628C146.324 36.2181 146.42 36.2904 146.497 36.3797C146.573 36.4689 146.635 36.5667 146.682 36.673H146.713L146.918 36.1437H147.345L146.618 39.5616H146.171L146.254 38.9303H146.229C146.131 39.0536 146.023 39.1684 145.903 39.2747C145.784 39.381 145.655 39.466 145.514 39.5298C145.378 39.5935 145.23 39.6254 145.068 39.6254ZM145.253 39.1599C145.41 39.1599 145.563 39.1025 145.712 38.9877C145.865 38.873 146.003 38.7178 146.127 38.5222C146.25 38.3267 146.344 38.1078 146.407 37.8654C146.441 37.7422 146.463 37.6295 146.471 37.5275C146.484 37.4212 146.49 37.3234 146.49 37.2341C146.49 37.0343 146.435 36.8707 146.324 36.7431C146.214 36.6156 146.065 36.5518 145.878 36.5518C145.746 36.5518 145.621 36.5858 145.502 36.6539C145.387 36.7219 145.281 36.8175 145.183 36.9408C145.085 37.0598 145.002 37.2001 144.934 37.3617C144.866 37.5232 144.813 37.6996 144.775 37.8909C144.736 38.078 144.717 38.2714 144.717 38.4712C144.717 38.7008 144.764 38.873 144.858 38.9877C144.951 39.1025 145.083 39.1599 145.253 39.1599Z" fill="#E11E26"/>
<path d="M148.91 39.619C148.65 39.585 148.431 39.5064 148.253 39.3831C148.074 39.2598 147.938 39.0961 147.845 38.8921C147.751 38.6838 147.704 38.4415 147.704 38.1651C147.704 37.9526 147.73 37.7464 147.781 37.5466C147.836 37.3425 147.917 37.1555 148.023 36.9854C148.129 36.8154 148.259 36.6645 148.412 36.5327C148.57 36.4009 148.752 36.2968 148.961 36.2202C149.169 36.1437 149.401 36.1012 149.656 36.0927L149.949 34.7153H150.466L150.172 36.0927C150.551 36.1437 150.848 36.2883 151.065 36.5263C151.282 36.7644 151.391 37.096 151.391 37.5211C151.391 37.7507 151.361 37.9696 151.301 38.1779C151.246 38.382 151.161 38.5711 151.046 38.7454C150.936 38.9197 150.8 39.0728 150.638 39.2045C150.481 39.3321 150.3 39.432 150.096 39.5043C149.892 39.5723 149.669 39.6084 149.426 39.6127L149.114 41.0921H148.597L148.91 39.619ZM149.56 36.5582C149.339 36.571 149.146 36.6241 148.98 36.7176C148.818 36.8112 148.686 36.9344 148.584 37.0875C148.482 37.2363 148.406 37.4042 148.355 37.5912C148.304 37.774 148.278 37.9611 148.278 38.1524C148.278 38.3522 148.308 38.5244 148.368 38.6689C148.431 38.8134 148.518 38.9261 148.629 39.0069C148.74 39.0876 148.867 39.1344 149.012 39.1472L149.56 36.5582ZM149.528 39.1472C149.711 39.1387 149.873 39.1025 150.013 39.0388C150.158 38.9707 150.281 38.8836 150.383 38.7773C150.485 38.6668 150.568 38.5456 150.632 38.4138C150.695 38.2778 150.742 38.1354 150.772 37.9866C150.802 37.8378 150.817 37.6911 150.817 37.5466C150.817 37.3383 150.785 37.1661 150.721 37.0301C150.661 36.8898 150.576 36.7814 150.466 36.7049C150.355 36.6284 150.228 36.5837 150.083 36.571L149.528 39.1472Z" fill="#E11E26"/>
<path d="M152.825 39.6254C152.655 39.6254 152.504 39.5935 152.372 39.5298C152.244 39.466 152.144 39.3703 152.072 39.2428C152.004 39.1153 151.97 38.9601 151.97 38.7773C151.97 38.6795 151.977 38.5881 151.989 38.5031C152.006 38.4138 152.023 38.3224 152.04 38.2289L152.487 36.1437H153.054L152.595 38.2927C152.578 38.3862 152.563 38.467 152.551 38.535C152.542 38.603 152.538 38.6647 152.538 38.7199C152.538 38.856 152.572 38.9644 152.64 39.0451C152.712 39.1217 152.827 39.1599 152.984 39.1599C153.129 39.1599 153.284 39.1089 153.45 39.0069C153.62 38.9048 153.777 38.7412 153.922 38.5159C154.066 38.2906 154.179 37.9908 154.26 37.6167L154.572 36.1437H155.127L154.4 39.5616H153.941L154.011 38.9303H153.979C153.898 39.0324 153.803 39.1387 153.692 39.2492C153.586 39.3555 153.46 39.4447 153.316 39.517C153.176 39.5893 153.012 39.6254 152.825 39.6254Z" fill="#E11E26"/>
<path d="M157.532 38.5988C157.562 38.45 157.596 38.3054 157.634 38.1651C157.677 38.0249 157.713 37.9016 157.743 37.7953H157.717C157.632 37.9101 157.534 38.0121 157.424 38.1014C157.313 38.1864 157.19 38.2544 157.054 38.3054C156.922 38.3564 156.775 38.382 156.614 38.382C156.422 38.382 156.261 38.3501 156.129 38.2863C156.002 38.2183 155.904 38.1184 155.836 37.9866C155.772 37.8548 155.74 37.6954 155.74 37.5083C155.74 37.4276 155.749 37.3362 155.766 37.2341C155.783 37.1321 155.8 37.0301 155.817 36.9281L155.982 36.1437H156.55L156.378 36.9727C156.352 37.0832 156.333 37.1767 156.32 37.2533C156.312 37.3255 156.308 37.3936 156.308 37.4573C156.308 37.6274 156.348 37.7464 156.429 37.8144C156.514 37.8782 156.629 37.9101 156.773 37.9101C156.922 37.9101 157.073 37.8697 157.226 37.7889C157.383 37.7081 157.53 37.5657 157.666 37.3617C157.802 37.1576 157.911 36.8707 157.991 36.5008L158.068 36.1437H158.629L157.902 39.5616H157.328L157.532 38.5988Z" fill="#E11E26"/>
<path d="M160.291 39.6254C160.028 39.6254 159.802 39.5744 159.615 39.4724C159.432 39.3661 159.292 39.2173 159.194 39.026C159.101 38.8304 159.054 38.6009 159.054 38.3373C159.054 38.0652 159.092 37.7974 159.169 37.5338C159.249 37.266 159.364 37.0237 159.513 36.8069C159.662 36.5858 159.84 36.4094 160.049 36.2776C160.261 36.1458 160.499 36.08 160.763 36.08C161.086 36.08 161.329 36.1501 161.49 36.2904C161.656 36.4307 161.739 36.6262 161.739 36.877C161.739 37.0428 161.701 37.2001 161.624 37.3489C161.548 37.4935 161.428 37.621 161.267 37.7315C161.105 37.8421 160.899 37.9292 160.648 37.993C160.397 38.0525 160.096 38.0822 159.743 38.0822H159.634C159.63 38.1205 159.626 38.1609 159.621 38.2034C159.621 38.2459 159.621 38.2842 159.621 38.3182C159.621 38.5775 159.685 38.7837 159.813 38.9367C159.94 39.0855 160.134 39.1599 160.393 39.1599C160.555 39.1599 160.708 39.1365 160.852 39.0898C160.997 39.043 161.154 38.9792 161.324 38.8985V39.3767C161.163 39.449 161.003 39.5085 160.846 39.5553C160.693 39.602 160.508 39.6254 160.291 39.6254ZM159.762 37.6295C160.017 37.6295 160.253 37.6082 160.47 37.5657C160.687 37.519 160.861 37.4446 160.993 37.3425C161.124 37.2363 161.19 37.096 161.19 36.9217C161.19 36.8112 161.152 36.7219 161.076 36.6539C161.003 36.5816 160.888 36.5455 160.731 36.5455C160.595 36.5455 160.461 36.588 160.329 36.673C160.198 36.758 160.079 36.8813 159.972 37.0428C159.866 37.2044 159.781 37.3999 159.717 37.6295H159.762Z" fill="#E11E26"/>
<path d="M163.442 39.6254C163.191 39.6254 162.97 39.5786 162.779 39.4851C162.587 39.3916 162.438 39.2513 162.332 39.0643C162.226 38.873 162.173 38.6349 162.173 38.3501C162.173 38.1035 162.198 37.8697 162.249 37.6486C162.304 37.4233 162.383 37.215 162.485 37.0237C162.587 36.8324 162.711 36.6666 162.855 36.5263C163 36.386 163.163 36.2776 163.346 36.2011C163.533 36.1203 163.737 36.08 163.958 36.08C164.107 36.08 164.256 36.0948 164.405 36.1246C164.554 36.1543 164.688 36.1947 164.807 36.2457L164.647 36.7112C164.562 36.673 164.46 36.6369 164.341 36.6028C164.226 36.5688 164.101 36.5518 163.965 36.5518C163.82 36.5518 163.684 36.5837 163.557 36.6475C163.433 36.707 163.321 36.792 163.219 36.9025C163.121 37.0131 163.036 37.1449 162.964 37.2979C162.895 37.4467 162.842 37.6104 162.804 37.7889C162.766 37.9632 162.747 38.1481 162.747 38.3437C162.747 38.5137 162.776 38.6604 162.836 38.7837C162.895 38.907 162.981 39.0005 163.091 39.0643C163.206 39.128 163.342 39.1599 163.499 39.1599C163.648 39.1599 163.788 39.1387 163.92 39.0961C164.056 39.0536 164.19 39.0047 164.322 38.9495V39.4214C164.203 39.4809 164.069 39.5298 163.92 39.568C163.776 39.6063 163.616 39.6254 163.442 39.6254Z" fill="#E11E26"/>
<path d="M164.871 39.5616L165.592 36.1437H166.147L165.796 37.7889L167.39 36.1437H168.092L166.402 37.8336L167.544 39.5616H166.874L165.79 37.8591L165.432 39.5616H164.871Z" fill="#E11E26"/>
<path d="M168.936 39.6254C168.766 39.6254 168.615 39.5935 168.483 39.5298C168.356 39.466 168.256 39.3703 168.183 39.2428C168.115 39.1153 168.081 38.9601 168.081 38.7773C168.081 38.6795 168.088 38.5881 168.1 38.5031C168.117 38.4138 168.134 38.3224 168.151 38.2289L168.598 36.1437H169.166L168.706 38.2927C168.689 38.3862 168.674 38.467 168.662 38.535C168.653 38.603 168.649 38.6647 168.649 38.7199C168.649 38.856 168.683 38.9644 168.751 39.0451C168.823 39.1217 168.938 39.1599 169.095 39.1599C169.24 39.1599 169.395 39.1089 169.561 39.0069C169.731 38.9048 169.888 38.7412 170.033 38.5159C170.177 38.2906 170.29 37.9908 170.371 37.6167L170.683 36.1437H171.238L170.511 39.5616H170.052L170.122 38.9303H170.09C170.01 39.0324 169.914 39.1387 169.803 39.2492C169.697 39.3555 169.572 39.4447 169.427 39.517C169.287 39.5893 169.123 39.6254 168.936 39.6254Z" fill="#E11E26"/>
<path d="M172.904 39.6254C172.64 39.6254 172.415 39.5744 172.227 39.4724C172.045 39.3661 171.904 39.2173 171.807 39.026C171.713 38.8304 171.666 38.6009 171.666 38.3373C171.666 38.0652 171.705 37.7974 171.781 37.5338C171.862 37.266 171.977 37.0237 172.125 36.8069C172.274 36.5858 172.453 36.4094 172.661 36.2776C172.874 36.1458 173.112 36.08 173.375 36.08C173.699 36.08 173.941 36.1501 174.103 36.2904C174.268 36.4307 174.351 36.6262 174.351 36.877C174.351 37.0428 174.313 37.2001 174.236 37.3489C174.16 37.4935 174.041 37.621 173.879 37.7315C173.718 37.8421 173.512 37.9292 173.261 37.993C173.01 38.0525 172.708 38.0822 172.355 38.0822H172.247C172.242 38.1205 172.238 38.1609 172.234 38.2034C172.234 38.2459 172.234 38.2842 172.234 38.3182C172.234 38.5775 172.298 38.7837 172.425 38.9367C172.553 39.0855 172.746 39.1599 173.006 39.1599C173.167 39.1599 173.32 39.1365 173.465 39.0898C173.609 39.043 173.767 38.9792 173.937 38.8985V39.3767C173.775 39.449 173.616 39.5085 173.458 39.5553C173.305 39.602 173.12 39.6254 172.904 39.6254ZM172.374 37.6295C172.629 37.6295 172.865 37.6082 173.082 37.5657C173.299 37.519 173.473 37.4446 173.605 37.3425C173.737 37.2363 173.803 37.096 173.803 36.9217C173.803 36.8112 173.765 36.7219 173.688 36.6539C173.616 36.5816 173.501 36.5455 173.344 36.5455C173.208 36.5455 173.074 36.588 172.942 36.673C172.81 36.758 172.691 36.8813 172.585 37.0428C172.478 37.2044 172.393 37.3999 172.33 37.6295H172.374Z" fill="#E11E26"/>
<path d="M139.971 45.5894L140.691 42.1778H141.418L141.775 44.888H141.788L143.287 42.1778H144.071L143.357 45.5894H142.847L143.261 43.6317C143.3 43.4702 143.338 43.3087 143.376 43.1471C143.419 42.9856 143.457 42.8368 143.491 42.7007H143.478L141.871 45.5894H141.431L141.042 42.7071H141.023C141.006 42.8261 140.982 42.9728 140.953 43.1471C140.923 43.3172 140.891 43.483 140.857 43.6445L140.462 45.5894H139.971Z" fill="#E11E26"/>
<path d="M145.348 45.6532C145.165 45.6532 145.004 45.6107 144.864 45.5256C144.728 45.4364 144.619 45.3046 144.538 45.1303C144.462 44.956 144.424 44.7413 144.424 44.4862C144.424 44.2312 144.449 43.9867 144.5 43.7529C144.555 43.5148 144.632 43.2959 144.73 43.0961C144.827 42.8963 144.944 42.7241 145.08 42.5796C145.221 42.4308 145.376 42.316 145.546 42.2352C145.72 42.1502 145.905 42.1077 146.101 42.1077C146.25 42.1077 146.379 42.1353 146.49 42.1906C146.605 42.2459 146.7 42.3181 146.777 42.4074C146.853 42.4967 146.915 42.5945 146.962 42.7007H146.994L147.198 42.1715H147.625L146.898 45.5894H146.452L146.535 44.9581H146.509C146.411 45.0814 146.303 45.1962 146.184 45.3024C146.065 45.4087 145.935 45.4937 145.795 45.5575C145.659 45.6213 145.51 45.6532 145.348 45.6532ZM145.533 45.1877C145.691 45.1877 145.844 45.1303 145.992 45.0155C146.146 44.9007 146.284 44.7455 146.407 44.55C146.53 44.3544 146.624 44.1355 146.688 43.8932C146.722 43.7699 146.743 43.6572 146.751 43.5552C146.764 43.4489 146.771 43.3512 146.771 43.2619C146.771 43.0621 146.715 42.8984 146.605 42.7709C146.494 42.6433 146.345 42.5796 146.158 42.5796C146.026 42.5796 145.901 42.6136 145.782 42.6816C145.667 42.7496 145.561 42.8453 145.463 42.9686C145.365 43.0876 145.282 43.2279 145.214 43.3894C145.146 43.551 145.093 43.7274 145.055 43.9187C145.017 44.1057 144.998 44.2992 144.998 44.499C144.998 44.7285 145.044 44.9007 145.138 45.0155C145.231 45.1303 145.363 45.1877 145.533 45.1877Z" fill="#E11E26"/>
<path d="M147.793 45.5894L148.52 42.1715H148.98L148.909 42.8028H148.941C149.018 42.6965 149.107 42.5902 149.209 42.4839C149.315 42.3777 149.437 42.2884 149.573 42.2161C149.713 42.1438 149.87 42.1077 150.045 42.1077C150.278 42.1077 150.457 42.1757 150.58 42.3118C150.708 42.4435 150.784 42.6285 150.81 42.8665H150.835C150.92 42.739 151.02 42.6178 151.135 42.5031C151.254 42.3883 151.386 42.2948 151.531 42.2225C151.675 42.146 151.835 42.1077 152.009 42.1077C152.273 42.1077 152.477 42.18 152.621 42.3245C152.766 42.4691 152.838 42.6774 152.838 42.9494C152.838 43.0515 152.832 43.1471 152.819 43.2364C152.806 43.3214 152.789 43.4128 152.768 43.5106L152.328 45.5894H151.76L152.219 43.4468C152.241 43.349 152.256 43.2661 152.264 43.1981C152.273 43.1301 152.277 43.0642 152.277 43.0004C152.277 42.8729 152.241 42.7709 152.168 42.6944C152.1 42.6178 151.992 42.5796 151.843 42.5796C151.741 42.5796 151.633 42.6093 151.518 42.6689C151.403 42.7241 151.29 42.8113 151.18 42.9303C151.069 43.0493 150.969 43.2024 150.88 43.3894C150.791 43.5722 150.718 43.7912 150.663 44.0462L150.338 45.5894H149.777L150.23 43.4468C150.251 43.349 150.266 43.2683 150.274 43.2045C150.283 43.1365 150.287 43.077 150.287 43.026C150.287 42.8857 150.255 42.7773 150.191 42.7007C150.127 42.62 150.021 42.5796 149.872 42.5796C149.77 42.5796 149.66 42.6072 149.541 42.6625C149.426 42.7177 149.313 42.807 149.203 42.9303C149.092 43.0493 148.99 43.2066 148.897 43.4022C148.803 43.5977 148.727 43.8358 148.667 44.1164L148.354 45.5894H147.793Z" fill="#E11E26"/>
<path d="M154.611 45.6532C154.347 45.6532 154.122 45.6022 153.935 45.5001C153.752 45.3938 153.612 45.2451 153.514 45.0538C153.421 44.8582 153.374 44.6286 153.374 44.3651C153.374 44.093 153.412 43.8252 153.489 43.5616C153.569 43.2938 153.684 43.0515 153.833 42.8347C153.982 42.6136 154.16 42.4372 154.369 42.3054C154.581 42.1736 154.819 42.1077 155.083 42.1077C155.406 42.1077 155.648 42.1778 155.81 42.3181C155.976 42.4584 156.059 42.654 156.059 42.9048C156.059 43.0706 156.02 43.2279 155.944 43.3767C155.867 43.5212 155.748 43.6487 155.587 43.7593C155.425 43.8698 155.219 43.957 154.968 44.0207C154.717 44.0802 154.415 44.11 154.063 44.11H153.954C153.95 44.1483 153.946 44.1886 153.941 44.2312C153.941 44.2737 153.941 44.3119 153.941 44.3459C153.941 44.6053 154.005 44.8114 154.133 44.9645C154.26 45.1133 154.454 45.1877 154.713 45.1877C154.875 45.1877 155.028 45.1643 155.172 45.1175C155.317 45.0708 155.474 45.007 155.644 44.9262V45.4045C155.483 45.4767 155.323 45.5363 155.166 45.583C155.013 45.6298 154.828 45.6532 154.611 45.6532ZM154.082 43.6572C154.337 43.6572 154.573 43.636 154.79 43.5935C155.006 43.5467 155.181 43.4723 155.313 43.3703C155.444 43.264 155.51 43.1237 155.51 42.9494C155.51 42.8389 155.472 42.7496 155.395 42.6816C155.323 42.6093 155.208 42.5732 155.051 42.5732C154.915 42.5732 154.781 42.6157 154.649 42.7007C154.517 42.7858 154.398 42.909 154.292 43.0706C154.186 43.2321 154.101 43.4277 154.037 43.6572H154.082Z" fill="#E11E26"/>
<path d="M155.982 47.1198L157.028 42.1715H157.488L157.411 42.8091H157.436C157.539 42.6816 157.647 42.5668 157.762 42.4648C157.877 42.3585 158.002 42.2735 158.138 42.2097C158.274 42.146 158.421 42.1141 158.578 42.1141C158.761 42.1141 158.92 42.1587 159.056 42.248C159.197 42.333 159.305 42.4627 159.382 42.637C159.462 42.807 159.503 43.0217 159.503 43.281C159.503 43.5318 159.477 43.7742 159.426 44.008C159.38 44.2418 159.307 44.4586 159.209 44.6584C159.116 44.8539 159.001 45.0282 158.865 45.1813C158.733 45.3301 158.58 45.447 158.406 45.532C158.232 45.6128 158.042 45.6532 157.838 45.6532C157.685 45.6532 157.551 45.6255 157.436 45.5703C157.326 45.515 157.232 45.4427 157.156 45.3535C157.079 45.2642 157.016 45.1685 156.965 45.0665H156.933C156.928 45.1345 156.918 45.2302 156.901 45.3535C156.884 45.4725 156.867 45.5703 156.85 45.6468L156.537 47.1198H155.982ZM157.794 45.1877C157.93 45.1877 158.055 45.1537 158.17 45.0856C158.289 45.0134 158.395 44.9156 158.489 44.7923C158.582 44.6648 158.661 44.5202 158.725 44.3587C158.793 44.1929 158.844 44.0186 158.878 43.8358C158.912 43.6487 158.929 43.4596 158.929 43.2683C158.929 43.0387 158.882 42.8665 158.789 42.7518C158.699 42.637 158.565 42.5796 158.387 42.5796C158.293 42.5796 158.198 42.603 158.1 42.6497C158.002 42.6965 157.906 42.7645 157.813 42.8538C157.719 42.9388 157.632 43.0408 157.551 43.1599C157.471 43.2789 157.398 43.4107 157.334 43.5552C157.275 43.6955 157.228 43.8464 157.194 44.008C157.16 44.1653 157.143 44.3289 157.143 44.499C157.143 44.703 157.196 44.8688 157.303 44.9964C157.409 45.1239 157.573 45.1877 157.794 45.1877Z" fill="#E11E26"/>
<path d="M160.894 45.6532C160.724 45.6532 160.573 45.6213 160.441 45.5575C160.313 45.4937 160.214 45.3981 160.141 45.2706C160.073 45.143 160.039 44.9879 160.039 44.8051C160.039 44.7073 160.046 44.6159 160.058 44.5309C160.075 44.4416 160.092 44.3502 160.109 44.2567L160.556 42.1715H161.123L160.664 44.3204C160.647 44.414 160.632 44.4947 160.62 44.5627C160.611 44.6308 160.607 44.6924 160.607 44.7477C160.607 44.8837 160.641 44.9921 160.709 45.0729C160.781 45.1494 160.896 45.1877 161.053 45.1877C161.198 45.1877 161.353 45.1367 161.519 45.0346C161.689 44.9326 161.846 44.7689 161.991 44.5436C162.135 44.3183 162.248 44.0186 162.329 43.6445L162.641 42.1715H163.196L162.469 45.5894H162.01L162.08 44.9581H162.048C161.967 45.0601 161.872 45.1664 161.761 45.2769C161.655 45.3832 161.529 45.4725 161.385 45.5448C161.245 45.617 161.081 45.6532 160.894 45.6532Z" fill="#E11E26"/>
<path d="M164.485 45.6532C164.302 45.6532 164.141 45.6107 164 45.5256C163.864 45.4364 163.756 45.3046 163.675 45.1303C163.599 44.956 163.56 44.7413 163.56 44.4862C163.56 44.2312 163.586 43.9867 163.637 43.7529C163.692 43.5148 163.769 43.2959 163.867 43.0961C163.964 42.8963 164.081 42.7241 164.217 42.5796C164.358 42.4308 164.513 42.316 164.683 42.2352C164.857 42.1502 165.042 42.1077 165.238 42.1077C165.387 42.1077 165.516 42.1353 165.627 42.1906C165.742 42.2459 165.837 42.3181 165.914 42.4074C165.99 42.4967 166.052 42.5945 166.099 42.7007H166.131L166.335 42.1715H166.762L166.035 45.5894H165.588L165.671 44.9581H165.646C165.548 45.0814 165.44 45.1962 165.321 45.3024C165.202 45.4087 165.072 45.4937 164.932 45.5575C164.796 45.6213 164.647 45.6532 164.485 45.6532ZM164.67 45.1877C164.827 45.1877 164.98 45.1303 165.129 45.0155C165.282 44.9007 165.421 44.7455 165.544 44.55C165.667 44.3544 165.761 44.1355 165.824 43.8932C165.858 43.7699 165.88 43.6572 165.888 43.5552C165.901 43.4489 165.907 43.3512 165.907 43.2619C165.907 43.0621 165.852 42.8984 165.742 42.7709C165.631 42.6433 165.482 42.5796 165.295 42.5796C165.163 42.5796 165.038 42.6136 164.919 42.6816C164.804 42.7496 164.698 42.8453 164.6 42.9686C164.502 43.0876 164.419 43.2279 164.351 43.3894C164.283 43.551 164.23 43.7274 164.192 43.9187C164.154 44.1057 164.134 44.2992 164.134 44.499C164.134 44.7285 164.181 44.9007 164.275 45.0155C164.368 45.1303 164.5 45.1877 164.67 45.1877Z" fill="#E11E26"/>
<path d="M166.732 45.634C166.677 45.634 166.626 45.6277 166.579 45.6149C166.533 45.6064 166.496 45.5979 166.471 45.5894V45.1048C166.501 45.1175 166.533 45.1281 166.567 45.1367C166.601 45.1409 166.639 45.143 166.681 45.143C166.783 45.143 166.873 45.1196 166.949 45.0729C167.03 45.0219 167.104 44.9432 167.172 44.8369C167.24 44.7307 167.309 44.5925 167.377 44.4225C167.449 44.2524 167.525 44.0484 167.606 43.8103C167.704 43.5255 167.797 43.2789 167.887 43.0706C167.976 42.8623 168.076 42.6901 168.187 42.5541C168.301 42.4138 168.442 42.3096 168.607 42.2416C168.773 42.1736 168.979 42.1396 169.226 42.1396C169.371 42.1396 169.511 42.1502 169.647 42.1715C169.783 42.1885 169.906 42.214 170.017 42.248L169.303 45.5894H168.735L169.379 42.637C169.349 42.6285 169.313 42.6221 169.271 42.6178C169.228 42.6136 169.184 42.6115 169.137 42.6115C168.962 42.6115 168.82 42.654 168.709 42.739C168.603 42.8198 168.505 42.9601 168.416 43.1599C168.327 43.3597 168.221 43.6402 168.097 44.0016C168.004 44.2652 167.914 44.499 167.829 44.703C167.744 44.9028 167.653 45.0729 167.555 45.2132C167.457 45.3492 167.343 45.4534 167.211 45.5256C167.079 45.5979 166.919 45.634 166.732 45.634Z" fill="#E11E26"/>
<path d="M171.598 45.6532C171.373 45.6532 171.175 45.6192 171.005 45.5511C170.839 45.4789 170.712 45.3705 170.622 45.2259C170.533 45.0771 170.489 44.8922 170.489 44.6711C170.489 44.5861 170.495 44.4883 170.508 44.3778C170.525 44.2673 170.542 44.1653 170.559 44.0717L170.96 42.1715H171.528L171.209 43.6572C171.311 43.636 171.42 43.619 171.534 43.6062C171.654 43.5892 171.773 43.5807 171.892 43.5807C172.121 43.5807 172.313 43.6169 172.466 43.6891C172.623 43.7572 172.74 43.8592 172.816 43.9952C172.893 44.127 172.931 44.2885 172.931 44.4798C172.931 44.6924 172.882 44.888 172.784 45.0665C172.691 45.2451 172.546 45.3875 172.351 45.4937C172.155 45.6 171.904 45.6532 171.598 45.6532ZM171.63 45.194C171.762 45.194 171.875 45.177 171.968 45.143C172.062 45.1048 172.138 45.0559 172.198 44.9964C172.257 44.9326 172.302 44.8625 172.332 44.7859C172.361 44.7052 172.376 44.6201 172.376 44.5309C172.376 44.4076 172.351 44.3098 172.3 44.2375C172.253 44.1653 172.181 44.1142 172.083 44.0845C171.989 44.0547 171.872 44.0399 171.732 44.0399C171.626 44.0399 171.52 44.0462 171.413 44.059C171.311 44.0675 171.211 44.0824 171.114 44.1036C171.088 44.2269 171.069 44.3289 171.056 44.4097C171.048 44.4862 171.043 44.5564 171.043 44.6201C171.043 44.8029 171.088 44.9453 171.177 45.0474C171.271 45.1452 171.422 45.194 171.63 45.194ZM173.269 45.5894L173.99 42.1715H174.551L173.824 45.5894H173.269Z" fill="#E11E26"/>
</svg>
