<svg width="94" height="30" viewBox="0 0 94 30" fill="none" xmlns="http://www.w3.org/2000/svg">
<g opacity="0.5" clip-path="url(#clip0_1429_85)">
<path d="M0.941406 25.6944C1.11651 25.65 1.34634 25.6028 1.63089 25.5528C1.92091 25.5029 2.2547 25.4779 2.63228 25.4779C2.90588 25.4779 3.13571 25.5167 3.32176 25.5945C3.50781 25.6666 3.66376 25.7749 3.78962 25.9193C3.82793 25.8915 3.88812 25.8526 3.9702 25.8027C4.05228 25.7527 4.15351 25.7055 4.2739 25.6611C4.39429 25.6111 4.52835 25.5695 4.6761 25.5362C4.82384 25.4973 4.98253 25.4779 5.15217 25.4779C5.48049 25.4779 5.74862 25.5278 5.95656 25.6278C6.1645 25.7222 6.32593 25.8582 6.44084 26.0359C6.56123 26.2135 6.64057 26.4245 6.67888 26.6688C6.72265 26.9131 6.74454 27.1796 6.74454 27.4683V29.9001H5.98119V27.6348C5.98119 27.3794 5.96751 27.1601 5.94015 26.9769C5.91826 26.7937 5.87175 26.641 5.80061 26.5189C5.73494 26.3967 5.64192 26.3079 5.52153 26.2524C5.40662 26.1913 5.25614 26.1608 5.07009 26.1608C4.8129 26.1608 4.59949 26.1969 4.42985 26.269C4.26569 26.3357 4.15351 26.3967 4.09332 26.4523C4.1371 26.5966 4.16993 26.7548 4.19182 26.927C4.21371 27.0991 4.22465 27.2795 4.22465 27.4683V29.9001H3.4613V27.6348C3.4613 27.3794 3.44762 27.1601 3.42026 26.9769C3.3929 26.7937 3.34365 26.641 3.27251 26.5189C3.20685 26.3967 3.11382 26.3079 2.99343 26.2524C2.87852 26.1913 2.73077 26.1608 2.5502 26.1608C2.47359 26.1608 2.39151 26.1635 2.30395 26.1691C2.2164 26.1747 2.13158 26.183 2.0495 26.1941C1.97289 26.1996 1.90176 26.208 1.83609 26.2191C1.77043 26.2302 1.72665 26.2385 1.70476 26.2441V29.9001H0.941406V25.6944Z" fill="white"/>
<path d="M9.45591 29.3421C9.63649 29.3421 9.79518 29.3393 9.93198 29.3338C10.0743 29.3227 10.1919 29.306 10.2849 29.2838V27.9929C10.2302 27.9652 10.1399 27.943 10.0141 27.9263C9.89368 27.9041 9.74593 27.893 9.57083 27.893C9.45591 27.893 9.33279 27.9013 9.20146 27.918C9.0756 27.9346 8.95795 27.9707 8.84851 28.0263C8.74454 28.0762 8.65699 28.1484 8.58585 28.2428C8.51472 28.3316 8.47915 28.451 8.47915 28.6009C8.47915 28.8785 8.5667 29.0728 8.74181 29.1839C8.91691 29.2893 9.15495 29.3421 9.45591 29.3421ZM9.39025 25.4612C9.69668 25.4612 9.95387 25.5029 10.1618 25.5861C10.3752 25.6639 10.5449 25.7777 10.6707 25.9276C10.802 26.0719 10.8951 26.2468 10.9498 26.4523C11.0045 26.6521 11.0319 26.8742 11.0319 27.1185V29.8251C10.9662 29.8362 10.8732 29.8529 10.7528 29.8751C10.6379 29.8917 10.5066 29.9084 10.3588 29.925C10.2111 29.9417 10.0496 29.9556 9.87453 29.9667C9.70489 29.9833 9.53526 29.9917 9.36562 29.9917C9.12485 29.9917 8.90323 29.9667 8.70077 29.9167C8.4983 29.8668 8.32319 29.789 8.17545 29.6835C8.0277 29.5725 7.91279 29.4281 7.83071 29.2505C7.74862 29.0728 7.70758 28.8591 7.70758 28.6092C7.70758 28.3705 7.7541 28.1651 7.84712 27.9929C7.94562 27.8208 8.07695 27.682 8.24111 27.5765C8.40527 27.4711 8.5968 27.3933 8.81568 27.3434C9.03456 27.2934 9.26439 27.2684 9.50516 27.2684C9.58177 27.2684 9.66112 27.274 9.7432 27.2851C9.82528 27.2906 9.90189 27.3017 9.97302 27.3184C10.0496 27.3295 10.1153 27.3406 10.17 27.3517C10.2247 27.3628 10.263 27.3711 10.2849 27.3767V27.1601C10.2849 27.0324 10.2713 26.9075 10.2439 26.7854C10.2165 26.6577 10.1673 26.5466 10.0961 26.4523C10.025 26.3523 9.92651 26.2746 9.80065 26.2191C9.68027 26.158 9.52158 26.1275 9.32458 26.1275C9.07287 26.1275 8.85125 26.1469 8.65973 26.1858C8.47368 26.2191 8.33414 26.2552 8.24111 26.294L8.15082 25.6528C8.24932 25.6083 8.41348 25.5667 8.64331 25.5278C8.87314 25.4834 9.12212 25.4612 9.39025 25.4612Z" fill="white"/>
<path d="M15.0576 26.4856C14.9646 26.4078 14.8305 26.3329 14.6554 26.2607C14.4803 26.1885 14.2888 26.1524 14.0809 26.1524C13.862 26.1524 13.6732 26.1941 13.5145 26.2774C13.3613 26.3551 13.2354 26.4661 13.1369 26.6105C13.0384 26.7493 12.9673 26.9158 12.9235 27.1102C12.8797 27.3045 12.8579 27.5127 12.8579 27.7348C12.8579 28.24 12.981 28.6314 13.2272 28.909C13.4735 29.1811 13.8018 29.3171 14.2122 29.3171C14.4201 29.3171 14.5925 29.3088 14.7293 29.2921C14.8716 29.2699 14.981 29.2477 15.0576 29.2255V26.4856ZM15.0576 23.5707L15.821 23.4375V29.7751C15.6459 29.8251 15.4215 29.8751 15.1479 29.925C14.8743 29.975 14.5597 30 14.204 30C13.8757 30 13.5802 29.9473 13.3175 29.8418C13.0548 29.7363 12.8305 29.5864 12.6444 29.3921C12.4584 29.1977 12.3134 28.9618 12.2094 28.6842C12.1109 28.401 12.0617 28.0845 12.0617 27.7348C12.0617 27.4017 12.1027 27.0963 12.1848 26.8187C12.2723 26.5411 12.3982 26.3023 12.5624 26.1025C12.7265 25.9026 12.9263 25.7471 13.1616 25.6361C13.4023 25.5251 13.6759 25.4695 13.9824 25.4695C14.2286 25.4695 14.4448 25.5029 14.6308 25.5695C14.8223 25.6361 14.9646 25.7 15.0576 25.761V23.5707Z" fill="white"/>
<path d="M16.8952 27.7431C16.8952 27.36 16.9499 27.0269 17.0593 26.7437C17.1688 26.455 17.3138 26.2163 17.4944 26.0275C17.6749 25.8388 17.8829 25.6972 18.1182 25.6028C18.3535 25.5084 18.5942 25.4612 18.8405 25.4612C19.415 25.4612 19.8556 25.6444 20.162 26.0109C20.4684 26.3717 20.6216 26.9242 20.6216 27.6681C20.6216 27.7015 20.6216 27.7459 20.6216 27.8014C20.6216 27.8514 20.6189 27.8986 20.6134 27.943H17.6913C17.7242 28.3927 17.8528 28.7341 18.0771 28.9673C18.3015 29.2005 18.6517 29.3171 19.1278 29.3171C19.3959 29.3171 19.6203 29.2949 19.8008 29.2505C19.9869 29.2005 20.1264 29.1533 20.2194 29.1089L20.3261 29.7585C20.2331 29.8085 20.069 29.8612 19.8337 29.9167C19.6038 29.9722 19.3412 30 19.0457 30C18.6736 30 18.3507 29.9445 18.0771 29.8334C17.809 29.7168 17.5874 29.5586 17.4123 29.3587C17.2372 29.1589 17.1058 28.9229 17.0183 28.6509C16.9362 28.3733 16.8952 28.0707 16.8952 27.7431ZM19.8255 27.3184C19.8309 26.9686 19.7434 26.6827 19.5628 26.4606C19.3877 26.2329 19.1442 26.1191 18.8323 26.1191C18.6572 26.1191 18.5012 26.1552 18.3644 26.2274C18.2331 26.294 18.1209 26.3829 18.0279 26.4939C17.9349 26.6049 17.861 26.7326 17.8063 26.877C17.757 27.0213 17.7242 27.1685 17.7078 27.3184H19.8255Z" fill="white"/>
<path d="M24.3813 29.9001H23.6179V25.5695H24.3813V29.9001ZM23.9955 24.7866C23.8587 24.7866 23.741 24.7422 23.6425 24.6534C23.5495 24.559 23.503 24.4341 23.503 24.2786C23.503 24.1232 23.5495 24.001 23.6425 23.9122C23.741 23.8178 23.8587 23.7706 23.9955 23.7706C24.1323 23.7706 24.2472 23.8178 24.3402 23.9122C24.4387 24.001 24.488 24.1232 24.488 24.2786C24.488 24.4341 24.4387 24.559 24.3402 24.6534C24.2472 24.7422 24.1323 24.7866 23.9955 24.7866Z" fill="white"/>
<path d="M25.694 25.6944C25.8691 25.65 26.1017 25.6028 26.3917 25.5528C26.6817 25.5029 27.0155 25.4779 27.3931 25.4779C27.7323 25.4779 28.0142 25.5278 28.2385 25.6278C28.4629 25.7222 28.6407 25.8582 28.772 26.0359C28.9088 26.208 29.0046 26.4162 29.0593 26.6605C29.114 26.9047 29.1414 27.174 29.1414 27.4683V29.9001H28.378V27.6348C28.378 27.3683 28.3589 27.1407 28.3206 26.9519C28.2878 26.7632 28.2303 26.6105 28.1482 26.4939C28.0661 26.3773 27.9567 26.294 27.8199 26.2441C27.6831 26.1885 27.5135 26.1608 27.311 26.1608C27.2289 26.1608 27.1441 26.1635 27.0565 26.1691C26.969 26.1747 26.8842 26.183 26.8021 26.1941C26.7255 26.1996 26.6543 26.208 26.5887 26.2191C26.5285 26.2302 26.4847 26.2385 26.4574 26.2441V29.9001H25.694V25.6944Z" fill="white"/>
<path d="M42.3021 5.62522C42.2438 8.24264 44.6629 10.353 47.4754 10.3119C50.2734 10.353 52.7362 8.24264 52.6779 5.62522C52.7362 3.0352 50.2734 0.88371 47.4754 0.938525C44.6629 0.88371 42.2438 3.0352 42.3021 5.62522ZM50.1131 5.62522C50.1131 7.13263 48.9764 8.14671 47.49 8.14671C46.7176 8.14671 46.0764 7.91375 45.5955 7.46152C45.1146 6.99559 44.8669 6.37892 44.8669 5.62522C44.8669 4.13151 45.9453 3.10372 47.49 3.10372C48.9764 3.10372 50.1131 4.13151 50.1131 5.62522Z" fill="white"/>
<path d="M53.6159 5.62522C53.5576 8.24264 55.9767 10.353 58.7893 10.3119C61.5873 10.353 64.0501 8.24264 63.9918 5.62522C64.0501 3.0352 61.5873 0.88371 58.7893 0.938525C55.9767 0.88371 53.5576 3.0352 53.6159 5.62522ZM61.427 5.62522C61.427 7.13263 60.2903 8.14671 58.8039 8.14671C58.0315 8.14671 57.3903 7.91375 56.9094 7.46152C56.4285 6.99559 56.1808 6.37892 56.1808 5.62522C56.1808 4.13151 57.2591 3.10372 58.8039 3.10372C60.2903 3.10372 61.427 4.13151 61.427 5.62522Z" fill="white"/>
<path d="M73.9358 10.1475L71.4002 6.79004C72.3474 6.24189 72.9157 5.32373 72.9157 4.21373C72.9157 2.33631 71.3419 1.10297 69.1997 1.10297L65.4253 1.10297L65.4253 10.1475L67.9318 10.1475L67.9318 7.33819L68.9665 7.33819L71.1378 10.1475L73.9358 10.1475ZM67.9318 3.15854L69.2142 3.15854C69.9137 3.15854 70.3655 3.56965 70.3655 4.21373C70.3655 4.85781 69.9137 5.28262 69.2142 5.28262L67.9318 5.28262L67.9318 3.15854Z" fill="white"/>
<path d="M74.9318 10.1475L81.781 10.1475L81.781 8.02338L77.4383 8.02338L77.4383 6.44744L80.4112 6.44744L80.4112 4.4741L77.4383 4.4741L77.4383 3.22706L81.6062 3.22706L81.6062 1.10297L74.9318 1.10297L74.9318 10.1475Z" fill="white"/>
<path d="M42.301 21.4088C42.9964 22.6558 44.3871 23.4369 46.1111 23.4369C48.0958 23.4369 49.6169 22.368 49.6169 20.6139C49.6169 19.3395 48.8346 18.5447 47.1686 17.8869L46.0676 17.4484C45.4447 17.2154 45.2419 17.0372 45.2419 16.7084C45.2419 16.3246 45.5751 16.1328 46.0966 16.1328C46.7775 16.1328 47.2121 16.4343 47.6757 17.0921L49.3417 15.8861C48.7622 14.7761 47.6467 14.0635 46.0676 14.0635C44.1119 14.0635 42.7211 15.1324 42.7211 16.7358C42.7211 17.9554 43.5614 18.805 45.1405 19.4628L46.1256 19.8739C46.8789 20.1891 47.0962 20.3124 47.0962 20.7099C47.0962 21.1484 46.763 21.3676 46.1111 21.3676C45.1405 21.3676 44.5465 20.9154 43.9815 20.2028L42.301 21.4088Z" fill="white"/>
<path d="M53.0876 23.2725L55.5793 23.2725L55.5793 16.3521L58.4478 16.3521L58.4478 14.228L50.2192 14.228L50.2192 16.3521L53.0876 16.3521L53.0876 23.2725Z" fill="white"/>
<path d="M59.4892 19.4354C59.4892 21.8473 61.2711 23.4369 63.7194 23.4369C66.1388 23.4369 67.9496 21.8199 67.9496 19.4354L67.9496 14.228L65.4579 14.228L65.4579 19.6136C65.4579 20.6413 64.748 21.2717 63.7194 21.2717C62.6909 21.2717 61.981 20.6413 61.981 19.6136L61.981 14.228L59.4892 14.228L59.4892 19.4354Z" fill="white"/>
<path d="M69.8041 23.2725L73.1361 23.2725C76.0624 23.3136 78.3948 21.395 78.3514 18.7228C78.3948 16.0095 76.0624 14.2006 73.1361 14.228L69.8041 14.228L69.8041 23.2725ZM72.2958 21.1484L72.2958 16.3658L73.1216 16.3658C74.7007 16.3658 75.8017 17.188 75.8017 18.7228C75.8017 20.2165 74.6862 21.1484 73.1216 21.1484L72.2958 21.1484Z" fill="white"/>
<path d="M79.778 23.2725L82.2698 23.2725L82.2698 14.228L79.778 14.228L79.778 23.2725Z" fill="white"/>
<path d="M83.6853 18.7502C83.6274 21.3676 86.0322 23.478 88.8282 23.4369C91.6097 23.478 94.058 21.3676 94 18.7502C94.058 16.1602 91.6097 14.0087 88.8282 14.0635C86.0322 14.0087 83.6274 16.1602 83.6853 18.7502ZM91.4503 18.7502C91.4503 20.2576 90.3203 21.2717 88.8427 21.2717C88.0749 21.2717 87.4374 21.0387 86.9594 20.5865C86.4813 20.1206 86.235 19.5039 86.235 18.7502C86.235 17.2565 87.307 16.2287 88.8427 16.2287C90.3203 16.2287 91.4503 17.2565 91.4503 18.7502Z" fill="white"/>
<path d="M38.1994 -1.24466e-08L30.0799 9.96094L21.9604 -9.09719e-10L20.6799 0L20.6799 18.75L24.6087 18.75L24.6087 8.92857L29.4397 14.7321L30.7202 14.7321L35.5511 8.92857L35.5511 18.75L39.4799 18.75L39.4799 -1.33563e-08L38.1994 -1.24466e-08Z" fill="white"/>
<path d="M35.551 15L39.4799 15L39.4799 29.9983L35.551 29.9983L35.551 15Z" fill="white"/>
</g>
<defs>
<clipPath id="clip0_1429_85">
<rect width="94" height="30" fill="white"/>
</clipPath>
</defs>
</svg>
