<svg width="24" height="24" viewBox="0 0 24 24" fill="none" stroke="#333333" xmlns="http://www.w3.org/2000/svg">
<path d="M18.75 6.25H3L5.8125 17.5H16.5L18.75 6.25ZM18.75 6.25L19.3125 4H22.6875" fill="none"/>
<path d="M8.6875 20.3125C8.6875 20.9683 8.15584 21.5 7.5 21.5C6.84416 21.5 6.3125 20.9683 6.3125 20.3125C6.3125 19.6567 6.84416 19.125 7.5 19.125C8.15584 19.125 8.6875 19.6567 8.6875 20.3125Z" fill="none"/>
<path d="M16 20.3125C16 20.9683 15.4683 21.5 14.8125 21.5C14.1567 21.5 13.625 20.9683 13.625 20.3125C13.625 19.6567 14.1567 19.125 14.8125 19.125C15.4683 19.125 16 19.6567 16 20.3125Z" fill="none"/>
</svg>
