<svg width="14" height="14" viewBox="0 0 14 14" stroke="#333333" xmlns="http://www.w3.org/2000/svg">
<path d="M10.6 3.375H1L2.71429 10.25H9.22857L10.6 3.375ZM10.6 3.375L10.9429 2H13" fill="none"/>
<path d="M4.27199 11.9688C4.27199 12.2634 4.03411 12.5 3.74342 12.5C3.45272 12.5 3.21484 12.2634 3.21484 11.9688C3.21484 11.6741 3.45272 11.4375 3.74342 11.4375C4.03411 11.4375 4.27199 11.6741 4.27199 11.9688Z"  fill="none"/>
<path d="M8.72804 11.9688C8.72804 12.2634 8.49017 12.5 8.19947 12.5C7.90877 12.5 7.6709 12.2634 7.6709 11.9688C7.6709 11.6741 7.90877 11.4375 8.19947 11.4375C8.49017 11.4375 8.72804 11.6741 8.72804 11.9688Z" fill="none"/>
</svg>
