<svg width="109" height="89" viewBox="0 0 109 89" fill="none" xmlns="http://www.w3.org/2000/svg">
<line x1="8.74228e-08" y1="0.5" x2="109" y2="0.500019" stroke="#333333" stroke-dasharray="1 6"/>
<line x1="4.37114e-08" y1="88.5" x2="109" y2="88.5" stroke="#333333" stroke-dasharray="1 6"/>
<path d="M38.8883 37.7555C38.69 38.4359 38.5196 39.0637 38.3771 39.639L37.8938 41.5967C37.7885 42.0111 37.7513 42.308 37.7823 42.4874C37.8133 42.6668 37.9155 42.7565 38.089 42.7565C38.5475 42.7565 39.1393 42.2802 39.8642 41.3276C40.3537 40.672 40.7999 39.939 41.2026 39.1287C41.3018 38.9184 41.404 38.6709 41.5094 38.3864C41.6023 38.1328 41.6798 37.8761 41.7417 37.6163C41.8594 37.1772 41.9524 36.7658 42.0206 36.3823C42.0949 35.9988 42.129 35.7452 42.1228 35.6215L44.214 35.2875L44.4278 35.4545C44.372 35.5596 44.276 35.8194 44.1397 36.2339C44.0034 36.6483 43.867 37.1029 43.7307 37.5978L43.1452 39.7596L42.699 41.5132C42.5813 41.9524 42.5286 42.2616 42.541 42.441C42.5534 42.6142 42.6309 42.7008 42.7734 42.7008C42.9779 42.7008 43.2009 42.6358 43.4426 42.506C43.6843 42.3699 43.9538 42.1627 44.2512 41.8843L44.4929 42.3946C43.6006 43.1059 42.888 43.6193 42.3552 43.9348C41.8347 44.2503 41.4226 44.408 41.119 44.408C40.7658 44.408 40.5675 44.2255 40.5241 43.8606C40.4808 43.4894 40.5861 42.8369 40.8402 41.9029L41.3606 39.9823C41.3606 39.9761 41.3514 39.9606 41.3328 39.9359C41.3142 39.9111 41.3049 39.8988 41.3049 39.8988C41.0198 40.5111 40.5675 41.1915 39.9479 41.94C38.5971 43.5853 37.4012 44.408 36.3602 44.408C35.9761 44.408 35.7313 44.2224 35.626 43.8513C35.5888 43.7276 35.5733 43.5791 35.5795 43.4059C35.5733 43.0843 35.6353 42.6791 35.7654 42.1905L36.416 39.6297L36.7506 38.2009C36.8497 37.7741 36.8869 37.4771 36.8621 37.3101C36.8435 37.1369 36.7599 37.0503 36.6112 37.0503C36.3881 37.0503 36.1589 37.1029 35.9234 37.2081C35.6941 37.3132 35.4494 37.4741 35.1891 37.6905L34.9661 37.171C35.8707 36.472 36.6112 35.9679 37.1874 35.6586C37.7699 35.3432 38.2594 35.1854 38.656 35.1854C39.0215 35.1854 39.2198 35.3741 39.2508 35.7514C39.2818 36.1287 39.161 36.7967 38.8883 37.7555Z" fill="#E11E26"/>
<path d="M45.6119 44.1482C45.6615 44.043 45.7451 43.7802 45.8629 43.3595C45.9806 42.9327 46.0952 42.4657 46.2068 41.9585C46.4051 41.1235 46.5754 40.3596 46.718 39.6668L46.876 38.8874C47.0123 38.207 47.0774 37.7338 47.0712 37.4679C47.065 37.1957 46.9875 37.0596 46.8388 37.0596C46.6715 37.0596 46.4701 37.1308 46.2347 37.273C45.9992 37.4153 45.7266 37.6349 45.4167 37.9318L45.1379 37.44C46.0426 36.6483 46.7768 36.0761 47.3407 35.7236C47.9046 35.371 48.3693 35.1947 48.7349 35.1947C48.9951 35.1947 49.1438 35.337 49.181 35.6215C49.2244 35.8998 49.1624 36.3978 48.9951 37.1153L48.456 39.3699C48.425 39.4936 48.4343 39.5338 48.4839 39.4905C48.5335 39.4472 48.5985 39.3421 48.6791 39.1751C49.2801 37.9009 49.7696 36.9916 50.1476 36.4473C50.7301 35.606 51.359 35.1854 52.0344 35.1854C52.1397 35.1854 52.2513 35.2009 52.369 35.2318C52.4867 35.2566 52.558 35.2844 52.5828 35.3153C52.4836 35.8102 52.4062 36.237 52.3504 36.5957C52.2946 36.9607 52.2451 37.3936 52.2017 37.8947L51.9693 38.0246C51.8082 37.8885 51.6533 37.7926 51.5046 37.7369C51.3559 37.6751 51.1948 37.6442 51.0213 37.6442C50.5008 37.6442 50.0051 37.9844 49.5342 38.6648C49.3173 38.9864 49.1035 39.3885 48.8929 39.8709C48.7318 40.2359 48.5861 40.6379 48.456 41.0771C48.3259 41.5163 48.2206 41.9585 48.14 42.4039L48.0564 42.8585C48.013 43.1245 47.9789 43.3688 47.9541 43.5915C47.9355 43.8142 47.9293 43.9564 47.9355 44.0183L45.8443 44.3245L45.6119 44.1482Z" fill="#E11E26"/>
<path d="M56.031 42.042C55.9938 42.1781 56.0372 42.3266 56.1611 42.4874C56.2912 42.6482 56.5298 42.8492 56.8768 43.0905L58.1501 43.9812C58.745 44.3956 59.157 44.8224 59.3863 45.2616C59.6218 45.7069 59.6744 46.1647 59.5443 46.6348C59.346 47.3647 58.7853 47.9801 57.862 48.4811C56.945 48.9822 55.9164 49.2327 54.7763 49.2327C53.444 49.2327 52.3938 48.9605 51.6254 48.4162C50.8509 47.8719 50.5721 47.2069 50.7889 46.4214C50.9314 45.8894 51.2939 45.4193 51.8764 45.0111C52.4588 44.6028 53.3294 44.2101 54.4881 43.8327L54.2 43.5637C53.9583 43.2977 53.8623 43.0688 53.9119 42.8771C53.9676 42.6791 54.0699 42.5214 54.2186 42.4039C54.3735 42.2864 54.8878 41.9771 55.7615 41.4761H55.4547C54.5811 41.4761 53.9119 41.2812 53.4471 40.8915C52.9824 40.5019 52.7501 39.9452 52.7501 39.2215C52.7501 39.0235 52.7687 38.807 52.8058 38.572C52.843 38.3307 52.8957 38.0864 52.9638 37.839C53.1435 37.1833 53.6826 36.5772 54.5811 36.0205C55.4857 35.4638 56.378 35.1854 57.2579 35.1854C57.9581 35.1854 58.5436 35.3308 59.0145 35.6215H60.0462C60.3064 35.6215 60.5946 35.6153 60.9106 35.6029C61.2328 35.5906 61.493 35.5751 61.6913 35.5566L61.8029 35.7328L61.6077 36.6885C61.4032 36.6638 61.143 36.6452 60.8269 36.6328C60.5109 36.6143 60.229 36.605 59.9811 36.605H59.8975C60.0648 36.9205 60.1453 37.2854 60.1391 37.6998C60.133 37.8668 60.1144 38.0555 60.0834 38.2658C60.0586 38.4699 60.0214 38.6617 59.9718 38.841C59.7736 39.5771 59.2345 40.2019 58.3546 40.7153C57.8465 40.9998 57.3136 41.207 56.756 41.3369C56.5887 41.4111 56.4338 41.5163 56.2912 41.6524C56.1487 41.7884 56.062 41.9183 56.031 42.042ZM56.8024 36.0112C56.3625 36.0112 55.9845 36.1565 55.6685 36.4473C55.3525 36.7318 55.1232 37.1369 54.9807 37.6627C54.9002 37.9596 54.8382 38.2441 54.7948 38.5163C54.7515 38.7885 54.7298 39.0266 54.7298 39.2307C54.7236 39.7379 54.8382 40.1276 55.0737 40.3998C55.3091 40.672 55.6468 40.808 56.0868 40.808C56.5267 40.808 56.9047 40.6658 57.2207 40.3812C57.5367 40.0967 57.766 39.6916 57.9085 39.1658C57.9952 38.8689 58.0603 38.5844 58.1037 38.3122C58.147 38.04 58.1687 37.7988 58.1687 37.5885C58.1687 37.0813 58.051 36.6916 57.8155 36.4194C57.5801 36.1473 57.2424 36.0112 56.8024 36.0112ZM52.527 46.1616C52.3473 46.8296 52.5022 47.3925 52.9917 47.8502C53.4812 48.3079 54.1721 48.5368 55.0644 48.5368C55.7708 48.5368 56.3315 48.4224 56.7467 48.1935C57.1618 47.9708 57.4314 47.6306 57.5553 47.1729C57.6296 46.9131 57.5956 46.6255 57.4531 46.31C57.3105 45.9946 57.103 45.7379 56.8303 45.5399L55.557 44.6492L54.8692 44.1389C54.2 44.4111 53.6702 44.7142 53.2798 45.0482C52.8895 45.3822 52.6385 45.7533 52.527 46.1616Z" fill="#E11E26"/>
<path d="M63.7696 44.408C63.0198 44.408 62.4405 44.2008 62.0315 43.7863C61.6225 43.3719 61.4181 42.7812 61.4181 42.0142C61.4181 41.6678 61.4614 41.2689 61.5482 40.8173C61.6349 40.3596 61.7589 39.8833 61.92 39.3885C62.174 38.6029 62.4467 37.9936 62.7379 37.5607C63.0291 37.1215 63.4195 36.738 63.909 36.4102C64.132 36.2617 64.3551 36.1256 64.5782 36.0019C64.8012 35.872 65.0305 35.7483 65.266 35.6308C65.613 35.47 65.9166 35.3555 66.1768 35.2875C66.4371 35.2194 66.7159 35.1854 67.0133 35.1854C67.6268 35.1854 68.0884 35.3246 68.3982 35.6029C68.7142 35.8751 68.8722 36.2772 68.8722 36.8091C68.8722 37.6813 68.4137 38.4266 67.4966 39.0452C66.6168 39.6266 65.3558 40.0751 63.7138 40.3905C63.6332 40.8111 63.593 41.1761 63.593 41.4853C63.593 42.0668 63.7169 42.4998 63.9647 42.7843C64.2188 43.0626 64.6061 43.2018 65.1266 43.2018C65.4611 43.2018 65.9228 43.075 66.5114 42.8214C67.1001 42.5678 67.6206 42.2709 68.0729 41.9307L68.2681 42.4503C67.4192 43.075 66.6044 43.5575 65.8236 43.8977C65.0429 44.2379 64.3582 44.408 63.7696 44.408ZM66.1396 36.0761C65.7617 36.0761 65.4178 36.2308 65.108 36.54C64.7981 36.8493 64.5534 37.2885 64.3737 37.8576C64.1197 38.6307 63.9338 39.305 63.816 39.8802C64.7641 39.6885 65.5355 39.3483 66.1304 38.8596C66.7624 38.3462 67.0784 37.7586 67.0784 37.0967C67.0784 36.7751 66.9947 36.5246 66.8274 36.3452C66.6601 36.1658 66.4309 36.0761 66.1396 36.0761Z" fill="#E11E26"/>
<path d="M69.7849 44.1482C69.8345 44.043 69.9181 43.7802 70.0359 43.3595C70.1536 42.9327 70.2682 42.4657 70.3798 41.9585C70.5781 41.1235 70.7485 40.3596 70.891 39.6668L71.049 38.8874C71.1853 38.207 71.2504 37.7338 71.2442 37.4679C71.238 37.1957 71.1605 37.0596 71.0118 37.0596C70.8445 37.0596 70.6431 37.1308 70.4077 37.273C70.1722 37.4153 69.8996 37.6349 69.5897 37.9318L69.3109 37.44C70.2156 36.6483 70.9498 36.0761 71.5137 35.7236C72.0776 35.371 72.5423 35.1947 72.9079 35.1947C73.1681 35.1947 73.3168 35.337 73.354 35.6215C73.3974 35.8998 73.3354 36.3978 73.1681 37.1153L72.629 39.3699C72.598 39.4936 72.6073 39.5338 72.6569 39.4905C72.7065 39.4472 72.7715 39.3421 72.8521 39.1751C73.4531 37.9009 73.9426 36.9916 74.3206 36.4473C74.9031 35.606 75.532 35.1854 76.2074 35.1854C76.3127 35.1854 76.4243 35.2009 76.542 35.2318C76.6597 35.2566 76.731 35.2844 76.7558 35.3153C76.6566 35.8102 76.5792 36.237 76.5234 36.5957C76.4676 36.9607 76.4181 37.3936 76.3747 37.8947L76.1423 38.0246C75.9812 37.8885 75.8263 37.7926 75.6776 37.7369C75.5289 37.6751 75.3678 37.6442 75.1943 37.6442C74.6738 37.6442 74.1781 37.9844 73.7072 38.6648C73.4903 38.9864 73.2765 39.3885 73.0659 39.8709C72.9048 40.2359 72.7592 40.6379 72.629 41.0771C72.4989 41.5163 72.3936 41.9585 72.313 42.4039L72.2294 42.8585C72.186 43.1245 72.1519 43.3688 72.1271 43.5915C72.1085 43.8142 72.1023 43.9564 72.1085 44.0183L70.0173 44.3245L69.7849 44.1482Z" fill="#E11E26"/>
<path d="M23.8277 32.2642L22.2332 41.5159C22.2332 41.5159 21.9222 43.0502 21.7993 43.2962C21.5661 43.763 20.6472 43.763 20.6472 43.763V44.4234H23.1251H25.5584V43.763C25.5584 43.763 24.0415 43.7088 24.2041 42.7337L26.541 29.2854H22.5971V30.0345H23.0749C23.6697 30.0345 24.2119 30.0345 24.0762 30.8222C24.0762 30.8222 23.994 31.3162 23.8277 32.2642Z" fill="#E11E26"/>
<path d="M27.592 30.4058V29.2854C27.592 29.2854 29.4305 28.8471 30.4622 29.2854C31.2966 29.6398 31.8604 29.9825 32.2021 30.8222C32.7925 32.2734 30.5135 32.8077 30.3134 34.3616C29.9281 37.3539 34.7266 37.6378 34.5963 40.652C34.4466 44.1178 30.1656 46.619 28.6627 47.1656L28.3207 46.6451C28.3207 46.6451 32.3805 44.578 32.3805 41.6187C32.3805 38.8228 28.1423 37.9157 28.1423 35.8784C28.1423 33.8411 30.0011 33.6626 30.0011 31.9822C30.0011 30.3017 27.592 30.4058 27.592 30.4058Z" fill="#E11E26"/>
<path d="M60.2042 48.177L62.0036 46.7863C62.0036 46.7863 63.5289 47.7347 62.5985 49.4459C60.9031 52.5638 57.2449 53.3371 54.7168 53.3371C52.184 53.3371 49.9431 53.0248 47.2515 51.4187C42.8775 48.8088 41.6004 47.5076 37.154 47.225C33.3221 46.9815 30.1051 48.6675 30.1051 48.6675L29.6738 47.9983C29.6738 47.9983 33.2131 45.8866 37.9421 45.8866C41.3179 45.8866 45.4521 47.4927 48.6642 49.768C51.8764 52.0433 55.2618 53.2478 58.7468 51.6418C62.2319 50.0357 60.2042 48.177 60.2042 48.177Z" fill="#E11E26"/>
<circle cx="38.7751" cy="32.9042" r="1.07072" fill="#E11E26"/>
<circle cx="33.3917" cy="53.4858" r="4.31262" fill="#E11E26"/>
<circle cx="42.7604" cy="32.9042" r="1.07072" fill="#E11E26"/>
<path d="M43.2698 60.0886L43.9573 56.8663H44.4236L44.3578 57.4582H44.3638C44.4395 57.3586 44.5272 57.2589 44.6268 57.1593C44.7304 57.0596 44.85 56.9759 44.9855 56.9082C45.121 56.8404 45.2745 56.8066 45.4458 56.8066C45.6172 56.8066 45.7647 56.8384 45.8882 56.9022C46.0118 56.966 46.1054 57.0576 46.1692 57.1772C46.237 57.2968 46.2708 57.4422 46.2708 57.6136C46.2708 57.7053 46.2629 57.7989 46.2469 57.8946C46.235 57.9902 46.221 58.0739 46.2051 58.1457L45.7806 60.0886H45.2187L45.6491 58.0739C45.669 57.9823 45.683 57.9066 45.6909 57.8468C45.7029 57.783 45.7089 57.7232 45.7089 57.6674C45.7089 57.5399 45.675 57.4442 45.6072 57.3805C45.5395 57.3167 45.4379 57.2848 45.3024 57.2848C45.1708 57.2848 45.0274 57.3307 44.8719 57.4223C44.7205 57.514 44.577 57.6634 44.4415 57.8707C44.31 58.0779 44.2064 58.3569 44.1306 58.7076L43.8317 60.0886H43.2698Z" fill="#E11E26"/>
<path d="M48.0111 60.1364C47.764 60.1364 47.5508 60.0866 47.3714 59.987C47.1921 59.8873 47.0546 59.7458 46.9589 59.5625C46.8633 59.3752 46.8154 59.156 46.8154 58.9049C46.8154 58.7096 46.8374 58.5143 46.8812 58.319C46.925 58.1198 46.9888 57.9325 47.0725 57.7571C47.1602 57.5817 47.2678 57.4263 47.3953 57.2908C47.5229 57.1513 47.6723 57.0417 47.8437 56.962C48.0151 56.8823 48.2064 56.8424 48.4176 56.8424C48.6687 56.8424 48.8819 56.8923 49.0573 56.9919C49.2366 57.0915 49.3741 57.235 49.4698 57.4223C49.5654 57.6056 49.6132 57.8248 49.6132 58.0799C49.6132 58.2752 49.5913 58.4705 49.5475 58.6658C49.5036 58.8611 49.4379 59.0484 49.3502 59.2277C49.2665 59.4031 49.1609 59.5585 49.0334 59.694C48.9058 59.8295 48.7564 59.9371 48.585 60.0169C48.4136 60.0966 48.2223 60.1364 48.0111 60.1364ZM48.041 59.7C48.1566 59.7 48.2642 59.6761 48.3638 59.6283C48.4674 59.5804 48.5631 59.5107 48.6508 59.419C48.7384 59.3234 48.8122 59.2078 48.8719 59.0723C48.9357 58.9328 48.9855 58.7754 49.0214 58.6C49.0573 58.4247 49.0752 58.2314 49.0752 58.0201C49.0752 57.9006 49.0533 57.785 49.0094 57.6734C48.9696 57.5578 48.9018 57.4642 48.8062 57.3924C48.7105 57.3167 48.583 57.2788 48.4236 57.2788C48.2921 57.2788 48.1705 57.3067 48.0589 57.3625C47.9473 57.4183 47.8477 57.498 47.76 57.6017C47.6723 57.7013 47.5966 57.8209 47.5328 57.9604C47.473 58.0959 47.4272 58.2453 47.3953 58.4087C47.3634 58.5721 47.3475 58.7435 47.3475 58.9228C47.3475 59.1699 47.4073 59.3612 47.5269 59.4967C47.6504 59.6323 47.8218 59.7 48.041 59.7Z" fill="#E11E26"/>
<path d="M49.8193 60.1304C49.7675 60.1304 49.7197 60.1245 49.6759 60.1125C49.632 60.1045 49.5982 60.0966 49.5742 60.0886V59.6342C49.6021 59.6462 49.632 59.6562 49.6639 59.6641C49.6958 59.6681 49.7317 59.6701 49.7715 59.6701C49.8672 59.6701 49.9509 59.6482 50.0226 59.6044C50.0983 59.5565 50.1681 59.4828 50.2318 59.3832C50.2956 59.2835 50.3594 59.154 50.4231 58.9946C50.4909 58.8352 50.5626 58.6439 50.6384 58.4207C50.73 58.1536 50.8177 57.9225 50.9014 57.7272C50.9851 57.5319 51.0788 57.3705 51.1824 57.243C51.29 57.1115 51.4215 57.0138 51.5769 56.95C51.7324 56.8863 51.9257 56.8544 52.1568 56.8544C52.2923 56.8544 52.4238 56.8644 52.5514 56.8843C52.6789 56.9002 52.7945 56.9241 52.8981 56.956L52.2286 60.0886H51.6965L52.3003 57.3207C52.2724 57.3127 52.2385 57.3067 52.1987 57.3028C52.1588 57.2988 52.117 57.2968 52.0731 57.2968C51.9097 57.2968 51.7762 57.3366 51.6726 57.4163C51.573 57.4921 51.4813 57.6236 51.3976 57.8109C51.3139 57.9982 51.2143 58.2613 51.0987 58.6C51.011 58.8471 50.9273 59.0663 50.8476 59.2576C50.7679 59.4449 50.6822 59.6044 50.5905 59.7359C50.4989 59.8634 50.3913 59.9611 50.2677 60.0288C50.1442 60.0966 49.9947 60.1304 49.8193 60.1304Z" fill="#E11E26"/>
<path d="M54.1592 60.1484C53.9998 60.1484 53.8583 60.1185 53.7347 60.0587C53.6152 59.9989 53.5215 59.9092 53.4538 59.7897C53.39 59.6701 53.3581 59.5246 53.3581 59.3533C53.3581 59.2616 53.3641 59.1759 53.376 59.0962C53.392 59.0125 53.4079 58.9268 53.4239 58.8391L53.8423 56.8843H54.3744L53.944 58.8989C53.928 58.9866 53.9141 59.0623 53.9021 59.1261C53.8942 59.1899 53.8902 59.2477 53.8902 59.2995C53.8902 59.427 53.9221 59.5286 53.9858 59.6044C54.0536 59.6761 54.1612 59.712 54.3086 59.712C54.4441 59.712 54.5896 59.6641 54.7451 59.5685C54.9045 59.4728 55.0519 59.3194 55.1874 59.1082C55.3229 58.8969 55.4286 58.616 55.5043 58.2652L55.7972 56.8843H56.3173L55.6358 60.0886H55.2054L55.2711 59.4967H55.2412C55.1655 59.5924 55.0758 59.692 54.9722 59.7957C54.8726 59.8953 54.755 59.979 54.6195 60.0467C54.488 60.1145 54.3345 60.1484 54.1592 60.1484Z" fill="#E11E26"/>
<path d="M57.6152 60.1484C57.4319 60.1484 57.2605 60.1205 57.1011 60.0647C56.9456 60.0089 56.8201 59.9212 56.7244 59.8016C56.6288 59.6821 56.581 59.5266 56.581 59.3353C56.581 59.1799 56.6109 59.0444 56.6706 58.9288C56.7344 58.8132 56.8181 58.7156 56.9217 58.6359C57.0253 58.5522 57.1409 58.4824 57.2685 58.4267C57.396 58.3669 57.5235 58.3131 57.6511 58.2652C57.8105 58.2015 57.952 58.1417 58.0755 58.0859C58.1991 58.0261 58.2947 57.9584 58.3625 57.8826C58.4342 57.8029 58.4701 57.7093 58.4701 57.6017C58.4701 57.502 58.4382 57.4223 58.3744 57.3625C58.3107 57.2988 58.1971 57.2669 58.0337 57.2669C57.8782 57.2669 57.7248 57.2888 57.5733 57.3326C57.4219 57.3725 57.2824 57.4203 57.1549 57.4761L57.0114 57.0576C57.1509 57.0058 57.3103 56.956 57.4896 56.9082C57.669 56.8564 57.8683 56.8305 58.0875 56.8305C58.2668 56.8305 58.4242 56.8564 58.5597 56.9082C58.6992 56.956 58.8068 57.0337 58.8826 57.1413C58.9623 57.249 59.0021 57.3924 59.0021 57.5718C59.0021 57.7113 58.9742 57.8348 58.9184 57.9424C58.8626 58.046 58.7869 58.1377 58.6913 58.2174C58.5956 58.2931 58.488 58.3609 58.3684 58.4207C58.2489 58.4765 58.1253 58.5283 57.9978 58.5761C57.8184 58.6439 57.661 58.7096 57.5255 58.7734C57.394 58.8332 57.2924 58.9029 57.2206 58.9826C57.1489 59.0623 57.113 59.166 57.113 59.2935C57.113 59.421 57.1589 59.5227 57.2505 59.5984C57.3462 59.6741 57.4936 59.712 57.6929 59.712C57.8005 59.712 57.9061 59.702 58.0097 59.6821C58.1134 59.6582 58.215 59.6283 58.3146 59.5924C58.4143 59.5525 58.5119 59.5107 58.6076 59.4669V59.9272C58.4681 59.9909 58.3186 60.0447 58.1592 60.0886C57.9998 60.1284 57.8184 60.1484 57.6152 60.1484Z" fill="#E11E26"/>
<path d="M58.9841 61.5234L59.9645 56.8843H60.395L60.3232 57.4821H60.3471C60.4428 57.3625 60.5444 57.2549 60.652 57.1593C60.7596 57.0596 60.8772 56.9799 61.0047 56.9201C61.1323 56.8604 61.2698 56.8305 61.4172 56.8305C61.5886 56.8305 61.7381 56.8723 61.8656 56.956C61.9971 57.0357 62.0987 57.1573 62.1705 57.3207C62.2462 57.4801 62.2841 57.6814 62.2841 57.9245C62.2841 58.1596 62.2601 58.3868 62.2123 58.606C62.1685 58.8252 62.1007 59.0285 62.0091 59.2158C61.9214 59.3991 61.8138 59.5625 61.6862 59.706C61.5627 59.8455 61.4192 59.9551 61.2558 60.0348C61.0924 60.1105 60.9151 60.1484 60.7238 60.1484C60.5803 60.1484 60.4547 60.1225 60.3471 60.0707C60.2435 60.0188 60.1558 59.9511 60.0841 59.8674C60.0123 59.7837 59.9526 59.694 59.9047 59.5984H59.8749C59.8709 59.6621 59.8609 59.7518 59.845 59.8674C59.829 59.979 59.8131 60.0707 59.7971 60.1424L59.5042 61.5234H58.9841ZM60.6819 59.712C60.8094 59.712 60.927 59.6801 61.0346 59.6163C61.1462 59.5486 61.2458 59.4569 61.3335 59.3413C61.4212 59.2218 61.4949 59.0862 61.5547 58.9348C61.6185 58.7794 61.6663 58.616 61.6982 58.4446C61.7301 58.2692 61.746 58.0919 61.746 57.9125C61.746 57.6973 61.7022 57.5359 61.6145 57.4283C61.5308 57.3207 61.4053 57.2669 61.2379 57.2669C61.1502 57.2669 61.0605 57.2888 60.9689 57.3326C60.8772 57.3765 60.7875 57.4403 60.6998 57.5239C60.6122 57.6037 60.5305 57.6993 60.4547 57.8109C60.379 57.9225 60.3113 58.046 60.2515 58.1815C60.1957 58.3131 60.1518 58.4546 60.12 58.606C60.0881 58.7535 60.0721 58.9069 60.0721 59.0663C60.0721 59.2576 60.122 59.4131 60.2216 59.5326C60.3212 59.6522 60.4747 59.712 60.6819 59.712Z" fill="#E11E26"/>
<path d="M63.6716 60.1484C63.5002 60.1484 63.3488 60.1085 63.2173 60.0288C63.0897 59.9451 62.9881 59.8216 62.9124 59.6582C62.8406 59.4948 62.8048 59.2935 62.8048 59.0544C62.8048 58.8152 62.8287 58.5861 62.8765 58.3669C62.9283 58.1437 63.0001 57.9384 63.0917 57.7511C63.1834 57.5638 63.293 57.4024 63.4205 57.2669C63.552 57.1274 63.6975 57.0198 63.8569 56.9441C64.0203 56.8644 64.1937 56.8245 64.377 56.8245C64.5165 56.8245 64.6381 56.8504 64.7417 56.9022C64.8493 56.954 64.939 57.0218 65.0107 57.1055C65.0825 57.1892 65.1402 57.2808 65.1841 57.3805H65.214L65.4053 56.8843H65.8058L65.1243 60.0886H64.7058L64.7836 59.4967H64.7596C64.668 59.6123 64.5663 59.7199 64.4548 59.8196C64.3432 59.9192 64.2216 59.9989 64.0901 60.0587C63.9625 60.1185 63.8231 60.1484 63.6716 60.1484ZM63.845 59.712C63.9924 59.712 64.1359 59.6582 64.2754 59.5506C64.4189 59.4429 64.5484 59.2975 64.664 59.1141C64.7796 58.9308 64.8672 58.7256 64.927 58.4984C64.9589 58.3828 64.9788 58.2772 64.9868 58.1815C64.9988 58.0819 65.0047 57.9902 65.0047 57.9066C65.0047 57.7192 64.9529 57.5658 64.8493 57.4462C64.7457 57.3267 64.6062 57.2669 64.4308 57.2669C64.3073 57.2669 64.1897 57.2988 64.0781 57.3625C63.9705 57.4263 63.8709 57.516 63.7792 57.6316C63.6875 57.7431 63.6098 57.8747 63.5461 58.0261C63.4823 58.1776 63.4325 58.343 63.3966 58.5223C63.3607 58.6977 63.3428 58.879 63.3428 59.0663C63.3428 59.2815 63.3866 59.4429 63.4743 59.5506C63.562 59.6582 63.6856 59.712 63.845 59.712Z" fill="#E11E26"/>
<path d="M67.2726 60.1424C67.0295 60.1105 66.8243 60.0368 66.6569 59.9212C66.4895 59.8056 66.3619 59.6522 66.2743 59.4609C66.1866 59.2656 66.1427 59.0384 66.1427 58.7794C66.1427 58.5801 66.1667 58.3868 66.2145 58.1995C66.2663 58.0082 66.342 57.8328 66.4417 57.6734C66.5413 57.514 66.6629 57.3725 66.8063 57.249C66.9538 57.1254 67.1252 57.0278 67.3205 56.956C67.5157 56.8843 67.7329 56.8444 67.9721 56.8365L68.2471 55.5452H68.7313L68.4563 56.8365C68.811 56.8843 69.09 57.0198 69.2933 57.243C69.4965 57.4662 69.5981 57.777 69.5981 58.1756C69.5981 58.3908 69.5702 58.596 69.5144 58.7913C69.4626 58.9826 69.3829 59.16 69.2753 59.3234C69.1717 59.4868 69.0442 59.6303 68.8927 59.7538C68.7453 59.8734 68.5759 59.967 68.3846 60.0348C68.1933 60.0986 67.984 60.1324 67.7569 60.1364L67.4639 61.5234H66.9797L67.2726 60.1424ZM67.8824 57.2729C67.6752 57.2848 67.4938 57.3346 67.3384 57.4223C67.1869 57.51 67.0634 57.6256 66.9677 57.7691C66.8721 57.9085 66.8003 58.066 66.7525 58.2413C66.7047 58.4127 66.6808 58.5881 66.6808 58.7674C66.6808 58.9547 66.7087 59.1161 66.7645 59.2516C66.8243 59.3871 66.906 59.4928 67.0096 59.5685C67.1132 59.6442 67.2328 59.6881 67.3683 59.7L67.8824 57.2729ZM67.8525 59.7C68.0239 59.692 68.1753 59.6582 68.3069 59.5984C68.4424 59.5346 68.5579 59.4529 68.6536 59.3533C68.7492 59.2497 68.827 59.1361 68.8867 59.0125C68.9465 58.885 68.9904 58.7515 69.0183 58.612C69.0462 58.4725 69.0601 58.335 69.0601 58.1995C69.0601 58.0042 69.0302 57.8428 68.9704 57.7152C68.9146 57.5837 68.8349 57.4821 68.7313 57.4104C68.6277 57.3386 68.5081 57.2968 68.3726 57.2848L67.8525 59.7Z" fill="#E11E26"/>
<path d="M70.9425 60.1484C70.7831 60.1484 70.6416 60.1185 70.518 60.0587C70.3985 59.9989 70.3048 59.9092 70.2371 59.7897C70.1733 59.6701 70.1414 59.5246 70.1414 59.3533C70.1414 59.2616 70.1474 59.1759 70.1593 59.0962C70.1753 59.0125 70.1912 58.9268 70.2072 58.8391L70.6256 56.8843H71.1577L70.7273 58.8989C70.7113 58.9866 70.6974 59.0623 70.6854 59.1261C70.6775 59.1899 70.6735 59.2477 70.6735 59.2995C70.6735 59.427 70.7054 59.5286 70.7691 59.6044C70.8369 59.6761 70.9445 59.712 71.0919 59.712C71.2274 59.712 71.3729 59.6641 71.5283 59.5685C71.6878 59.4728 71.8352 59.3194 71.9707 59.1082C72.1062 58.8969 72.2119 58.616 72.2876 58.2652L72.5805 56.8843H73.1006L72.4191 60.0886H71.9887L72.0544 59.4967H72.0245C71.9488 59.5924 71.8591 59.692 71.7555 59.7957C71.6559 59.8953 71.5383 59.979 71.4028 60.0467C71.2713 60.1145 71.1178 60.1484 70.9425 60.1484Z" fill="#E11E26"/>
<path d="M75.355 59.1859C75.3829 59.0464 75.4148 58.9109 75.4506 58.7794C75.4905 58.6478 75.5244 58.5323 75.5523 58.4326H75.5284C75.4487 58.5402 75.357 58.6359 75.2534 58.7196C75.1497 58.7993 75.0342 58.8631 74.9066 58.9109C74.7831 58.9587 74.6456 58.9826 74.4941 58.9826C74.3148 58.9826 74.1633 58.9527 74.0398 58.893C73.9202 58.8292 73.8286 58.7355 73.7648 58.612C73.705 58.4884 73.6751 58.339 73.6751 58.1636C73.6751 58.0879 73.6831 58.0022 73.699 57.9066C73.715 57.8109 73.7309 57.7152 73.7469 57.6196L73.9023 56.8843H74.4344L74.2729 57.6614C74.249 57.7651 74.2311 57.8527 74.2191 57.9245C74.2112 57.9922 74.2072 58.056 74.2072 58.1158C74.2072 58.2752 74.245 58.3868 74.3208 58.4506C74.4005 58.5103 74.5081 58.5402 74.6436 58.5402C74.7831 58.5402 74.9246 58.5024 75.068 58.4267C75.2155 58.3509 75.353 58.2174 75.4805 58.0261C75.6081 57.8348 75.7097 57.5658 75.7854 57.2191L75.8572 56.8843H76.3832L75.7017 60.0886H75.1637L75.355 59.1859Z" fill="#E11E26"/>
<path d="M77.9411 60.1484C77.694 60.1484 77.4828 60.1005 77.3074 60.0049C77.1361 59.9053 77.0045 59.7658 76.9129 59.5864C76.8252 59.4031 76.7814 59.1879 76.7814 58.9408C76.7814 58.6857 76.8172 58.4346 76.889 58.1875C76.9647 57.9364 77.0723 57.7093 77.2118 57.506C77.3513 57.2988 77.5187 57.1334 77.714 57.0098C77.9132 56.8863 78.1364 56.8245 78.3835 56.8245C78.6864 56.8245 78.9136 56.8903 79.065 57.0218C79.2205 57.1533 79.2982 57.3366 79.2982 57.5718C79.2982 57.7272 79.2623 57.8747 79.1906 58.0142C79.1188 58.1497 79.0072 58.2692 78.8558 58.3728C78.7043 58.4765 78.511 58.5582 78.2759 58.618C78.0408 58.6738 77.7578 58.7016 77.427 58.7016H77.3254C77.3214 58.7375 77.3174 58.7754 77.3134 58.8152C77.3134 58.8551 77.3134 58.891 77.3134 58.9228C77.3134 59.166 77.3732 59.3593 77.4928 59.5027C77.6123 59.6422 77.7937 59.712 78.0368 59.712C78.1882 59.712 78.3317 59.69 78.4672 59.6462C78.6027 59.6024 78.7502 59.5426 78.9096 59.4669V59.9152C78.7581 59.983 78.6087 60.0388 78.4612 60.0826C78.3178 60.1265 78.1444 60.1484 77.9411 60.1484ZM77.4449 58.2772C77.6841 58.2772 77.9053 58.2573 78.1085 58.2174C78.3118 58.1736 78.4752 58.1038 78.5987 58.0082C78.7223 57.9085 78.7841 57.777 78.7841 57.6136C78.7841 57.51 78.7482 57.4263 78.6764 57.3625C78.6087 57.2948 78.5011 57.2609 78.3536 57.2609C78.2261 57.2609 78.1005 57.3008 77.977 57.3805C77.8534 57.4602 77.7419 57.5758 77.6422 57.7272C77.5426 57.8787 77.4629 58.062 77.4031 58.2772H77.4449Z" fill="#E11E26"/>
<path d="M80.8945 60.1484C80.6593 60.1484 80.4521 60.1045 80.2728 60.0169C80.0934 59.9292 79.9539 59.7977 79.8543 59.6223C79.7547 59.4429 79.7048 59.2198 79.7048 58.9527C79.7048 58.7216 79.7287 58.5024 79.7766 58.2951C79.8284 58.0839 79.9021 57.8886 79.9978 57.7093C80.0934 57.5299 80.209 57.3745 80.3445 57.243C80.48 57.1115 80.6334 57.0098 80.8048 56.9381C80.9802 56.8624 81.1715 56.8245 81.3787 56.8245C81.5182 56.8245 81.6577 56.8384 81.7972 56.8663C81.9367 56.8942 82.0622 56.9321 82.1738 56.9799L82.0244 57.4163C81.9447 57.3805 81.849 57.3466 81.7374 57.3147C81.6298 57.2828 81.5122 57.2669 81.3847 57.2669C81.2492 57.2669 81.1217 57.2968 81.0021 57.3566C80.8865 57.4124 80.7809 57.4921 80.6853 57.5957C80.5936 57.6993 80.5139 57.8229 80.4461 57.9663C80.3824 58.1058 80.3325 58.2593 80.2967 58.4267C80.2608 58.5901 80.2429 58.7634 80.2429 58.9468C80.2429 59.1062 80.2708 59.2437 80.3266 59.3593C80.3824 59.4748 80.4621 59.5625 80.5657 59.6223C80.6733 59.6821 80.8008 59.712 80.9483 59.712C81.0878 59.712 81.2193 59.692 81.3429 59.6522C81.4704 59.6123 81.5959 59.5665 81.7195 59.5147V59.9571C81.6079 60.0129 81.4823 60.0587 81.3429 60.0946C81.2073 60.1304 81.0579 60.1484 80.8945 60.1484Z" fill="#E11E26"/>
<path d="M82.2344 60.0886L82.9099 56.8843H83.43L83.1012 58.4267L84.5957 56.8843H85.2533L83.6691 58.4685L84.7392 60.0886H84.1115L83.0952 58.4924L82.7604 60.0886H82.2344Z" fill="#E11E26"/>
<path d="M86.0444 60.1484C85.885 60.1484 85.7435 60.1185 85.62 60.0587C85.5004 59.9989 85.4067 59.9092 85.339 59.7897C85.2752 59.6701 85.2433 59.5246 85.2433 59.3533C85.2433 59.2616 85.2493 59.1759 85.2613 59.0962C85.2772 59.0125 85.2932 58.9268 85.3091 58.8391L85.7276 56.8843H86.2596L85.8292 58.8989C85.8133 58.9866 85.7993 59.0623 85.7874 59.1261C85.7794 59.1899 85.7754 59.2477 85.7754 59.2995C85.7754 59.427 85.8073 59.5286 85.8711 59.6044C85.9388 59.6761 86.0464 59.712 86.1939 59.712C86.3294 59.712 86.4748 59.6641 86.6303 59.5685C86.7897 59.4728 86.9372 59.3194 87.0727 59.1082C87.2082 58.8969 87.3138 58.616 87.3895 58.2652L87.6824 56.8843H88.2025L87.521 60.0886H87.0906L87.1564 59.4967H87.1265C87.0508 59.5924 86.9611 59.692 86.8575 59.7957C86.7578 59.8953 86.6402 59.979 86.5047 60.0467C86.3732 60.1145 86.2198 60.1484 86.0444 60.1484Z" fill="#E11E26"/>
<path d="M89.7635 60.1484C89.5164 60.1484 89.3051 60.1005 89.1298 60.0049C88.9584 59.9053 88.8269 59.7658 88.7352 59.5864C88.6475 59.4031 88.6037 59.1879 88.6037 58.9408C88.6037 58.6857 88.6396 58.4346 88.7113 58.1875C88.787 57.9364 88.8946 57.7093 89.0341 57.506C89.1736 57.2988 89.341 57.1334 89.5363 57.0098C89.7356 56.8863 89.9587 56.8245 90.2058 56.8245C90.5087 56.8245 90.7359 56.8903 90.8874 57.0218C91.0428 57.1533 91.1205 57.3366 91.1205 57.5718C91.1205 57.7272 91.0846 57.8747 91.0129 58.0142C90.9412 58.1497 90.8296 58.2692 90.6781 58.3728C90.5267 58.4765 90.3334 58.5582 90.0982 58.618C89.8631 58.6738 89.5801 58.7016 89.2493 58.7016H89.1477C89.1437 58.7375 89.1397 58.7754 89.1357 58.8152C89.1357 58.8551 89.1357 58.891 89.1357 58.9228C89.1357 59.166 89.1955 59.3593 89.3151 59.5027C89.4347 59.6422 89.616 59.712 89.8591 59.712C90.0106 59.712 90.154 59.69 90.2895 59.6462C90.425 59.6024 90.5725 59.5426 90.7319 59.4669V59.9152C90.5805 59.983 90.431 60.0388 90.2836 60.0826C90.1401 60.1265 89.9667 60.1484 89.7635 60.1484ZM89.2673 58.2772C89.5064 58.2772 89.7276 58.2573 89.9309 58.2174C90.1341 58.1736 90.2975 58.1038 90.4211 58.0082C90.5446 57.9085 90.6064 57.777 90.6064 57.6136C90.6064 57.51 90.5705 57.4263 90.4988 57.3625C90.431 57.2948 90.3234 57.2609 90.176 57.2609C90.0484 57.2609 89.9229 57.3008 89.7993 57.3805C89.6758 57.4602 89.5642 57.5758 89.4646 57.7272C89.3649 57.8787 89.2852 58.062 89.2254 58.2772H89.2673Z" fill="#E11E26"/>
<path d="M58.8934 65.7396L59.569 62.5413H60.2505L60.5853 65.082H60.5972L62.0021 62.5413H62.7374L62.0679 65.7396H61.5896L61.9782 63.9043C62.0141 63.7529 62.0499 63.6014 62.0858 63.45C62.1256 63.2985 62.1615 63.159 62.1934 63.0315H62.1814L60.6749 65.7396H60.2624L59.8978 63.0375H59.8798C59.8639 63.1491 59.842 63.2866 59.8141 63.45C59.7862 63.6094 59.7563 63.7648 59.7244 63.9163L59.3538 65.7396H58.8934Z" fill="#E11E26"/>
<path d="M63.9344 65.7994C63.763 65.7994 63.6115 65.7595 63.48 65.6798C63.3525 65.5961 63.2509 65.4726 63.1751 65.3092C63.1034 65.1458 63.0675 64.9445 63.0675 64.7054C63.0675 64.4663 63.0914 64.2371 63.1393 64.0179C63.1911 63.7947 63.2628 63.5895 63.3545 63.4021C63.4461 63.2148 63.5557 63.0534 63.6833 62.9179C63.8148 62.7784 63.9603 62.6708 64.1197 62.5951C64.2831 62.5154 64.4565 62.4755 64.6398 62.4755C64.7793 62.4755 64.9008 62.5014 65.0045 62.5532C65.1121 62.6051 65.2017 62.6728 65.2735 62.7565C65.3452 62.8402 65.403 62.9319 65.4468 63.0315H65.4767L65.668 62.5353H66.0686L65.3871 65.7396H64.9686L65.0463 65.1478H65.0224C64.9307 65.2634 64.8291 65.371 64.7175 65.4706C64.6059 65.5702 64.4844 65.6499 64.3528 65.7097C64.2253 65.7695 64.0858 65.7994 63.9344 65.7994ZM64.1077 65.363C64.2552 65.363 64.3987 65.3092 64.5382 65.2016C64.6816 65.094 64.8112 64.9485 64.9267 64.7652C65.0423 64.5818 65.13 64.3766 65.1898 64.1494C65.2217 64.0338 65.2416 63.9282 65.2496 63.8326C65.2615 63.7329 65.2675 63.6413 65.2675 63.5576C65.2675 63.3703 65.2157 63.2168 65.1121 63.0973C65.0084 62.9777 64.869 62.9179 64.6936 62.9179C64.57 62.9179 64.4525 62.9498 64.3409 63.0136C64.2333 63.0773 64.1336 63.167 64.042 63.2826C63.9503 63.3942 63.8726 63.5257 63.8088 63.6771C63.7451 63.8286 63.6952 63.994 63.6594 64.1733C63.6235 64.3487 63.6056 64.53 63.6056 64.7173C63.6056 64.9326 63.6494 65.094 63.7371 65.2016C63.8248 65.3092 63.9483 65.363 64.1077 65.363Z" fill="#E11E26"/>
<path d="M66.2262 65.7396L66.9077 62.5353H67.3381L67.2723 63.1271H67.3022C67.374 63.0275 67.4577 62.9279 67.5533 62.8282C67.653 62.7286 67.7665 62.6449 67.8941 62.5772C68.0256 62.5094 68.1731 62.4755 68.3365 62.4755C68.5557 62.4755 68.723 62.5393 68.8386 62.6668C68.9582 62.7904 69.0299 62.9637 69.0538 63.1869H69.0778C69.1575 63.0674 69.2511 62.9538 69.3587 62.8462C69.4703 62.7386 69.5939 62.6509 69.7294 62.5831C69.8649 62.5114 70.0143 62.4755 70.1777 62.4755C70.4248 62.4755 70.6161 62.5433 70.7516 62.6788C70.8872 62.8143 70.9549 63.0096 70.9549 63.2646C70.9549 63.3603 70.9489 63.45 70.937 63.5337C70.925 63.6134 70.9091 63.6991 70.8891 63.7907L70.4767 65.7396H69.9446L70.375 63.7309C70.3949 63.6393 70.4089 63.5616 70.4169 63.4978C70.4248 63.434 70.4288 63.3723 70.4288 63.3125C70.4288 63.1929 70.3949 63.0973 70.3272 63.0255C70.2634 62.9538 70.1618 62.9179 70.0223 62.9179C69.9267 62.9179 69.825 62.9458 69.7174 63.0016C69.6098 63.0534 69.5042 63.1351 69.4006 63.2467C69.297 63.3583 69.2033 63.5018 69.1196 63.6771C69.0359 63.8485 68.9682 64.0538 68.9163 64.2929L68.6115 65.7396H68.0854L68.5098 63.7309C68.5298 63.6393 68.5437 63.5636 68.5517 63.5038C68.5596 63.44 68.5636 63.3842 68.5636 63.3364C68.5636 63.2049 68.5337 63.1032 68.474 63.0315C68.4142 62.9558 68.3145 62.9179 68.175 62.9179C68.0794 62.9179 67.9758 62.9438 67.8642 62.9956C67.7566 63.0474 67.651 63.1311 67.5473 63.2467C67.4437 63.3583 67.3481 63.5058 67.2604 63.6891C67.1727 63.8724 67.101 64.0956 67.0452 64.3587L66.7522 65.7396H66.2262Z" fill="#E11E26"/>
<path d="M72.6168 65.7994C72.3697 65.7994 72.1585 65.7516 71.9832 65.6559C71.8118 65.5563 71.6803 65.4168 71.5886 65.2374C71.5009 65.0541 71.4571 64.8389 71.4571 64.5918C71.4571 64.3367 71.4929 64.0856 71.5647 63.8386C71.6404 63.5875 71.748 63.3603 71.8875 63.157C72.027 62.9498 72.1944 62.7844 72.3897 62.6608C72.5889 62.5373 72.8121 62.4755 73.0592 62.4755C73.3621 62.4755 73.5893 62.5413 73.7407 62.6728C73.8962 62.8043 73.9739 62.9877 73.9739 63.2228C73.9739 63.3782 73.938 63.5257 73.8663 63.6652C73.7945 63.8007 73.683 63.9203 73.5315 64.0239C73.3801 64.1275 73.1868 64.2092 72.9516 64.269C72.7165 64.3248 72.4335 64.3527 72.1027 64.3527H72.0011C71.9971 64.3885 71.9931 64.4264 71.9891 64.4663C71.9891 64.5061 71.9891 64.542 71.9891 64.5739C71.9891 64.817 72.0489 65.0103 72.1685 65.1538C72.288 65.2932 72.4694 65.363 72.7125 65.363C72.8639 65.363 73.0074 65.3411 73.1429 65.2972C73.2784 65.2534 73.4259 65.1936 73.5853 65.1179V65.5662C73.4339 65.634 73.2844 65.6898 73.1369 65.7336C72.9935 65.7775 72.8201 65.7994 72.6168 65.7994ZM72.1207 63.9282C72.3598 63.9282 72.581 63.9083 72.7842 63.8684C72.9875 63.8246 73.1509 63.7549 73.2744 63.6592C73.398 63.5596 73.4598 63.428 73.4598 63.2646C73.4598 63.161 73.4239 63.0773 73.3522 63.0136C73.2844 62.9458 73.1768 62.9119 73.0293 62.9119C72.9018 62.9119 72.7763 62.9518 72.6527 63.0315C72.5292 63.1112 72.4176 63.2268 72.3179 63.3782C72.2183 63.5297 72.1386 63.713 72.0788 63.9282H72.1207Z" fill="#E11E26"/>
<path d="M73.9023 67.1744L74.8827 62.5353H75.3131L75.2414 63.1331H75.2653C75.361 63.0136 75.4626 62.906 75.5702 62.8103C75.6778 62.7107 75.7954 62.631 75.9229 62.5712C76.0505 62.5114 76.188 62.4815 76.3354 62.4815C76.5068 62.4815 76.6562 62.5233 76.7838 62.607C76.9153 62.6868 77.0169 62.8083 77.0887 62.9717C77.1644 63.1311 77.2023 63.3324 77.2023 63.5755C77.2023 63.8107 77.1783 64.0378 77.1305 64.257C77.0867 64.4762 77.0189 64.6795 76.9273 64.8668C76.8396 65.0501 76.732 65.2135 76.6044 65.357C76.4809 65.4965 76.3374 65.6061 76.174 65.6858C76.0106 65.7615 75.8332 65.7994 75.6419 65.7994C75.4985 65.7994 75.3729 65.7735 75.2653 65.7217C75.1617 65.6699 75.074 65.6021 75.0023 65.5184C74.9305 65.4347 74.8708 65.3451 74.8229 65.2494H74.793C74.7891 65.3132 74.7791 65.4028 74.7632 65.5184C74.7472 65.63 74.7313 65.7217 74.7153 65.7934L74.4224 67.1744H73.9023ZM75.6001 65.363C75.7276 65.363 75.8452 65.3311 75.9528 65.2673C76.0644 65.1996 76.164 65.1079 76.2517 64.9923C76.3394 64.8728 76.4131 64.7373 76.4729 64.5858C76.5367 64.4304 76.5845 64.267 76.6164 64.0956C76.6483 63.9203 76.6642 63.7429 76.6642 63.5636C76.6642 63.3483 76.6204 63.1869 76.5327 63.0793C76.449 62.9717 76.3235 62.9179 76.1561 62.9179C76.0684 62.9179 75.9787 62.9398 75.8871 62.9837C75.7954 63.0275 75.7057 63.0913 75.618 63.175C75.5304 63.2547 75.4487 63.3503 75.3729 63.4619C75.2972 63.5735 75.2295 63.6971 75.1697 63.8326C75.1139 63.9641 75.07 64.1056 75.0381 64.257C75.0063 64.4045 74.9903 64.5579 74.9903 64.7173C74.9903 64.9086 75.0401 65.0641 75.1398 65.1836C75.2394 65.3032 75.3929 65.363 75.6001 65.363Z" fill="#E11E26"/>
<path d="M78.5061 65.7994C78.3467 65.7994 78.2052 65.7695 78.0817 65.7097C77.9621 65.6499 77.8684 65.5603 77.8007 65.4407C77.7369 65.3211 77.705 65.1757 77.705 65.0043C77.705 64.9126 77.711 64.8269 77.723 64.7472C77.7389 64.6635 77.7548 64.5779 77.7708 64.4902L78.1893 62.5353H78.7213L78.2909 64.55C78.2749 64.6376 78.261 64.7134 78.249 64.7771C78.2411 64.8409 78.2371 64.8987 78.2371 64.9505C78.2371 65.078 78.269 65.1797 78.3327 65.2554C78.4005 65.3271 78.5081 65.363 78.6556 65.363C78.7911 65.363 78.9365 65.3152 79.092 65.2195C79.2514 65.1239 79.3989 64.9704 79.5344 64.7592C79.6699 64.548 79.7755 64.267 79.8512 63.9163L80.1441 62.5353H80.6642L79.9827 65.7396H79.5523L79.618 65.1478H79.5882C79.5124 65.2434 79.4228 65.3431 79.3191 65.4467C79.2195 65.5463 79.1019 65.63 78.9664 65.6978C78.8349 65.7655 78.6815 65.7994 78.5061 65.7994Z" fill="#E11E26"/>
<path d="M81.8724 65.7994C81.7011 65.7994 81.5496 65.7595 81.4181 65.6798C81.2906 65.5961 81.1889 65.4726 81.1132 65.3092C81.0415 65.1458 81.0056 64.9445 81.0056 64.7054C81.0056 64.4663 81.0295 64.2371 81.0773 64.0179C81.1291 63.7947 81.2009 63.5895 81.2926 63.4021C81.3842 63.2148 81.4938 63.0534 81.6213 62.9179C81.7529 62.7784 81.8983 62.6708 82.0578 62.5951C82.2212 62.5154 82.3945 62.4755 82.5779 62.4755C82.7174 62.4755 82.8389 62.5014 82.9425 62.5532C83.0501 62.6051 83.1398 62.6728 83.2115 62.7565C83.2833 62.8402 83.3411 62.9319 83.3849 63.0315H83.4148L83.6061 62.5353H84.0066L83.3251 65.7396H82.9067L82.9844 65.1478H82.9605C82.8688 65.2634 82.7672 65.371 82.6556 65.4706C82.544 65.5702 82.4224 65.6499 82.2909 65.7097C82.1634 65.7695 82.0239 65.7994 81.8724 65.7994ZM82.0458 65.363C82.1933 65.363 82.3367 65.3092 82.4762 65.2016C82.6197 65.094 82.7492 64.9485 82.8648 64.7652C82.9804 64.5818 83.0681 64.3766 83.1279 64.1494C83.1597 64.0338 83.1797 63.9282 83.1876 63.8326C83.1996 63.7329 83.2056 63.6413 83.2056 63.5576C83.2056 63.3703 83.1538 63.2168 83.0501 63.0973C82.9465 62.9777 82.807 62.9179 82.6317 62.9179C82.5081 62.9179 82.3905 62.9498 82.2789 63.0136C82.1713 63.0773 82.0717 63.167 81.98 63.2826C81.8884 63.3942 81.8107 63.5257 81.7469 63.6771C81.6831 63.8286 81.6333 63.994 81.5974 64.1733C81.5616 64.3487 81.5436 64.53 81.5436 64.7173C81.5436 64.9326 81.5875 65.094 81.6752 65.2016C81.7628 65.3092 81.8864 65.363 82.0458 65.363Z" fill="#E11E26"/>
<path d="M83.9789 65.7815C83.9271 65.7815 83.8793 65.7755 83.8354 65.7635C83.7916 65.7556 83.7577 65.7476 83.7338 65.7396V65.2853C83.7617 65.2972 83.7916 65.3072 83.8235 65.3152C83.8554 65.3191 83.8912 65.3211 83.9311 65.3211C84.0267 65.3211 84.1104 65.2992 84.1822 65.2554C84.2579 65.2076 84.3276 65.1338 84.3914 65.0342C84.4552 64.9346 84.5189 64.805 84.5827 64.6456C84.6505 64.4862 84.7222 64.2949 84.7979 64.0717C84.8896 63.8047 84.9773 63.5735 85.061 63.3782C85.1446 63.1829 85.2383 63.0215 85.3419 62.894C85.4495 62.7625 85.5811 62.6648 85.7365 62.6011C85.8919 62.5373 86.0852 62.5054 86.3164 62.5054C86.4519 62.5054 86.5834 62.5154 86.7109 62.5353C86.8385 62.5512 86.9541 62.5752 87.0577 62.607L86.3881 65.7396H85.8561L86.4599 62.9717C86.432 62.9637 86.3981 62.9578 86.3582 62.9538C86.3184 62.9498 86.2765 62.9478 86.2327 62.9478C86.0693 62.9478 85.9358 62.9877 85.8321 63.0674C85.7325 63.1431 85.6408 63.2746 85.5571 63.4619C85.4734 63.6492 85.3738 63.9123 85.2582 64.251C85.1706 64.4981 85.0869 64.7173 85.0072 64.9086C84.9274 65.096 84.8418 65.2554 84.7501 65.3869C84.6584 65.5144 84.5508 65.6121 84.4273 65.6798C84.3037 65.7476 84.1543 65.7815 83.9789 65.7815Z" fill="#E11E26"/>
<path d="M88.5399 65.7994C88.3287 65.7994 88.1434 65.7675 87.984 65.7037C87.8285 65.636 87.709 65.5344 87.6253 65.3989C87.5416 65.2594 87.4997 65.086 87.4997 64.8788C87.4997 64.799 87.5057 64.7074 87.5177 64.6038C87.5336 64.5001 87.5496 64.4045 87.5655 64.3168L87.9421 62.5353H88.4742L88.1753 63.9282C88.2709 63.9083 88.3725 63.8924 88.4802 63.8804C88.5917 63.8645 88.7033 63.8565 88.8149 63.8565C89.0301 63.8565 89.2095 63.8904 89.353 63.9581C89.5004 64.0219 89.61 64.1175 89.6818 64.2451C89.7535 64.3686 89.7894 64.5201 89.7894 64.6994C89.7894 64.8987 89.7435 65.082 89.6519 65.2494C89.5642 65.4168 89.4287 65.5503 89.2454 65.6499C89.062 65.7496 88.8269 65.7994 88.5399 65.7994ZM88.5698 65.369C88.6934 65.369 88.799 65.353 88.8867 65.3211C88.9743 65.2853 89.0461 65.2394 89.1019 65.1836C89.1577 65.1239 89.1995 65.0581 89.2274 64.9864C89.2553 64.9106 89.2693 64.8309 89.2693 64.7472C89.2693 64.6317 89.2454 64.54 89.1975 64.4722C89.1537 64.4045 89.0859 64.3567 88.9943 64.3288C88.9066 64.3009 88.797 64.2869 88.6655 64.2869C88.5658 64.2869 88.4662 64.2929 88.3666 64.3048C88.2709 64.3128 88.1773 64.3268 88.0856 64.3467C88.0617 64.4623 88.0437 64.5579 88.0318 64.6336C88.0238 64.7054 88.0198 64.7711 88.0198 64.8309C88.0198 65.0023 88.0617 65.1358 88.1454 65.2315C88.2331 65.3231 88.3745 65.369 88.5698 65.369ZM90.1062 65.7396L90.7818 62.5353H91.3078L90.6263 65.7396H90.1062Z" fill="#E11E26"/>
</svg>
