<svg width="111" height="89" viewBox="0 0 111 89" fill="none" xmlns="http://www.w3.org/2000/svg">
<rect x="14" y="22.9999" width="82" height="43.7592" fill="#E11E26"/>
<path d="M53.8551 57.4949L54.1679 56.0096H54.7202L54.7773 57.046H54.7855L55.3187 56.0096H55.8872L55.5689 57.4949H55.199L55.3622 56.7604C55.3767 56.6915 55.3921 56.6253 55.4084 56.5618C55.4248 56.4965 55.4393 56.4439 55.452 56.404H55.4438L54.8807 57.4949H54.4971L54.4373 56.404H54.4318C54.4228 56.4766 54.4128 56.5428 54.4019 56.6026C54.391 56.6607 54.3792 56.7187 54.3665 56.7767L54.2224 57.4949H53.8551Z" fill="white"/>
<path d="M56.4353 57.5221C56.3645 57.5221 56.2965 57.5049 56.2312 57.4704C56.1678 57.4342 56.1161 57.377 56.0762 57.299C56.0363 57.2192 56.0163 57.1141 56.0163 56.9835C56.0163 56.8874 56.0263 56.7912 56.0463 56.6951C56.068 56.599 56.0979 56.5083 56.136 56.4231C56.1759 56.3378 56.224 56.2626 56.2802 56.1973C56.3364 56.1302 56.3999 56.0776 56.4706 56.0395C56.5432 56.0014 56.6212 55.9824 56.7046 55.9824C56.7681 55.9824 56.8225 55.9914 56.8678 56.0096C56.915 56.0277 56.9549 56.0531 56.9875 56.0858C57.022 56.1184 57.0501 56.1565 57.0718 56.2H57.0827L57.1589 56.0096H57.4663L57.1507 57.4949H56.8515L56.8705 57.3018H56.8597C56.8252 57.3453 56.7871 57.3834 56.7454 57.416C56.7037 57.4487 56.6574 57.475 56.6067 57.4949C56.5559 57.513 56.4988 57.5221 56.4353 57.5221ZM56.5931 57.1984C56.6475 57.1984 56.6982 57.1766 56.7454 57.1331C56.7926 57.0896 56.8325 57.0334 56.8651 56.9644C56.8996 56.8955 56.924 56.823 56.9385 56.7468C56.9458 56.7105 56.9503 56.6752 56.9521 56.6407C56.9558 56.6044 56.9576 56.5654 56.9576 56.5237C56.9576 56.4603 56.9413 56.4086 56.9086 56.3687C56.876 56.327 56.8306 56.3061 56.7726 56.3061C56.7327 56.3061 56.6955 56.3188 56.6611 56.3442C56.6266 56.3696 56.594 56.404 56.5631 56.4476C56.5341 56.4911 56.5087 56.541 56.487 56.5972C56.467 56.6534 56.4507 56.7133 56.438 56.7767C56.4271 56.8384 56.4217 56.901 56.4217 56.9644C56.4217 57.0424 56.4362 57.1014 56.4652 57.1413C56.496 57.1793 56.5387 57.1984 56.5931 57.1984Z" fill="white"/>
<path d="M57.5608 57.4949L57.8764 56.0096H58.1811L58.1539 56.2843H58.1648C58.2028 56.2245 58.2446 56.1719 58.2899 56.1266C58.337 56.0812 58.3887 56.0459 58.445 56.0205C58.5012 55.9951 58.5637 55.9824 58.6327 55.9824C58.7342 55.9824 58.8131 56.0096 58.8693 56.064C58.9256 56.1166 58.9627 56.19 58.9809 56.2843H58.9918C59.0298 56.2245 59.0715 56.1719 59.1169 56.1266C59.164 56.0812 59.2166 56.0459 59.2747 56.0205C59.3327 55.9951 59.3962 55.9824 59.4651 55.9824C59.5884 55.9824 59.6809 56.0214 59.7426 56.0994C59.8042 56.1755 59.8351 56.2789 59.8351 56.4095C59.8351 56.4421 59.8323 56.4793 59.8269 56.521C59.8215 56.5609 59.8142 56.6035 59.8051 56.6489L59.6283 57.4949H59.2284L59.4107 56.6271C59.4179 56.5963 59.4234 56.5682 59.427 56.5428C59.4306 56.5156 59.4325 56.4911 59.4325 56.4693C59.4325 56.4131 59.4216 56.3723 59.3998 56.3469C59.378 56.3197 59.3454 56.3061 59.3019 56.3061C59.2565 56.3061 59.2139 56.3206 59.174 56.3496C59.1359 56.3786 59.1006 56.4195 59.0679 56.472C59.0371 56.5246 59.009 56.5854 58.9836 56.6543C58.96 56.7232 58.9401 56.7976 58.9237 56.8774L58.7959 57.4949H58.396L58.5783 56.6271C58.5855 56.5963 58.591 56.5682 58.5946 56.5428C58.5982 56.5156 58.6 56.4911 58.6 56.4693C58.6 56.4131 58.5891 56.3723 58.5674 56.3469C58.5456 56.3197 58.513 56.3061 58.4694 56.3061C58.4241 56.3061 58.3815 56.3215 58.3416 56.3523C58.3035 56.3814 58.2681 56.4222 58.2355 56.4748C58.2047 56.5274 58.1765 56.5881 58.1512 56.657C58.1276 56.7259 58.1076 56.8003 58.0913 56.8801L57.9607 57.4949H57.5608Z" fill="white"/>
<path d="M60.6819 57.5221C60.5658 57.5221 60.4633 57.5013 60.3744 57.4595C60.2874 57.4178 60.2185 57.3544 60.1677 57.2691C60.1187 57.1839 60.0942 57.0769 60.0942 56.9481C60.0942 56.823 60.1115 56.7033 60.1459 56.589C60.1822 56.473 60.2348 56.3696 60.3037 56.2789C60.3744 56.1882 60.4615 56.1166 60.5649 56.064C60.6682 56.0096 60.7879 55.9824 60.924 55.9824C61.0908 55.9824 61.215 56.0205 61.2967 56.0966C61.3801 56.1728 61.4218 56.2698 61.4218 56.3877C61.4218 56.4657 61.4037 56.5364 61.3674 56.5999C61.3329 56.6634 61.2803 56.7178 61.2096 56.7631C61.1407 56.8085 61.0527 56.8438 60.9457 56.8692C60.8387 56.8928 60.7127 56.9046 60.5676 56.9046H60.4996C60.4978 56.9155 60.4969 56.9254 60.4969 56.9345C60.4969 56.9418 60.4969 56.9499 60.4969 56.959C60.4969 57.0388 60.5195 57.1023 60.5649 57.1494C60.612 57.1966 60.6773 57.2201 60.7607 57.2201C60.8387 57.2201 60.9095 57.2111 60.9729 57.1929C61.0364 57.1748 61.1117 57.1458 61.1987 57.1059V57.4079C61.1207 57.4459 61.0418 57.475 60.962 57.4949C60.8823 57.513 60.7889 57.5221 60.6819 57.5221ZM60.603 56.6353C60.7063 56.6353 60.7898 56.6244 60.8532 56.6026C60.9167 56.5809 60.963 56.5518 60.992 56.5156C61.0228 56.4775 61.0382 56.4376 61.0382 56.3959C61.0382 56.3542 61.0255 56.3233 61.0001 56.3034C60.9766 56.2816 60.943 56.2707 60.8995 56.2707C60.8505 56.2707 60.8015 56.2862 60.7526 56.317C60.7036 56.3478 60.6601 56.3904 60.622 56.4448C60.5857 56.4992 60.5594 56.5627 60.5431 56.6353H60.603Z" fill="white"/>
<path d="M61.3991 58.1478L61.8534 56.0096H62.158L62.1363 56.2354H62.1472C62.178 56.1918 62.2134 56.151 62.2533 56.113C62.295 56.0749 62.3421 56.044 62.3947 56.0205C62.4473 55.9951 62.5053 55.9824 62.5688 55.9824C62.6414 55.9824 62.7094 56.0005 62.7728 56.0368C62.8363 56.0712 62.888 56.1284 62.9279 56.2082C62.9678 56.2862 62.9878 56.3913 62.9878 56.5237C62.9878 56.6199 62.9769 56.716 62.9551 56.8121C62.9352 56.9082 62.9052 56.9989 62.8653 57.0841C62.8273 57.1694 62.7801 57.2446 62.7239 57.3099C62.6677 57.3752 62.6033 57.4269 62.5307 57.465C62.46 57.5031 62.3829 57.5221 62.2995 57.5221C62.2397 57.5221 62.1889 57.513 62.1472 57.4949C62.1054 57.475 62.0701 57.4487 62.0411 57.416C62.012 57.3816 61.9857 57.3444 61.9622 57.3045H61.9513C61.9459 57.377 61.9386 57.4432 61.9295 57.5031C61.9205 57.5629 61.9087 57.6273 61.8942 57.6962L61.7989 58.1478H61.3991ZM62.2315 57.1984C62.2714 57.1984 62.3086 57.1857 62.343 57.1603C62.3775 57.1349 62.4092 57.1005 62.4382 57.0569C62.4691 57.0134 62.4945 56.9635 62.5144 56.9073C62.5362 56.8511 62.5525 56.7912 62.5634 56.7278C62.5761 56.6643 62.5824 56.6017 62.5824 56.5401C62.5824 56.4621 62.5679 56.404 62.5389 56.366C62.5099 56.3261 62.4663 56.3061 62.4083 56.3061C62.3648 56.3061 62.3258 56.317 62.2913 56.3387C62.2569 56.3605 62.226 56.3904 62.1988 56.4285C62.1735 56.4648 62.1508 56.5065 62.1308 56.5537C62.1109 56.6008 62.0946 56.6489 62.0819 56.6978C62.071 56.7468 62.0619 56.7949 62.0547 56.842C62.0492 56.8874 62.0465 56.9282 62.0465 56.9644C62.0465 57.0352 62.0628 57.0923 62.0955 57.1358C62.1299 57.1775 62.1753 57.1984 62.2315 57.1984Z" fill="white"/>
<path d="M63.6317 57.5221C63.5465 57.5221 63.4758 57.5049 63.4196 57.4704C63.3633 57.4342 63.3216 57.3843 63.2944 57.3208C63.2672 57.2573 63.2536 57.1821 63.2536 57.095C63.2536 57.0624 63.2563 57.0207 63.2618 56.9699C63.2672 56.9173 63.2754 56.8647 63.2863 56.8121L63.4549 56.0096H63.8548L63.6725 56.8774C63.6653 56.9064 63.6599 56.9345 63.6562 56.9617C63.6526 56.9889 63.6508 57.0134 63.6508 57.0352C63.6508 57.0914 63.6626 57.1331 63.6861 57.1603C63.7115 57.1857 63.7478 57.1984 63.795 57.1984C63.8566 57.1984 63.911 57.173 63.9582 57.1222C64.0072 57.0696 64.0498 56.9998 64.086 56.9127C64.1223 56.8257 64.1513 56.7296 64.1731 56.6244L64.3037 56.0096H64.7036L64.388 57.4949H64.0833L64.1105 57.2201H64.0969C64.0588 57.2782 64.0171 57.3308 63.9718 57.3779C63.9264 57.4233 63.8757 57.4586 63.8194 57.484C63.7632 57.5094 63.7007 57.5221 63.6317 57.5221Z" fill="white"/>
<path d="M65.2871 57.5221C65.2164 57.5221 65.1484 57.5049 65.0831 57.4704C65.0196 57.4342 64.9679 57.377 64.928 57.299C64.8881 57.2192 64.8682 57.1141 64.8682 56.9835C64.8682 56.8874 64.8782 56.7912 64.8981 56.6951C64.9199 56.599 64.9498 56.5083 64.9879 56.4231C65.0278 56.3378 65.0759 56.2626 65.1321 56.1973C65.1883 56.1302 65.2518 56.0776 65.3225 56.0395C65.395 56.0014 65.473 55.9824 65.5565 55.9824C65.6199 55.9824 65.6743 55.9914 65.7197 56.0096C65.7668 56.0277 65.8067 56.0531 65.8394 56.0858C65.8738 56.1184 65.9019 56.1565 65.9237 56.2H65.9346L66.0108 56.0096H66.3182L66.0026 57.4949H65.7034L65.7224 57.3018H65.7115C65.6771 57.3453 65.639 57.3834 65.5973 57.416C65.5555 57.4487 65.5093 57.475 65.4585 57.4949C65.4077 57.513 65.3506 57.5221 65.2871 57.5221ZM65.4449 57.1984C65.4993 57.1984 65.5501 57.1766 65.5973 57.1331C65.6444 57.0896 65.6843 57.0334 65.717 56.9644C65.7514 56.8955 65.7759 56.823 65.7904 56.7468C65.7977 56.7105 65.8022 56.6752 65.804 56.6407C65.8076 56.6044 65.8094 56.5654 65.8094 56.5237C65.8094 56.4603 65.7931 56.4086 65.7605 56.3687C65.7278 56.327 65.6825 56.3061 65.6245 56.3061C65.5846 56.3061 65.5474 56.3188 65.5129 56.3442C65.4785 56.3696 65.4458 56.404 65.415 56.4476C65.386 56.4911 65.3606 56.541 65.3388 56.5972C65.3189 56.6534 65.3025 56.7133 65.2899 56.7767C65.279 56.8384 65.2735 56.901 65.2735 56.9644C65.2735 57.0424 65.288 57.1014 65.3171 57.1413C65.3479 57.1793 65.3905 57.1984 65.4449 57.1984Z" fill="white"/>
<path d="M66.4834 57.5221C66.4435 57.5221 66.4082 57.5194 66.3773 57.514C66.3465 57.5103 66.3157 57.5022 66.2848 57.4895V57.1603C66.3048 57.1676 66.3238 57.173 66.342 57.1766C66.3583 57.1803 66.3764 57.1821 66.3964 57.1821C66.4308 57.1821 66.4608 57.1703 66.4861 57.1467C66.5133 57.1213 66.5369 57.0869 66.5569 57.0433C66.5786 56.9998 66.5986 56.9499 66.6167 56.8937C66.6367 56.8375 66.6575 56.7785 66.6793 56.7169C66.7228 56.5917 66.7663 56.4829 66.8099 56.3904C66.8534 56.2979 66.9042 56.2218 66.9622 56.1619C67.0202 56.1021 67.0937 56.0576 67.1826 56.0286C67.2714 55.9978 67.383 55.9824 67.5172 55.9824C67.6078 55.9824 67.694 55.9905 67.7756 56.0069C67.859 56.0214 67.9261 56.0386 67.9769 56.0585L67.6749 57.4949H67.2751L67.5253 56.3197C67.5126 56.3161 67.499 56.3134 67.4845 56.3115C67.47 56.3097 67.4555 56.3088 67.441 56.3088C67.3685 56.3088 67.3095 56.3297 67.2642 56.3714C67.2206 56.4131 67.1826 56.4748 67.1499 56.5564C67.1173 56.638 67.0801 56.7395 67.0384 56.8611C67.0075 56.9517 66.9767 57.037 66.9459 57.1168C66.9169 57.1966 66.8824 57.2673 66.8425 57.329C66.8026 57.3888 66.7536 57.436 66.6956 57.4704C66.6394 57.5049 66.5687 57.5221 66.4834 57.5221Z" fill="white"/>
<path d="M68.6957 57.5221C68.5651 57.5221 68.4618 57.5031 68.3856 57.465C68.3112 57.4269 68.2577 57.3752 68.2251 57.3099C68.1943 57.2428 68.1789 57.1694 68.1789 57.0896C68.1789 57.066 68.1807 57.0324 68.1843 56.9889C68.1879 56.9436 68.1961 56.8937 68.2088 56.8393L68.3883 56.0096H68.7882L68.6576 56.6135C68.6939 56.6044 68.7347 56.5972 68.7801 56.5917C68.8254 56.5863 68.8744 56.5836 68.927 56.5836C69.0086 56.5836 69.0802 56.5999 69.1419 56.6325C69.2053 56.6634 69.2543 56.7087 69.2888 56.7686C69.325 56.8266 69.3432 56.8964 69.3432 56.978C69.3432 57.0705 69.3205 57.1585 69.2752 57.2419C69.2316 57.3235 69.1618 57.3906 69.0657 57.4432C68.9714 57.4958 68.8481 57.5221 68.6957 57.5221ZM68.7284 57.2419C68.761 57.2419 68.79 57.2374 68.8154 57.2283C68.8426 57.2174 68.8653 57.202 68.8834 57.1821C68.9034 57.1621 68.9179 57.1385 68.927 57.1113C68.9378 57.0841 68.9433 57.0542 68.9433 57.0216C68.9433 56.9853 68.9369 56.9563 68.9242 56.9345C68.9115 56.9109 68.8925 56.8937 68.8671 56.8828C68.8435 56.8701 68.8136 56.8638 68.7773 56.8638C68.7501 56.8638 68.722 56.8656 68.693 56.8692C68.6658 56.8728 68.6359 56.8792 68.6032 56.8883C68.5924 56.9354 68.5851 56.9708 68.5815 56.9944C68.5778 57.0161 68.576 57.0442 68.576 57.0787C68.576 57.1367 68.5914 57.1784 68.6223 57.2038C68.6531 57.2292 68.6885 57.2419 68.7284 57.2419ZM69.4602 57.4949L69.7757 56.0096H70.1756L69.8601 57.4949H69.4602Z" fill="white"/>
<path d="M71.6215 57.5221C71.4891 57.5221 71.3803 57.4967 71.295 57.4459C71.2098 57.3933 71.1472 57.3226 71.1073 57.2338C71.0674 57.1449 71.0475 57.0451 71.0475 56.9345C71.0475 56.8329 71.0575 56.7395 71.0774 56.6543C71.0974 56.5673 71.1264 56.4902 71.1645 56.4231C71.2026 56.3542 71.2479 56.2961 71.3005 56.249C71.3531 56.2 71.412 56.1628 71.4773 56.1374C71.5426 56.112 71.6133 56.0994 71.6895 56.0994C71.7512 56.0994 71.8047 56.1102 71.85 56.132C71.8972 56.1538 71.938 56.1828 71.9724 56.2191C72.0069 56.2553 72.0359 56.2961 72.0595 56.3415H72.0704C72.0722 56.327 72.0731 56.3115 72.0731 56.2952C72.0731 56.2771 72.0731 56.2635 72.0731 56.2544C72.0731 56.0767 72.045 55.947 71.9887 55.8654C71.9343 55.782 71.8455 55.7403 71.7221 55.7403C71.6804 55.7403 71.6351 55.7457 71.5861 55.7566C71.5372 55.7657 71.4927 55.7783 71.4528 55.7947L71.3685 55.4791C71.4265 55.4573 71.4909 55.441 71.5616 55.4301C71.6324 55.4193 71.7067 55.4138 71.7847 55.4138C71.9479 55.4138 72.0803 55.4483 72.1819 55.5172C72.2835 55.5861 72.3578 55.684 72.405 55.811C72.4521 55.9379 72.4757 56.0885 72.4757 56.2626C72.4757 56.3641 72.4684 56.4666 72.4539 56.57C72.4412 56.6715 72.4204 56.7695 72.3914 56.8638C72.3623 56.9563 72.3252 57.0424 72.2798 57.1222C72.2363 57.202 72.1828 57.2718 72.1193 57.3317C72.0558 57.3915 71.9824 57.4387 71.899 57.4731C71.8174 57.5058 71.7249 57.5221 71.6215 57.5221ZM71.6433 57.1957C71.6886 57.1957 71.7294 57.1857 71.7657 57.1657C71.8019 57.144 71.8337 57.1141 71.8609 57.076C71.8899 57.0379 71.9144 56.9944 71.9343 56.9454C71.9561 56.8964 71.9742 56.8438 71.9887 56.7876C72.0033 56.7296 72.015 56.6706 72.0241 56.6108C72.0132 56.5709 71.9969 56.5364 71.9751 56.5074C71.9534 56.4766 71.9262 56.4521 71.8935 56.434C71.8627 56.4158 71.8264 56.4068 71.7847 56.4068C71.743 56.4068 71.7049 56.4149 71.6705 56.4312C71.636 56.4476 71.6052 56.472 71.578 56.5047C71.5508 56.5355 71.5272 56.5736 71.5072 56.6189C71.4891 56.6625 71.4746 56.7123 71.4637 56.7686C71.4546 56.823 71.4501 56.8828 71.4501 56.9481C71.4501 57.0261 71.4664 57.0869 71.4991 57.1304C71.5335 57.1739 71.5816 57.1957 71.6433 57.1957Z" fill="white"/>
<path d="M72.6813 57.5221C72.6414 57.5221 72.6061 57.5194 72.5752 57.514C72.5444 57.5103 72.5136 57.5022 72.4827 57.4895V57.1603C72.5027 57.1676 72.5217 57.173 72.5399 57.1766C72.5562 57.1803 72.5743 57.1821 72.5943 57.1821C72.6287 57.1821 72.6586 57.1703 72.684 57.1467C72.7112 57.1213 72.7348 57.0869 72.7548 57.0433C72.7765 56.9998 72.7965 56.9499 72.8146 56.8937C72.8346 56.8375 72.8554 56.7785 72.8772 56.7169C72.9207 56.5917 72.9642 56.4829 73.0078 56.3904C73.0513 56.2979 73.1021 56.2218 73.1601 56.1619C73.2181 56.1021 73.2916 56.0576 73.3805 56.0286C73.4693 55.9978 73.5809 55.9824 73.7151 55.9824C73.8057 55.9824 73.8919 55.9905 73.9735 56.0069C74.0569 56.0214 74.124 56.0386 74.1748 56.0585L73.8728 57.4949H73.4729L73.7232 56.3197C73.7105 56.3161 73.6969 56.3134 73.6824 56.3115C73.6679 56.3097 73.6534 56.3088 73.6389 56.3088C73.5663 56.3088 73.5074 56.3297 73.4621 56.3714C73.4185 56.4131 73.3805 56.4748 73.3478 56.5564C73.3152 56.638 73.278 56.7395 73.2363 56.8611C73.2054 56.9517 73.1746 57.037 73.1438 57.1168C73.1148 57.1966 73.0803 57.2673 73.0404 57.329C73.0005 57.3888 72.9515 57.436 72.8935 57.4704C72.8373 57.5049 72.7666 57.5221 72.6813 57.5221Z" fill="white"/>
<path d="M74.4094 57.5221C74.3713 57.5221 74.335 57.5194 74.3006 57.514C74.2661 57.5085 74.2353 57.5003 74.2081 57.4895V57.1603C74.2226 57.1657 74.238 57.1712 74.2543 57.1766C74.2725 57.1803 74.2915 57.1821 74.3115 57.1821C74.3368 57.1821 74.3586 57.1775 74.3767 57.1685C74.3949 57.1594 74.4112 57.1467 74.4257 57.1304C74.4402 57.1141 74.4529 57.0959 74.4638 57.076C74.4946 57.0252 74.5218 56.9835 74.5454 56.9508C74.5708 56.9182 74.5971 56.8919 74.6243 56.8719C74.6515 56.852 74.6823 56.8366 74.7168 56.8257C74.6769 56.8094 74.6406 56.7876 74.608 56.7604C74.5772 56.7332 74.5527 56.6997 74.5345 56.6598C74.5164 56.618 74.5073 56.5691 74.5073 56.5129C74.5073 56.424 74.5236 56.3478 74.5563 56.2843C74.5908 56.2209 74.637 56.1692 74.695 56.1293C74.7549 56.0876 74.8238 56.0576 74.9018 56.0395C74.9798 56.0196 75.0623 56.0096 75.1493 56.0096H75.7696L75.4567 57.4949H75.0568L75.1765 56.9427H75.0949C75.0369 56.9427 74.9916 56.9617 74.9589 56.9998C74.9263 57.0361 74.8963 57.0823 74.8691 57.1385C74.8437 57.1948 74.812 57.2537 74.7739 57.3154C74.7503 57.3534 74.7222 57.3879 74.6896 57.4187C74.6569 57.4496 74.618 57.475 74.5726 57.4949C74.5273 57.513 74.4729 57.5221 74.4094 57.5221ZM75.1112 56.6706H75.2337L75.3126 56.2952H75.1439C75.1004 56.2952 75.0614 56.3034 75.0269 56.3197C74.9925 56.336 74.9653 56.3605 74.9453 56.3932C74.9254 56.424 74.9154 56.4621 74.9154 56.5074C74.9154 56.5564 74.9308 56.5963 74.9616 56.6271C74.9943 56.6561 75.0441 56.6706 75.1112 56.6706Z" fill="white"/>
<path d="M77.2136 57.5221C77.1029 57.5221 77.0041 57.4994 76.917 57.4541C76.8318 57.4069 76.7647 57.3408 76.7157 57.2555C76.6686 57.1703 76.645 57.0687 76.645 56.9508C76.645 56.8456 76.655 56.745 76.6749 56.6489C76.6967 56.5528 76.7284 56.4648 76.7701 56.385C76.8118 56.3034 76.8644 56.2327 76.9279 56.1728C76.9914 56.113 77.0648 56.0667 77.1483 56.0341C77.2335 55.9996 77.3287 55.9824 77.4339 55.9824C77.55 55.9824 77.6497 56.006 77.7331 56.0531C77.8166 56.0984 77.881 56.1655 77.9263 56.2544C77.9734 56.3415 77.997 56.4467 77.997 56.57C77.997 56.6697 77.987 56.7668 77.9671 56.8611C77.9471 56.9554 77.9163 57.0424 77.8746 57.1222C77.8347 57.202 77.7839 57.2718 77.7223 57.3317C77.6606 57.3915 77.5872 57.4387 77.5019 57.4731C77.4167 57.5058 77.3206 57.5221 77.2136 57.5221ZM77.2462 57.1957C77.2897 57.1957 77.3296 57.1848 77.3659 57.163C77.4022 57.1394 77.4348 57.1077 77.4638 57.0678C77.4928 57.0279 77.5164 56.9817 77.5346 56.9291C77.5545 56.8765 77.569 56.8193 77.5781 56.7577C77.589 56.696 77.5944 56.6335 77.5944 56.57C77.5944 56.5192 77.5881 56.4748 77.5754 56.4367C77.5645 56.3968 77.5445 56.366 77.5155 56.3442C77.4883 56.3206 77.4511 56.3088 77.404 56.3088C77.355 56.3088 77.3115 56.3224 77.2734 56.3496C77.2353 56.3768 77.2018 56.4131 77.1727 56.4584C77.1455 56.502 77.122 56.5518 77.102 56.6081C77.0839 56.6643 77.0703 56.7223 77.0612 56.7822C77.0521 56.8402 77.0476 56.8964 77.0476 56.9508C77.0476 57.0306 77.0639 57.0914 77.0966 57.1331C77.1292 57.1748 77.1791 57.1957 77.2462 57.1957Z" fill="white"/>
<path d="M78.8103 57.5058C78.6852 57.4913 78.58 57.4559 78.4947 57.3997C78.4095 57.3435 78.3451 57.2718 78.3016 57.1848C78.2581 57.0977 78.2363 57.0007 78.2363 56.8937C78.2363 56.8139 78.2463 56.7341 78.2662 56.6543C78.2862 56.5727 78.317 56.4947 78.3587 56.4204C78.4023 56.346 78.4585 56.2789 78.5274 56.2191C78.5963 56.1574 78.6806 56.1075 78.7804 56.0694C78.8801 56.0295 78.9962 56.006 79.1286 55.9987L79.2483 55.4274H79.6291L79.5094 56.0014C79.6926 56.0268 79.8323 56.0948 79.9284 56.2054C80.0245 56.3161 80.0726 56.4548 80.0726 56.6217C80.0726 56.6924 80.0644 56.7668 80.0481 56.8447C80.0336 56.9209 80.0064 56.9962 79.9665 57.0705C79.9284 57.1431 79.8758 57.2111 79.8087 57.2746C79.7416 57.3362 79.6573 57.3888 79.5557 57.4323C79.4541 57.4759 79.3308 57.5049 79.1857 57.5194L79.0579 58.1478H78.6716L78.8103 57.5058ZM79.0633 56.3088C78.9835 56.3143 78.9164 56.336 78.862 56.3741C78.8076 56.4122 78.7641 56.4594 78.7314 56.5156C78.7006 56.5718 78.6779 56.6307 78.6634 56.6924C78.6507 56.7541 78.6444 56.8103 78.6444 56.8611C78.6444 56.9209 78.6525 56.9753 78.6688 57.0243C78.687 57.0714 78.7124 57.1104 78.745 57.1413C78.7795 57.1703 78.8221 57.1884 78.8729 57.1957L79.0633 56.3088ZM79.2537 57.1957C79.3208 57.1866 79.378 57.1676 79.4251 57.1385C79.4723 57.1095 79.5113 57.0742 79.5421 57.0324C79.5747 56.9907 79.6001 56.9463 79.6183 56.8991C79.6364 56.852 79.6491 56.8057 79.6563 56.7604C79.6636 56.7133 79.6672 56.6697 79.6672 56.6298C79.6672 56.5754 79.6582 56.5265 79.64 56.4829C79.6237 56.4376 79.5983 56.4004 79.5639 56.3714C79.5312 56.3424 79.4904 56.3233 79.4414 56.3143L79.2537 57.1957Z" fill="white"/>
<path d="M80.7165 57.5221C80.6312 57.5221 80.5605 57.5049 80.5043 57.4704C80.4481 57.4342 80.4063 57.3843 80.3791 57.3208C80.3519 57.2573 80.3383 57.1821 80.3383 57.095C80.3383 57.0624 80.3411 57.0207 80.3465 56.9699C80.3519 56.9173 80.3601 56.8647 80.371 56.8121L80.5396 56.0096H80.9395L80.7573 56.8774C80.75 56.9064 80.7446 56.9345 80.7409 56.9617C80.7373 56.9889 80.7355 57.0134 80.7355 57.0352C80.7355 57.0914 80.7473 57.1331 80.7709 57.1603C80.7963 57.1857 80.8325 57.1984 80.8797 57.1984C80.9413 57.1984 80.9958 57.173 81.0429 57.1222C81.0919 57.0696 81.1345 56.9998 81.1708 56.9127C81.207 56.8257 81.2361 56.7296 81.2578 56.6244L81.3884 56.0096H81.7883L81.4727 57.4949H81.168L81.1953 57.2201H81.1817C81.1436 57.2782 81.1019 57.3308 81.0565 57.3779C81.0112 57.4233 80.9604 57.4586 80.9042 57.484C80.8479 57.5094 80.7854 57.5221 80.7165 57.5221Z" fill="white"/>
<path d="M82.5052 57.5221C82.4036 57.5221 82.3102 57.504 82.225 57.4677C82.1415 57.4296 82.0753 57.3707 82.0264 57.2909C81.9774 57.2111 81.9529 57.1059 81.9529 56.9753C81.9529 56.8683 81.9638 56.7658 81.9856 56.6679C82.0091 56.57 82.0418 56.4793 82.0835 56.3959C82.127 56.3125 82.1805 56.2399 82.244 56.1782C82.3075 56.1166 82.3809 56.0685 82.4644 56.0341C82.5478 55.9996 82.6394 55.9824 82.7391 55.9824C82.828 55.9824 82.9069 55.9905 82.9758 56.0069C83.0465 56.0232 83.1127 56.0468 83.1744 56.0776L83.052 56.3823C83.0048 56.3623 82.9576 56.3451 82.9105 56.3306C82.8652 56.3143 82.8135 56.3061 82.7554 56.3061C82.7047 56.3061 82.6584 56.3179 82.6167 56.3415C82.575 56.365 82.5378 56.3977 82.5052 56.4394C82.4743 56.4811 82.4471 56.5292 82.4235 56.5836C82.4018 56.638 82.3855 56.696 82.3746 56.7577C82.3637 56.8175 82.3583 56.8792 82.3583 56.9427C82.3583 56.9989 82.3673 57.046 82.3855 57.0841C82.4036 57.1222 82.429 57.1512 82.4616 57.1712C82.4961 57.1893 82.5378 57.1984 82.5868 57.1984C82.6539 57.1984 82.7155 57.1884 82.7718 57.1685C82.8298 57.1467 82.8896 57.1204 82.9513 57.0896V57.416C82.8896 57.4487 82.8225 57.475 82.75 57.4949C82.6793 57.513 82.5977 57.5221 82.5052 57.5221Z" fill="white"/>
<path d="M83.6869 57.5221C83.6162 57.5221 83.5481 57.5049 83.4829 57.4704C83.4194 57.4342 83.3677 57.377 83.3278 57.299C83.2879 57.2192 83.2679 57.1141 83.2679 56.9835C83.2679 56.8874 83.2779 56.7912 83.2979 56.6951C83.3196 56.599 83.3496 56.5083 83.3876 56.4231C83.4275 56.3378 83.4756 56.2626 83.5318 56.1973C83.588 56.1302 83.6515 56.0776 83.7222 56.0395C83.7948 56.0014 83.8728 55.9824 83.9562 55.9824C84.0197 55.9824 84.0741 55.9914 84.1194 56.0096C84.1666 56.0277 84.2065 56.0531 84.2391 56.0858C84.2736 56.1184 84.3017 56.1565 84.3235 56.2H84.3343L84.4105 56.0096H84.7179L84.4023 57.4949H84.1031L84.1221 57.3018H84.1113C84.0768 57.3453 84.0387 57.3834 83.997 57.416C83.9553 57.4487 83.909 57.475 83.8583 57.4949C83.8075 57.513 83.7504 57.5221 83.6869 57.5221ZM83.8447 57.1984C83.8991 57.1984 83.9499 57.1766 83.997 57.1331C84.0442 57.0896 84.0841 57.0334 84.1167 56.9644C84.1512 56.8955 84.1756 56.823 84.1902 56.7468C84.1974 56.7105 84.2019 56.6752 84.2038 56.6407C84.2074 56.6044 84.2092 56.5654 84.2092 56.5237C84.2092 56.4603 84.1929 56.4086 84.1602 56.3687C84.1276 56.327 84.0822 56.3061 84.0242 56.3061C83.9843 56.3061 83.9471 56.3188 83.9127 56.3442C83.8782 56.3696 83.8456 56.404 83.8147 56.4476C83.7857 56.4911 83.7603 56.541 83.7386 56.5972C83.7186 56.6534 83.7023 56.7133 83.6896 56.7767C83.6787 56.8384 83.6733 56.901 83.6733 56.9644C83.6733 57.0424 83.6878 57.1014 83.7168 57.1413C83.7476 57.1793 83.7903 57.1984 83.8447 57.1984Z" fill="white"/>
<path d="M22.3871 28.4415V40.1519V43.4878L25.716 40.1519H27.9668L24.1839 43.829L28.3451 49.0225H26.1321L22.9734 44.9852L22.3871 45.5728V49.0225H20.6848V28.4415H22.3871Z" fill="white"/>
<path d="M35.0288 47.8094C35.9115 47.8094 36.6176 47.4872 37.1472 46.8427C37.6516 46.2488 37.9038 45.497 37.9038 44.5872C37.9038 43.69 37.6453 42.9382 37.1283 42.3316C36.6113 41.7125 35.9115 41.4029 35.0288 41.4029C34.184 41.4029 33.5031 41.7188 32.9861 42.3506C32.4817 42.9697 32.2295 43.7153 32.2295 44.5872C32.2295 45.4717 32.4691 46.2172 32.9483 46.8238C33.4653 47.4809 34.1588 47.8094 35.0288 47.8094ZM39.5115 40.1519V49.0225H37.8092V47.6388H37.7714C37.0022 48.7634 35.9998 49.3257 34.764 49.3257C33.4527 49.3257 32.4061 48.8456 31.6243 47.8852C30.8929 46.988 30.5273 45.8697 30.5273 44.5303C30.5273 43.2667 30.8993 42.1863 31.6432 41.2891C32.4376 40.3541 33.459 39.8865 34.7073 39.8865C35.9809 39.8865 37.0022 40.4678 37.7714 41.6303H37.8092V40.1519H39.5115Z" fill="white"/>
<path d="M45.7595 40.1519V41.346H45.7974C46.3396 40.373 47.2285 39.8865 48.4643 39.8865C50.5574 39.8865 51.604 41.1691 51.604 43.7342V60.7752H49.9017V43.9427C49.9017 43.0708 49.7945 42.458 49.5802 42.1042C49.3028 41.6366 48.7606 41.4029 47.9536 41.4029C46.9826 41.4029 46.3459 41.7946 46.0432 42.578C45.8541 43.0329 45.7595 43.8227 45.7595 44.9473V49.0225H44.0573V40.1519H45.7595Z" fill="white"/>
<path d="M58.0424 47.4303H63.7924V49.0225H54.7325L60.7283 41.744H55.7538V40.1519H64.0382L58.0424 47.4303Z" fill="white"/>
<path d="M69.5693 28.4415V49.0225H67.867V28.4415H69.5693Z" fill="white"/>
<path d="M82.3077 44.8715H75.5554C75.5554 45.6676 75.795 46.3436 76.2741 46.8996C76.7785 47.5061 77.4279 47.8094 78.2223 47.8094C79.2815 47.8094 80.1641 47.2344 80.8703 46.0846L82.3077 46.8996C81.8916 47.6578 81.3179 48.2517 80.5865 48.6813C79.8552 49.1109 79.0608 49.3257 78.2034 49.3257C76.8794 49.3257 75.8202 48.8835 75.0258 47.9989C74.244 47.1144 73.8531 46.0024 73.8531 44.663C73.8531 43.2477 74.2125 42.1105 74.9312 41.2512C75.7004 40.3414 76.7785 39.8865 78.1655 39.8865C79.5148 39.8865 80.555 40.3414 81.2864 41.2512C81.9673 42.0979 82.3077 43.2162 82.3077 44.6061V44.8715ZM75.6499 43.5826H80.6055C80.492 42.9002 80.2209 42.3632 79.7922 41.9715C79.3634 41.5671 78.8212 41.365 78.1655 41.365C77.5098 41.365 76.9487 41.5735 76.4822 41.9904C76.0282 42.4074 75.7508 42.9382 75.6499 43.5826Z" fill="white"/>
<path d="M88.3145 40.1519V41.5924H88.3713C88.8252 40.4552 89.6322 39.8865 90.7923 39.8865C91.2714 39.8865 91.738 40.0318 92.1919 40.3225L91.4164 41.8767C91.139 41.6366 90.7923 41.5166 90.3762 41.5166C89.0017 41.5166 88.3713 42.6221 88.3713 44.7197V60.7328H86.6123V40.1519H88.3145Z" fill="white"/>
<line x1="8.74228e-08" y1="0.5" x2="111" y2="0.500019" stroke="#333333" stroke-dasharray="1 6"/>
<line x1="4.37114e-08" y1="88.5" x2="109" y2="88.5" stroke="#333333" stroke-dasharray="1 6"/>
</svg>
