<svg width="109" height="91" viewBox="0 0 109 91" fill="none" xmlns="http://www.w3.org/2000/svg">
<line x1="69" y1="0.5" x2="109" y2="0.5" stroke="#333333" stroke-dasharray="1 6"/>
<line y1="90.5" x2="20" y2="90.5" stroke="#333333" stroke-dasharray="1 6"/>
<path d="M23.6641 36.909C22.8723 36.5131 22.0805 36.1171 22.4764 34.9294L23 33L32 35.5L31.5 37.5C31.1041 38.6878 30.3944 38.8886 28.8108 38.4927L23.6641 36.909L23.6641 36.909Z" fill="#333333"/>
<path d="M89.9757 53.5388C91.363 53.5388 91.7589 54.3307 91.7589 55.5184L91.7589 64.0437L91.7589 70.167V72.5425C91.7589 73.7303 91.363 74.5227 89.9756 74.5227L16.7374 74.5221C15.3604 74.5221 14.9601 73.742 14.9542 72.569V70.167V64.0437V55.5184C14.9542 54.3307 15.3501 53.5382 16.7374 53.5382L72.7557 53.5387V47.477L20.4966 32.5553C19.7048 32.1594 19.7048 30.9716 20.1007 30.1798L18.913 29.8001C17.3294 29.4042 17.3294 28.2164 17.7253 27.0287L20.8925 16.3388C21.2884 15.5469 21.6051 14.9927 24.4556 15.9429L93.3426 35.7389C94.0024 35.8709 95.1637 36.6099 94.5303 38.5103C93.8969 40.4108 91.891 46.6927 90.9672 49.5961C90.6866 50.4781 89.7003 50.6093 87.8 49.9758C87.4041 50.7676 87.0082 51.5586 85.4246 51.1627V53.5388L89.9757 53.5388Z" fill="#EADDDD"/>
<path d="M14.9541 72.5425C14.9541 72.5514 14.9541 72.5602 14.9542 72.569M14.9542 72.569C14.9601 73.742 15.3604 74.5221 16.7374 74.5221L89.9756 74.5227C91.363 74.5227 91.7589 73.7303 91.7589 72.5425C91.7589 71.8288 91.7589 71.0259 91.7589 70.167M14.9542 72.569V70.167M14.9542 64.0437V55.5184C14.9542 54.3307 15.3501 53.5382 16.7374 53.5382L72.7557 53.5387M14.9542 64.0437H91.7589M14.9542 64.0437V70.167M91.7589 64.0437C91.7589 60.0795 91.7589 56.4173 91.7589 55.5184C91.7589 54.3307 91.363 53.5388 89.9757 53.5388L85.4246 53.5388M91.7589 64.0437C91.7589 66.1197 91.7589 68.2786 91.7589 70.167M91.7589 70.167H14.9542M85.4246 53.5388V51.1627M85.4246 53.5388L72.7557 53.5387M85.4246 51.1627C87.0082 51.5586 87.4041 50.7676 87.8 49.9758M85.4246 51.1627L72.7557 47.477M72.7557 53.5387V47.477M72.7557 47.477L20.4966 32.5553C19.7048 32.1594 19.7048 30.9716 20.1007 30.1798M20.1007 30.1798L87.8 49.9758M20.1007 30.1798L18.913 29.8001C17.3294 29.4042 17.3294 28.2164 17.7253 27.0287L20.8925 16.3388C21.2884 15.5469 21.6051 14.9927 24.4556 15.9429L93.3426 35.7389C94.0024 35.8709 95.1637 36.6099 94.5303 38.5103C93.8969 40.4108 91.891 46.6927 90.9672 49.5961C90.6866 50.4781 89.7003 50.6093 87.8 49.9758" stroke="white"/>
<path d="M85.4245 51.1626V53.5387L72.7556 53.5386V47.4769L85.4245 51.1626Z" fill="#EA5A5A" stroke="white"/>
<path d="M91.7589 55.5183C91.7589 54.3306 91.363 53.5387 89.9756 53.5387L85.4245 53.5387L72.7556 53.5386L16.7374 53.5381C15.35 53.5381 14.9541 54.3306 14.9541 55.5183V64.0436H91.7588L91.7589 55.5183Z" fill="#EA5A5A" stroke="white"/>
<path d="M20.4965 32.5551L85.4245 51.1625C87.0081 51.5584 87.404 50.7674 87.7999 49.9756L20.1006 30.1796C19.7047 30.9714 19.7047 32.1592 20.4965 32.5551Z" fill="#333333" stroke="white"/>
</svg>
