<svg width="109" height="91" viewBox="0 0 109 91" fill="none" xmlns="http://www.w3.org/2000/svg">
<line x1="89" y1="0.5" x2="109" y2="0.5" stroke="#333333" stroke-dasharray="1 6"/>
<line y1="90.5" x2="20" y2="90.5" stroke="#333333" stroke-dasharray="1 6"/>
<path d="M91.4532 33.6723V83.5212H61.0333H49.0963H18.548V33.6723H14.9541V21.913H49.0963H54.2305C54.2308 21.9124 54.2311 21.9118 54.2314 21.9111C54.2314 21.911 54.2315 21.9109 54.2316 21.9108C48.512 21.9069 41.5124 21.8648 38.828 21.4005C36.3893 20.9787 35.1057 19.6118 33.6938 16.7991C32.2819 13.9863 34.3674 10.1526 34.9774 9.51279C42.3374 1.79312 50.9463 12.6322 55.0653 20.2831C59.1847 12.6323 67.7928 1.79555 75.1522 9.51461C75.7622 10.1544 77.8477 13.9882 76.4358 16.8009C75.0239 19.6136 73.7403 20.9805 71.3016 21.4024C68.3495 21.913 60.1786 21.913 54.2306 21.913H61.0333H95.0471V33.6723H91.4532Z" fill="#EADDDD"/>
<path d="M18.548 33.6723V83.5212H49.0963M18.548 33.6723H14.9541V21.913H49.0963M18.548 33.6723H49.0963M91.4532 33.6723V83.5212H61.0333M91.4532 33.6723H95.0471V21.913H61.0333M91.4532 33.6723H61.0333M49.0963 21.913V33.6723M49.0963 21.913H54.2305M49.0963 83.5212H61.0333M49.0963 83.5212V33.6723M61.0333 21.913V33.6723M61.0333 21.913H54.2305M61.0333 83.5212V33.6723M54.2305 21.913C57.91 14.3291 67.2508 1.22708 75.1522 9.51461C75.7622 10.1544 77.8477 13.9882 76.4358 16.8009C75.0239 19.6136 73.7403 20.9805 71.3016 21.4024C68.3495 21.913 60.1785 21.913 54.2305 21.913ZM49.0963 21.9111H55.8991M55.8991 21.9111C52.2196 14.3273 42.8788 1.22526 34.9774 9.51279C34.3674 10.1526 32.2819 13.9863 33.6938 16.7991C35.1057 19.6118 36.3893 20.9787 38.828 21.4005C41.7801 21.9111 49.9511 21.9111 55.8991 21.9111Z" stroke="white"/>
<path d="M95.0471 33.6725V21.9132L14.9541 21.9114V33.6725H95.0471Z" fill="#EADDDD" stroke="#333333"/>
<path d="M61.0334 83.5212H49.0965V33.6723V21.913H54.2307C54.231 21.9124 54.2312 21.9118 54.2315 21.9111C54.2316 21.911 54.2317 21.9109 54.2317 21.9108C48.5122 21.9069 41.5126 21.8648 38.8282 21.4005C36.3894 20.9787 35.1059 19.6118 33.694 16.7991C32.2821 13.9863 34.3675 10.1526 34.9775 9.51279C42.3375 1.79312 50.9465 12.6322 55.0654 20.2831C59.1848 12.6323 67.793 1.79555 75.1524 9.51461C75.7624 10.1544 77.8478 13.9882 76.4359 16.8009C75.024 19.6136 73.7405 20.9805 71.3018 21.4024C68.3496 21.913 60.1788 21.913 54.2308 21.913H61.0334V33.6723V83.5212Z" fill="#EA5A5A"/>
<path d="M54.2307 21.913H49.0965V33.6723V83.5212H61.0334V33.6723V21.913H54.2307ZM54.2307 21.913C57.9101 14.3291 67.251 1.22708 75.1524 9.51461C75.7624 10.1544 77.8478 13.9882 76.4359 16.8009C75.024 19.6136 73.7405 20.9805 71.3018 21.4024C68.3496 21.913 60.1787 21.913 54.2307 21.913ZM49.0965 21.9111H55.8993M55.8993 21.9111C52.2198 14.3273 42.8789 1.22526 34.9775 9.51279C34.3675 10.1526 32.2821 13.9863 33.694 16.7991C35.1059 19.6118 36.3894 20.9787 38.8282 21.4005C41.7803 21.9111 49.9512 21.9111 55.8993 21.9111Z" stroke="white"/>
</svg>
