<svg width="112" height="93" viewBox="0 0 112 93" fill="none" xmlns="http://www.w3.org/2000/svg">
<line x1="0.5" y1="60" x2="0.500001" y2="88" stroke="black" stroke-dasharray="1 6"/>
<rect x="86" y="41.7573" width="6" height="6" transform="rotate(45 86 41.7573)" fill="#F7F0F0"/>
<line x1="109.5" y1="2.18557e-08" x2="109.5" y2="16" stroke="black" stroke-dasharray="1 6"/>
<path d="M77.0854 62.6395C88.8094 61.3001 108.022 64.2142 110 68.5C114.385 78.0001 90.5 74.9999 89 82.4999C87.5 89.9999 104.5 84.5 99 92.5" stroke="#333333"/>
<path d="M72.2829 21.2741C75.5368 20.8549 77.1695 20.457 77.1695 20.457V25.3437V30.6746V36.0055V41.3364V42.6691V47.1116V53.331V59.9946V65.7697V71.5449C77.1695 71.5449 76.5764 71.7978 75.3926 72.1594C73.7349 72.6658 70.919 73.3853 66.952 73.9216C65.4812 74.1204 63.8522 74.2941 62.0653 74.4224C60.6794 74.522 59.1985 74.5942 57.6229 74.6297C56.9023 74.646 56.1619 74.6546 55.4017 74.6546C54.2481 74.6546 53.1402 74.6348 52.078 74.5985C49.8806 74.5233 47.8786 74.3771 46.0726 74.1877C43.8507 73.9547 41.9253 73.6563 40.2974 73.3445C38.1505 72.9332 36.5209 72.4986 35.4108 72.1594C34.227 71.7978 33.6338 71.5449 33.6338 71.5449V66.6582V61.7716V57.7734V53.331V45.3346V36.0055V27.1207V20.457C33.6338 20.457 36.6049 21.181 42.5186 21.7047C45.8698 22.0015 50.1658 22.234 55.4017 22.234C58.7475 22.234 61.7095 22.1391 64.2865 21.9931C67.5831 21.8063 70.2495 21.5361 72.2829 21.2741Z" fill="#EADDDD"/>
<path d="M55.4017 22.234C58.7475 22.234 61.7095 22.1391 64.2865 21.9931M55.4017 22.234L77.1695 36.0055M55.4017 22.234C50.1658 22.234 45.8698 22.0015 42.5186 21.7047M72.2829 21.2741C75.5368 20.8549 77.1695 20.457 77.1695 20.457V25.3437M72.2829 21.2741L77.1695 25.3437M72.2829 21.2741C70.2495 21.5361 67.5831 21.8063 64.2865 21.9931M77.1695 25.3437V30.6746M64.2865 21.9931L77.1695 30.6746M77.1695 30.6746V36.0055M77.1695 36.0055V41.3364M42.5186 21.7047C36.6049 21.181 33.6338 20.457 33.6338 20.457V27.1207M42.5186 21.7047L33.6338 27.1207M42.5186 21.7047L47.4053 24.4733M77.1695 41.3364L72.2829 38.5678M77.1695 41.3364V42.6691M33.6338 27.1207V36.0055M47.4053 24.4733L33.6338 36.0055M47.4053 24.4733L52.078 27.1207M33.6338 36.0055V45.3346M52.078 27.1207L33.6338 45.3346M52.078 27.1207L58.3509 30.6746M33.6338 45.3346V53.331M58.3509 30.6746L33.6338 53.331M58.3509 30.6746L65.5077 34.7294M33.6338 53.331V57.7734M65.5077 34.7294L33.6338 57.7734M65.5077 34.7294L72.2829 38.5678M33.6338 57.7734V61.7716M72.2829 38.5678L33.6338 61.7716M33.6338 61.7716V66.6582M77.1695 42.6691L73.6156 44.6274M77.1695 42.6691V47.1116M33.6338 66.6582V71.5449C33.6338 71.5449 34.227 71.7978 35.4108 72.1594M33.6338 66.6582L38.9647 63.7208M73.6156 44.6274L77.1695 47.1116M73.6156 44.6274L70.0617 46.5857M77.1695 47.1116V53.331M70.0617 46.5857L77.1695 53.331M70.0617 46.5857L64.2865 49.768M77.1695 53.331V59.9946M64.2865 49.768L77.1695 59.9946M64.2865 49.768L58.3509 53.0386M77.1695 59.9946V65.7697M58.3509 53.0386L77.1695 65.7697M58.3509 53.0386L52.078 56.4951M77.1695 65.7697V71.5449C77.1695 71.5449 76.5764 71.7978 75.3926 72.1594M52.078 56.4951L75.3926 72.1594M52.078 56.4951L47.4053 59.0698M75.3926 72.1594C73.7349 72.6658 70.919 73.3853 66.952 73.9216M47.4053 59.0698L43.185 61.3953M47.4053 59.0698L49.1823 60.42M66.952 73.9216L62.6514 70.654M66.952 73.9216C65.4812 74.1204 63.8522 74.2941 62.0653 74.4224M38.9647 63.7208L35.4108 72.1594M38.9647 63.7208L43.185 61.3953M35.4108 72.1594C36.5209 72.4986 38.1505 72.9332 40.2974 73.3445M43.185 61.3953L40.2974 73.3445M40.2974 73.3445C41.9253 73.6563 43.8507 73.9547 46.0726 74.1877M49.1823 60.42L46.0726 74.1877M49.1823 60.42L53.5265 63.7208M46.0726 74.1877C47.8786 74.3771 49.8806 74.5233 52.078 74.5985M53.5265 63.7208L52.078 74.5985M53.5265 63.7208L58.3509 67.3864M52.078 74.5985C53.1402 74.6348 54.2481 74.6546 55.4017 74.6546C56.1619 74.6546 56.9023 74.646 57.6229 74.6298M58.3509 67.3864L57.6229 74.6298M58.3509 67.3864L62.6514 70.654M57.6229 74.6298C59.1985 74.5942 60.6794 74.522 62.0653 74.4224M62.6514 70.654L62.0653 74.4224" stroke="#EA5A5A"/>
<path d="M81.611 10.2381C81.611 13.1823 69.8763 15.569 55.4007 15.569C40.9252 15.569 29.1904 13.1823 29.1904 10.2381C29.1904 7.29396 40.9252 4.90723 55.4007 4.90723C69.8763 4.90723 81.611 7.29396 81.611 10.2381Z" fill="#EA5A5A"/>
<ellipse cx="55.4011" cy="10.2432" rx="11.1061" ry="2.66545" fill="white"/>
<path d="M28.3018 14.5258C28.3018 19.2 39.1816 20.8997 55.8376 20.8997C60.6431 20.8997 64.8951 20.7133 68.5128 20.3693C77.4343 19.5208 82.4993 17.7132 82.4993 15.3756V11.9762C82.4993 15.2617 72.4936 17.5003 55.8376 17.5003C39.1816 17.5003 28.3018 15.8005 28.3018 11.1263V14.5258Z" fill="#EA5A5A"/>
<path d="M28.3018 76.1392C28.3018 81.2384 39.1816 83.0926 55.8376 83.0926C60.6431 83.0926 64.8951 82.8893 68.5128 82.514C77.4343 81.5884 82.4993 79.6165 82.4993 77.0664V73.3579C82.4993 76.9421 72.4936 79.3841 55.8376 79.3841C39.1816 79.3841 28.3018 77.5299 28.3018 72.4308V76.1392Z" fill="#EA5A5A"/>
<path d="M29.1904 72.4294C29.1904 77.5285 45.2254 78.2761 55.8378 78.2072C66.1156 78.1404 82.0553 77.3178 82.0553 72.4294C82.0553 71.9851 80.7225 70.21 78.9456 70.21C81.1668 73.7648 65.0979 75.3974 55.8378 75.5417C45.9058 75.6965 29.6042 73.7648 31.8559 70.21C30.0789 70.6551 29.1904 71.9851 29.1904 72.4294Z" fill="#EA5A5A"/>
</svg>
