<svg width="24" height="24" viewBox="0 0 24 24" fill="#E11E26" xmlns="http://www.w3.org/2000/svg">
<path d="M5.30879 16.2543L7.78164 15.6056C8.07226 15.5284 8.37662 15.518 8.67183 15.5753C8.96704 15.6326 9.24543 15.756 9.48608 15.9363L11.5693 17.4957C14.1736 15.6624 16.1291 13.0501 17.154 10.0346L15.0595 8.46683C14.5726 8.10243 14.2794 7.53843 14.2618 6.92468L14.1901 4.38906C14.1768 3.89814 14.3445 3.41945 14.6612 3.04415C14.978 2.66884 15.4217 2.42313 15.9079 2.35379L17.6202 2.10751C18.7387 1.94664 19.803 2.74325 19.8946 3.87171C20.5857 12.4002 14.7962 20.123 6.42851 21.862C5.31999 22.0921 4.25574 21.2955 4.09488 20.177L3.84859 18.4646C3.69491 17.4664 4.32616 16.5168 5.30879 16.2543Z"/>
</svg>
