<svg width="15" height="15" viewBox="0 0 15 15" fill="#E11E26" xmlns="http://www.w3.org/2000/svg">
<path d="M6.41679 9.26426C6.93294 9.96183 7.59437 10.5364 8.35464 10.9477L9.55845 10.2245C9.59366 10.2065 9.63342 10.1998 9.67245 10.2051C9.71149 10.2105 9.74796 10.2277 9.77705 10.2544L11.611 11.8407C11.6811 11.8976 11.7371 11.9702 11.7745 12.0528C11.8119 12.1354 11.8298 12.2257 11.8268 12.3166C11.8237 12.4074 11.7998 12.4964 11.7568 12.5764C11.7139 12.6565 11.6531 12.7254 11.5793 12.7777C11.5056 12.8301 10.5702 13.5572 10.5069 13.5899C10.4437 13.6226 10.4437 13.6226 10.2867 13.6988C10.0971 13.7281 9.94104 13.6915 9.7605 13.6267C7.95889 12.9857 6.37358 11.8453 5.18577 10.3359C4.03013 8.81743 3.33659 6.99178 3.18927 5.08037C3.17493 4.89003 3.15666 4.77989 3.17686 4.63464C3.19629 4.48929 3.21661 4.34407 3.30669 4.22327C3.39676 4.10246 4.41521 3.40418 4.41521 3.40418C4.48433 3.34964 4.56474 3.31157 4.6504 3.29282C4.73606 3.27406 4.82476 3.27511 4.90986 3.29588C4.99496 3.31665 5.07425 3.3566 5.14179 3.41275C5.20934 3.46889 5.26339 3.53978 5.2999 3.62009L6.36524 5.81153C6.38404 5.84622 6.39129 5.88613 6.38591 5.92537C6.38054 5.9646 6.36283 6.00109 6.33539 6.02945L5.30546 6.98068C5.50326 7.81619 5.88289 8.59624 6.41679 9.26426Z" stroke="none"/>
</svg>
