<svg width="15" opacity="0.6" height="15" viewBox="0 0 15 15" fill="white" xmlns="http://www.w3.org/2000/svg">
<g stroke="none">
<path d="M6.26089 8.37419C6.85135 9.17219 7.60801 9.82949 8.47774 10.2999L9.85485 9.47268C9.89514 9.45213 9.94062 9.4444 9.98527 9.45052C10.0299 9.45664 10.0717 9.47631 10.1049 9.50693L12.2029 11.3216C12.2831 11.3867 12.3471 11.4697 12.39 11.5642C12.4328 11.6587 12.4533 11.762 12.4498 11.8659C12.4462 11.9699 12.4188 12.0717 12.3697 12.1632C12.3206 12.2548 12.2511 12.3336 12.1667 12.3935C12.0823 12.4534 11.0122 13.2852 10.9399 13.3226C10.8676 13.36 10.8676 13.36 10.688 13.4472C10.4711 13.4807 10.2925 13.4388 10.086 13.3647C8.025 12.6315 6.21146 11.3269 4.85263 9.60009C3.53062 7.86303 2.73723 5.77454 2.5687 3.58794C2.55229 3.3702 2.53139 3.24419 2.5545 3.07804C2.57672 2.91176 2.59997 2.74563 2.70301 2.60744C2.80606 2.46924 3.97113 1.67042 3.97113 1.67042C4.05021 1.60803 4.14219 1.56448 4.24018 1.54303C4.33818 1.52157 4.43965 1.52277 4.537 1.54653C4.63435 1.57029 4.72506 1.616 4.80233 1.68023C4.8796 1.74446 4.94143 1.82554 4.98319 1.91742L6.20192 4.42436C6.22342 4.46405 6.23171 4.5097 6.22556 4.55459C6.21942 4.59948 6.19915 4.64122 6.16776 4.67366L4.98956 5.76184C5.21584 6.71763 5.65012 7.61 6.26089 8.37419Z"/>
</g>
</svg>
