<svg width="12" height="12" viewBox="0 0 12 12" fill="white" xmlns="http://www.w3.org/2000/svg">
<g clip-path="url(#clip0_1429_137)" stroke="none">
<path fill-rule="evenodd" clip-rule="evenodd" d="M8.70742 7.19095C8.55842 7.11645 7.82792 6.75745 7.69193 6.70746C7.55593 6.65796 7.45693 6.63346 7.35743 6.78245C7.25843 6.93045 6.97393 7.26545 6.88743 7.36445C6.80043 7.46395 6.71393 7.47595 6.56544 7.40195C6.41694 7.32695 5.93794 7.17045 5.37045 6.66446C4.92895 6.27046 4.63046 5.78396 4.54396 5.63497C4.45746 5.48647 4.53446 5.40597 4.60896 5.33197C4.67596 5.26547 4.75745 5.15847 4.83195 5.07197C4.90645 4.98497 4.93095 4.92297 4.98045 4.82347C5.03045 4.72447 5.00545 4.63798 4.96795 4.56348C4.93095 4.48898 4.63396 3.75748 4.50996 3.45999C4.38946 3.17049 4.26696 3.20999 4.17596 3.20499C4.08896 3.20099 3.98996 3.19999 3.89096 3.19999C3.79196 3.19999 3.63096 3.23699 3.49497 3.38599C3.35847 3.53449 2.97497 3.89398 2.97497 4.62548C2.97497 5.35647 3.50697 6.06296 3.58147 6.16246C3.65596 6.26146 4.62896 7.76244 6.11944 8.40594C6.47444 8.55894 6.75094 8.65044 6.96643 8.71844C7.32243 8.83193 7.64643 8.81593 7.90242 8.77743C8.18742 8.73493 8.78142 8.41794 8.90541 8.07094C9.02891 7.72395 9.02891 7.42645 8.99191 7.36445C8.95491 7.30245 8.85641 7.26545 8.70742 7.19095ZM10.2024 1.744C9.6515 1.18947 8.99603 0.749782 8.27396 0.450416C7.5519 0.151051 6.7776 -0.0020381 5.99594 2.04886e-05C2.71897 2.04886e-05 0.0509995 2.66749 0.0499995 5.94596C0.048481 6.98933 0.322184 8.01464 0.843492 8.91843L0 11.9999L3.15197 11.1729C4.0239 11.648 5.001 11.8969 5.99394 11.8969H5.99644C9.27341 11.8969 11.9414 9.22943 11.9424 5.95046C11.9448 5.16911 11.7923 4.39503 11.4936 3.673C11.1949 2.95097 10.7561 2.29533 10.2024 1.744Z"/>
<path d="M7.69181 6.70742C7.82781 6.75742 8.5583 7.11641 8.7073 7.19091C8.8563 7.26541 8.95479 7.30241 8.99179 7.36441C9.02879 7.42641 9.0288 7.72391 8.9053 8.0709C8.7813 8.4179 8.1873 8.7349 7.90231 8.7774C7.64631 8.8159 7.32231 8.8319 6.96631 8.7184C6.75082 8.6504 6.47432 8.5589 6.11932 8.4059C4.62884 7.76241 3.65585 6.26142 3.58135 6.16242L3.58013 6.1608C3.50125 6.05546 2.97485 5.35257 2.97485 4.62544C2.97485 3.89394 3.35835 3.53445 3.49485 3.38595C3.63085 3.23695 3.79185 3.19995 3.89084 3.19995C3.98984 3.19995 4.08884 3.20095 4.17584 3.20495C4.26684 3.20995 4.38934 3.17045 4.50984 3.45995C4.63384 3.75745 4.93083 4.48894 4.96783 4.56344C5.00533 4.63794 5.03033 4.72444 4.98033 4.82344C4.93084 4.92293 4.90633 4.98493 4.83184 5.07193C4.75734 5.15843 4.67584 5.26543 4.60884 5.33193C4.53434 5.40593 4.45734 5.48643 4.54384 5.63493C4.63034 5.78393 4.92883 6.27042 5.37033 6.66442C5.93782 7.17041 6.41682 7.32691 6.56532 7.40191C6.71382 7.47591 6.80032 7.46391 6.88732 7.36441C6.97381 7.26541 7.25831 6.93041 7.35731 6.78242C7.45681 6.63342 7.55581 6.65792 7.69181 6.70742Z" fill="#2D2D2D"/>
</g>
<defs>
<clipPath id="clip0_1429_137">
<rect width="11.9999" height="11.9999"/>
</clipPath>
</defs>
</svg>
