<svg width="12" height="12" viewBox="0 0 12 12" fill="#333333" xmlns="http://www.w3.org/2000/svg">
<g clip-path="url(#clip0_175_14596)" stroke="none">
<path d="M5.16665 11.5003H6.8333V6.48154L8.49995 6.47696V4.6253H6.8333V3.70865C6.8333 2.79199 6.8333 2.32907 7.66663 2.33366L8.49995 2.32907V0.500367C8.49995 0.500367 8.29162 0.500366 7.66663 0.500366C5.79162 0.500366 5.16665 1.64617 5.16665 3.70865C5.16665 4.19729 5.16665 4.6253 5.16665 4.6253L3.5 4.6253V6.48154L5.16665 6.48154V11.5003Z"/>
<path fill-rule="evenodd" clip-rule="evenodd" d="M5.16665 4.6253L3.5 4.6253V6.48154L5.16665 6.48154V11.5003H6.8333V6.48154L8.49995 6.47696V4.6253H6.8333V3.70865C6.8333 2.79199 6.8333 2.32907 7.66663 2.33366L8.49995 2.32907V0.500366H7.66663C5.79162 0.500366 5.16665 1.64617 5.16665 3.70865V4.6253ZM8.31995 0.680365L7.66663 0.680364C6.76841 0.680364 6.20695 0.952259 5.85975 1.43603C5.50282 1.93334 5.34665 2.68806 5.34665 3.70865V4.62499V4.8053L3.68 4.8053V6.30154L5.34665 6.30154V11.3203H6.6533V6.30203L8.31995 6.29745V4.8053H6.6533V3.70336C6.6533 3.47836 6.6533 3.2719 6.66684 3.09287C6.68041 2.91329 6.70848 2.74483 6.77353 2.60136C6.84143 2.45161 6.94802 2.3328 7.10604 2.25584C7.25774 2.18195 7.4447 2.15253 7.66661 2.15366L8.31995 2.15006V0.680365Z"/>
</g>
<defs>
<clipPath id="clip0_175_14596">
<rect width="11.9999" height="11.9999" fill="white"/>
</clipPath>
</defs>
</svg>
