<svg width="12" height="12" viewBox="0 0 12 12" fill="#D9D9D9" xmlns="http://www.w3.org/2000/svg">
<g clip-path="url(#clip0_1429_143)" stroke="none">
<rect x="0.500488" y="0.5" width="10.9999" height="10.9999" rx="2" />
<circle cx="6.00022" cy="5.99998" r="1.99998" stroke="#2D2D2D"/>
<path d="M9.22827 2.39648C9.09566 2.39648 8.96848 2.44916 8.87472 2.54292C8.78095 2.63669 8.72827 2.76387 8.72827 2.89647C8.72827 3.02908 8.78095 3.15626 8.87472 3.25002C8.96848 3.34379 9.09566 3.39647 9.22827 3.39647C9.36087 3.39647 9.48805 3.34379 9.58182 3.25002C9.67558 3.15626 9.72826 3.02908 9.72826 2.89647C9.72826 2.76387 9.67558 2.63669 9.58182 2.54292C9.48805 2.44916 9.36087 2.39648 9.22827 2.39648Z" fill="#2D2D2D"/>
</g>
<defs>
<clipPath id="clip0_1429_143">
<rect width="11.9999" height="11.9999" fill="white" transform="translate(0.000488281)"/>
</clipPath>
</defs>
</svg>
