<svg width="12" height="12" viewBox="0 0 12 12" fill="#333333" xmlns="http://www.w3.org/2000/svg">
<g clip-path="url(#clip0_175_14588)" stroke="none">
<rect x="0.5" y="0.5" width="10.9999" height="10.9999" rx="2" stroke="none"/>
<circle cx="5.99998" cy="5.99985" r="1.99998" stroke="white"/>
<path d="M9.22656 2.39648C9.09395 2.39648 8.96677 2.44916 8.87301 2.54292C8.77924 2.63669 8.72656 2.76387 8.72656 2.89647C8.72656 3.02908 8.77924 3.15626 8.87301 3.25002C8.96677 3.34379 9.09395 3.39647 9.22656 3.39647C9.35916 3.39647 9.48634 3.34379 9.58011 3.25002C9.67388 3.15626 9.72655 3.02908 9.72655 2.89647C9.72655 2.76387 9.67388 2.63669 9.58011 2.54292C9.48634 2.44916 9.35916 2.39648 9.22656 2.39648Z" fill="white"/>
</g>
<defs>
<clipPath id="clip0_175_14588">
<rect width="11.9999" height="11.9999" fill="white"/>
</clipPath>
</defs>
</svg>
