<svg width="12" height="12" viewBox="0 0 12 12" fill="white" xmlns="http://www.w3.org/2000/svg">
<path d="M5.16665 11.5004H6.8333V6.48166L8.49995 6.47708V4.62542H6.8333V3.70877C6.8333 2.79211 6.8333 2.3292 7.66663 2.33378L8.49995 2.3292V0.500489C8.49995 0.500489 8.29162 0.500488 7.66663 0.500488C5.79162 0.500488 5.16665 1.64629 5.16665 3.70877C5.16665 4.19741 5.16665 4.62542 5.16665 4.62542L3.5 4.62542V6.48166L5.16665 6.48166V11.5004Z" stroke="none"/>
<path fill-rule="evenodd" clip-rule="evenodd" d="M5.16665 4.62542L3.5 4.62542V6.48166L5.16665 6.48166V11.5004H6.8333V6.48166L8.49995 6.47708V4.62542H6.8333V3.70877C6.8333 2.79211 6.8333 2.3292 7.66663 2.33378L8.49995 2.3292V0.500488H7.66663C5.79162 0.500488 5.16665 1.64629 5.16665 3.70877V4.62542ZM8.31995 0.680487L7.66663 0.680487C6.76841 0.680487 6.20695 0.952381 5.85975 1.43615C5.50282 1.93346 5.34665 2.68818 5.34665 3.70877V4.62511V4.80542L3.68 4.80542V6.30166L5.34665 6.30166V11.3204H6.6533V6.30216L8.31995 6.29758V4.80542H6.6533V3.70348C6.6533 3.47848 6.6533 3.27203 6.66684 3.093C6.68041 2.91341 6.70848 2.74495 6.77353 2.60148C6.84143 2.45173 6.94802 2.33293 7.10604 2.25596C7.25774 2.18207 7.4447 2.15265 7.66661 2.15378L8.31995 2.15018V0.680487Z" stroke="none"/>
</svg>
