<svg width="12" height="12" viewBox="0 0 12 12" fill="#333333" xmlns="http://www.w3.org/2000/svg">
<g clip-path="url(#clip0_175_14582)">
<path fill-rule="evenodd" clip-rule="evenodd" d="M8.70742 7.19095C8.55842 7.11645 7.82792 6.75745 7.69193 6.70746C7.55593 6.65796 7.45693 6.63346 7.35743 6.78245C7.25843 6.93045 6.97393 7.26545 6.88743 7.36445C6.80043 7.46395 6.71393 7.47595 6.56544 7.40195C6.41694 7.32695 5.93794 7.17045 5.37045 6.66446C4.92895 6.27046 4.63046 5.78396 4.54396 5.63497C4.45746 5.48647 4.53446 5.40597 4.60896 5.33197C4.67596 5.26547 4.75745 5.15847 4.83195 5.07197C4.90645 4.98497 4.93095 4.92297 4.98045 4.82347C5.03045 4.72447 5.00545 4.63798 4.96795 4.56348C4.93095 4.48898 4.63396 3.75748 4.50996 3.45999C4.38946 3.17049 4.26696 3.20999 4.17596 3.20499C4.08896 3.20099 3.98996 3.19999 3.89096 3.19999C3.79196 3.19999 3.63096 3.23699 3.49497 3.38599C3.35847 3.53449 2.97497 3.89398 2.97497 4.62548C2.97497 5.35647 3.50697 6.06296 3.58147 6.16246C3.65596 6.26146 4.62896 7.76244 6.11944 8.40594C6.47444 8.55894 6.75094 8.65044 6.96643 8.71844C7.32243 8.83193 7.64643 8.81593 7.90242 8.77743C8.18742 8.73493 8.78142 8.41794 8.90541 8.07094C9.02891 7.72395 9.02891 7.42645 8.99191 7.36445C8.95491 7.30245 8.85641 7.26545 8.70742 7.19095ZM10.2024 1.744C9.6515 1.18947 8.99603 0.749782 8.27396 0.450416C7.5519 0.151051 6.7776 -0.0020381 5.99594 2.04886e-05C2.71897 2.04886e-05 0.0509995 2.66749 0.0499995 5.94596C0.048481 6.98933 0.322184 8.01464 0.843492 8.91843L0 11.9999L3.15197 11.1729C4.0239 11.648 5.001 11.8969 5.99394 11.8969H5.99644C9.27341 11.8969 11.9414 9.22943 11.9424 5.95046C11.9448 5.16911 11.7923 4.39503 11.4936 3.673C11.1949 2.95097 10.7561 2.29533 10.2024 1.744Z" stroke="none"/>
<path d="M7.69352 6.70717C7.82951 6.75717 8.56001 7.11617 8.70901 7.19067C8.85801 7.26517 8.9565 7.30217 8.9935 7.36417C9.0305 7.42617 9.0305 7.72366 8.90701 8.07066C8.78301 8.41766 8.18901 8.73465 7.90401 8.77715C7.64802 8.81565 7.32402 8.83165 6.96802 8.71815C6.75253 8.65015 6.47603 8.55865 6.12103 8.40566C4.63055 7.76216 3.65756 6.26118 3.58306 6.16218L3.58184 6.16055C3.50296 6.05522 2.97656 5.35233 2.97656 4.62519C2.97656 3.8937 3.36006 3.5342 3.49656 3.38571C3.63256 3.23671 3.79355 3.19971 3.89255 3.19971C3.99155 3.19971 4.09055 3.20071 4.17755 3.20471C4.26855 3.20971 4.39105 3.17021 4.51155 3.4597C4.63555 3.7572 4.93254 4.48869 4.96954 4.56319C5.00704 4.63769 5.03204 4.72419 4.98204 4.82319C4.93254 4.92269 4.90804 4.98469 4.83354 5.07169C4.75905 5.15819 4.67755 5.26519 4.61055 5.33169C4.53605 5.40569 4.45905 5.48619 4.54555 5.63468C4.63205 5.78368 4.93054 6.27018 5.37204 6.66417C5.93953 7.17017 6.41853 7.32667 6.56703 7.40167C6.71553 7.47567 6.80203 7.46367 6.88902 7.36417C6.97552 7.26517 7.26002 6.93017 7.35902 6.78217C7.45852 6.63317 7.55752 6.65767 7.69352 6.70717Z" fill="white" stroke="none"/>
</g>
<defs>
<clipPath id="clip0_175_14582">
<rect width="11.9999" height="11.9999" fill="white" stroke="none"/>
</clipPath>
</defs>
</svg>
