<svg width="11" height="11" viewBox="0 0 11 11" fill="#E11E26" stroke="#E11E26" xmlns="http://www.w3.org/2000/svg">
<path d="M10.5 2.5C10.5 1.39543 9.60457 0.5 8.5 0.5C7.39543 0.5 6.5 1.39543 6.5 2.5C6.5 3.60457 7.39543 4.5 8.5 4.5C9.60457 4.5 10.5 3.60457 10.5 2.5Z" fill="none"/>
<path d="M4.5 0.5H0.5V4.5H4.5V0.5Z"/>
<path d="M4.5 8.5C4.5 7.39543 3.60457 6.5 2.5 6.5C1.39543 6.5 0.5 7.39543 0.5 8.5C0.5 9.60457 1.39543 10.5 2.5 10.5C3.60457 10.5 4.5 9.60457 4.5 8.5Z"/>
<path d="M10.5 6.5H6.5V10.5H10.5V6.5Z"/>
</svg>
