<svg width="60" height="58" viewBox="0 0 60 58" fill="none" xmlns="http://www.w3.org/2000/svg">
<g filter="url(#filter0_d_973_9030)">
<circle cx="20" cy="20" r="20" transform="matrix(-1 0 0 1 50 8)" fill="white"/>
</g>
<path d="M0.646446 27.6464C0.451183 27.8417 0.451183 28.1583 0.646446 28.3535L3.82843 31.5355C4.02369 31.7308 4.34027 31.7308 4.53553 31.5355C4.7308 31.3403 4.7308 31.0237 4.53553 30.8284L1.70711 28L4.53553 25.1716C4.7308 24.9763 4.7308 24.6597 4.53553 24.4645C4.34027 24.2692 4.02369 24.2692 3.82843 24.4645L0.646446 27.6464ZM60 27.5L1 27.5L1 28.5L60 28.5L60 27.5Z" fill="black"/>
<defs>
<filter id="filter0_d_973_9030" x="2" y="0" width="60" height="60" filterUnits="userSpaceOnUse" color-interpolation-filters="sRGB">
<feFlood flood-opacity="0" result="BackgroundImageFix"/>
<feColorMatrix in="SourceAlpha" type="matrix" values="0 0 0 0 0 0 0 0 0 0 0 0 0 0 0 0 0 0 127 0" result="hardAlpha"/>
<feOffset dx="2" dy="2"/>
<feGaussianBlur stdDeviation="5"/>
<feColorMatrix type="matrix" values="0 0 0 0 0 0 0 0 0 0 0 0 0 0 0 0 0 0 0.05 0"/>
<feBlend mode="normal" in2="BackgroundImageFix" result="effect1_dropShadow_973_9030"/>
<feBlend mode="normal" in="SourceGraphic" in2="effect1_dropShadow_973_9030" result="shape"/>
</filter>
</defs>
</svg>
